<svg width="60" height="60" viewBox="0 0 60 60" fill="none" xmlns="http://www.w3.org/2000/svg">
<g clip-path="url(#clip0_474_506)">
<path d="M2.33907 51.0206C2.33907 51.0206 1.34801 58.2427 7.17809 59.9662H24.0973C29.9274 58.2427 28.9363 51.0206 28.9363 51.0206L15.8871 46.6289L2.33907 51.0206Z" fill="#FFB983"/>
<path d="M17.704 46.6294H13.5713C11.7203 46.6294 10.2198 45.129 10.2198 43.278V38.26H21.0556V43.278C21.0556 45.129 19.555 46.6294 17.704 46.6294Z" fill="#FCD0A3"/>
<path d="M28.4196 31.923H28.4375C29.9746 31.923 31.22 30.6765 31.22 29.1405C31.22 27.6035 29.9746 26.3569 28.4375 26.3569C28.4175 26.3569 28.3976 26.3569 28.3775 26.358H2.89768C2.87764 26.3569 2.85772 26.3569 2.83768 26.3569C1.30064 26.3569 0.0551758 27.6035 0.0551758 29.1405C0.0551758 30.6765 1.30064 31.923 2.83768 31.923H2.85561" fill="#FFB983"/>
<path d="M21.0556 40.9644C21.0556 40.9644 28.9363 41.9552 28.9363 45.732C28.9363 49.5088 28.9363 51.0207 28.9363 51.0207H24.0972V59.9663H7.17801V51.0207H2.33899C2.33899 51.0207 2.33899 49.5087 2.33899 45.732C2.33899 41.9553 10.2197 40.9644 10.2197 40.9644" fill="#EC6161"/>
<path d="M10.92 59.9665H7.17883V51.0209H2.33899C2.33899 51.0209 2.33899 49.5094 2.33899 45.732C2.33899 41.9558 10.2198 40.9646 10.2198 40.9646H12.0344L12.1213 41.0322C10.2198 41.0321 7.61711 47.23 10.92 59.9665Z" fill="#D63030"/>
<path d="M21.0551 42.8628V43.2782C21.0551 45.1294 19.5553 46.6293 17.704 46.6293H15.8878C14.0378 46.6293 12.5367 45.1296 12.5367 43.2782V42.9413C15.3758 43.0126 18.2161 42.9861 21.0551 42.8628Z" fill="#FCD0A3"/>
<path d="M21.0555 38.2605V42.8637L21.0543 42.8626C18.2153 42.9857 15.375 43.0123 12.5361 42.9411V43.278C12.5361 45.1292 14.0371 46.6291 15.8872 46.6291H13.5711C11.721 46.6291 10.22 45.1293 10.22 43.278V38.2605H21.0555Z" fill="#FFB983"/>
<path d="M27.7795 19.0906C19.6849 18.3058 11.5903 18.3058 3.49567 19.0906C2.86754 24.1235 2.6825 29.1564 2.94067 34.1893C3.12852 37.8531 6.06032 40.7692 9.72465 40.9423C13.6666 41.1284 17.6086 41.1284 21.5505 40.9423C25.215 40.7693 28.1466 37.8531 28.3345 34.1893C28.5927 29.1565 28.4077 24.1235 27.7795 19.0906Z" fill="#FCD0A3"/>
<path d="M3.4962 19.0898C7.5428 18.6973 11.5906 18.5017 15.6385 18.5017C13.5892 18.5017 11.5399 18.6998 9.49069 19.0959C9.17194 24.1773 9.07889 29.2588 9.20932 34.3391C9.2951 37.683 10.5171 40.4097 12.1208 41.0316C11.3227 41.0099 10.5232 40.9797 9.72495 40.9422C6.0612 40.7694 3.12917 37.8532 2.94073 34.1894C2.6835 29.1562 2.86831 24.123 3.4962 19.0898Z" fill="#FFB983"/>
<path d="M15.6378 35.3988C14.1831 35.3988 12.84 34.5496 12.2162 33.2351C12.0018 32.7833 12.1942 32.2433 12.646 32.0289C13.0981 31.8144 13.6378 32.0069 13.8522 32.4586C14.1778 33.1448 14.8787 33.588 15.6378 33.588C16.3969 33.588 17.0977 33.1446 17.4232 32.4586C17.6377 32.0069 18.1776 31.8144 18.6294 32.0288C19.0812 32.2431 19.2736 32.7832 19.0593 33.235C18.4355 34.5495 17.0925 35.3988 15.6378 35.3988Z" fill="#E7AB8A"/>
<path d="M28.3093 24.1027C25.7251 26.6881 20.6074 21.5185 20.6074 21.5185C20.7523 22.4543 20.489 23.3661 19.4746 24.0906C18.7562 24.6038 17.9435 24.8296 17.1017 24.8635C13.7289 24.9987 9.9057 22.0329 9.9057 22.0329C9.22461 23.9059 7.2152 23.8684 5.54996 23.4579C4.0175 23.08 2.72305 22.0656 1.98395 20.6709C0.713636 18.2737 -1.00832 14.2186 0.747504 12.4628C3.31965 9.89067 6.51008 12.4628 6.51008 12.4628C6.51008 12.4628 9.60875 11.3 13.5636 10.4764C13.5648 10.4764 13.5672 10.4752 13.5684 10.4752C18.3009 9.48977 24.2579 8.98751 27.6041 11.5379C31.0577 14.1704 30.8947 21.5185 28.3093 24.1027Z" fill="#3C5959"/>
<path d="M17.1017 24.8634C13.7289 24.9987 9.9057 22.0329 9.9057 22.0329C9.22461 23.9059 7.2152 23.8684 5.54996 23.4579C4.0175 23.0799 2.72305 22.0656 1.98395 20.6708C0.713636 18.2736 -1.00832 14.2186 0.747504 12.4628C3.31965 9.89061 6.51008 12.4628 6.51008 12.4628C6.51008 12.4628 9.60875 11.2999 13.5636 10.4763C8.45059 11.8192 12.6421 23.2622 17.1017 24.8634Z" fill="#394949"/>
<path d="M53.514 34.1897C59.0558 34.1897 59.2132 41.1374 60 43.3405C60 43.3405 54.0428 42.3067 52.1824 37.9846" fill="#FCB143"/>
<path d="M27.5181 51.0209C27.5181 51.0209 26.5271 58.2429 32.3572 59.9665H49.2762C55.1063 58.2429 54.1153 51.0209 54.1153 51.0209L41.0661 46.6292L27.5181 51.0209Z" fill="#FFB983"/>
<path d="M42.8831 46.6297H38.7504C36.8994 46.6297 35.3989 45.1292 35.3989 43.2782V38.2603H46.2347V43.2782C46.2346 45.1292 44.7341 46.6297 42.8831 46.6297Z" fill="#FCD0A3"/>
<path d="M53.5988 31.9235H53.6167C55.1537 31.9235 56.3992 30.677 56.3992 29.141C56.3992 27.6039 55.1537 26.3574 53.6167 26.3574C53.5967 26.3574 53.5768 26.3574 53.5567 26.3585H28.0769C28.0568 26.3574 28.0369 26.3574 28.0169 26.3574C26.4798 26.3574 25.2344 27.6039 25.2344 29.141C25.2344 30.677 26.4798 31.9235 28.0169 31.9235H28.0348" fill="#FFB983"/>
<path d="M54.1159 45.7318V51.0207H49.276V59.9663H32.3577V51.0207H27.5178C27.5178 51.0207 27.5178 49.5092 27.5178 45.7318C27.5178 41.9555 35.3987 40.9644 35.3987 40.9644H46.2349C46.235 40.9644 54.1159 41.9555 54.1159 45.7318Z" fill="#0A93A3"/>
<path d="M36.0989 59.9666H32.3577V51.0209H27.5178C27.5178 51.0209 27.5178 49.5094 27.5178 45.732C27.5178 41.9558 35.3987 40.9646 35.3987 40.9646H37.2132L37.3001 41.0322C35.3987 41.0321 32.7958 47.2302 36.0989 59.9666Z" fill="#046B74"/>
<path d="M46.2344 42.8633V43.2787C46.2344 45.1299 44.7347 46.6298 42.8833 46.6298H41.0672C39.2171 46.6298 37.7161 45.13 37.7161 43.2787V42.9418C40.5552 43.013 43.3953 42.9864 46.2344 42.8633Z" fill="#FCD0A3"/>
<path d="M46.2347 38.2607V42.864L46.2335 42.8628C43.3945 42.986 40.5542 43.0126 37.7153 42.9413V43.2782C37.7153 45.1294 39.2163 46.6293 41.0664 46.6293H38.7503C36.9002 46.6293 35.3992 45.1296 35.3992 43.2782V38.2607H46.2347Z" fill="#FFB983"/>
<path d="M52.9587 19.091C44.8641 18.3062 36.7695 18.3062 28.6749 19.091C28.0467 24.124 27.8617 29.1569 28.1199 34.1898C28.3077 37.8536 31.2395 40.7697 34.9039 40.9428C38.8458 41.1289 42.7878 41.1289 46.7297 40.9428C50.3942 40.7698 53.3259 37.8536 53.5138 34.1898C53.7719 29.1569 53.5868 24.1239 52.9587 19.091Z" fill="#FCD0A3"/>
<path d="M28.6753 19.0902C32.7219 18.6978 36.7697 18.5022 40.8176 18.5022C38.7683 18.5022 36.719 18.7002 34.6698 19.0963C34.351 24.1778 34.258 29.2593 34.3884 34.3396C34.4742 37.6834 35.6962 40.4102 37.2999 41.0321C36.5018 41.0104 35.7023 40.9802 34.904 40.9427C31.2403 40.7699 28.3083 37.8537 28.1198 34.1899C27.8626 29.1567 28.0473 24.1234 28.6753 19.0902Z" fill="#FFB983"/>
<path d="M40.8168 35.3991C39.3622 35.3991 38.0191 34.5498 37.3953 33.2353C37.1809 32.7836 37.3733 32.2436 37.825 32.0291C38.2768 31.8146 38.8168 32.0072 39.0312 32.4589C39.3569 33.145 40.0578 33.5882 40.8168 33.5882C41.5759 33.5882 42.2768 33.1449 42.6023 32.4589C42.8166 32.0071 43.3566 31.8148 43.8085 32.029C44.2603 32.2433 44.4527 32.7835 44.2384 33.2352C43.6146 34.5497 42.2715 35.3991 40.8168 35.3991Z" fill="#E7AB8A"/>
<path d="M53.4716 24.6222C53.4716 24.6222 44.2505 24.1935 40.8174 18.5022C39.3598 20.9209 36.8566 22.3881 34.4595 23.2757C31.2135 24.4809 28.1631 24.6222 28.1631 24.6222C28.1631 24.6222 23.805 10.4512 40.8175 10.4512C57.83 10.4512 53.4716 24.6222 53.4716 24.6222Z" fill="#FCB143"/>
<path d="M40.8175 10.4512C36.3507 12.4196 34.6698 19.095 34.4597 23.2757C31.2137 24.4809 28.1633 24.6222 28.1633 24.6222C28.1633 24.6222 23.8051 10.4512 40.8175 10.4512Z" fill="#FA9801"/>
<path d="M32.6435 33.2296C33.9145 33.2296 34.9449 32.754 34.9449 32.1674C34.9449 31.5808 33.9145 31.1052 32.6435 31.1052C31.3724 31.1052 30.342 31.5808 30.342 32.1674C30.342 32.754 31.3724 33.2296 32.6435 33.2296Z" fill="#EC6161"/>
<path d="M48.99 33.2296C50.2611 33.2296 51.2915 32.754 51.2915 32.1674C51.2915 31.5808 50.2611 31.1052 48.99 31.1052C47.719 31.1052 46.6886 31.5808 46.6886 32.1674C46.6886 32.754 47.719 33.2296 48.99 33.2296Z" fill="#EC6161"/>
<path d="M28.9497 16.3345C19.0402 11.2011 17.7124 2.53509 22.2455 0.456182C26.729 -1.59964 28.9497 4.5152 28.9497 4.5152C28.9497 4.5152 31.1698 -1.59964 35.6533 0.456182C35.8951 0.566689 36.1199 0.696767 36.3276 0.843369C36.3281 0.843955 36.3294 0.844541 36.3306 0.845244C36.3612 0.866572 36.3905 0.888603 36.4198 0.909931C39.992 3.5838 38.2514 11.5156 28.9497 16.3345Z" fill="#EC6161"/>
<path d="M38.7269 52.7776H38.7409C39.9474 52.7776 40.925 51.7992 40.925 50.5935C40.925 49.3871 39.9474 48.4087 38.7409 48.4087C38.7252 48.4087 38.7095 48.4087 38.6938 48.4095H16.28C16.2643 48.4087 16.2486 48.4087 16.2329 48.4087C15.0264 48.4087 14.0488 49.3871 14.0488 50.5935C14.0488 51.7992 15.0264 52.7776 16.2329 52.7776H16.2469" fill="#FFB983"/>
<path d="M37.0173 42.7054C30.6638 42.0894 24.3102 42.0894 17.9566 42.7054C17.4636 46.6558 17.3184 50.6061 17.5209 54.5565C17.6685 57.4322 19.9696 59.7212 22.8458 59.8569C25.9399 60.0031 29.034 60.0031 32.128 59.8569C35.0043 59.7211 37.3054 57.4322 37.4529 54.5565C37.6556 50.6061 37.5103 46.6558 37.0173 42.7054Z" fill="#FCD0A3"/>
<path d="M17.9569 42.7048C21.1332 42.3967 24.3104 42.2432 27.4875 42.2432C25.879 42.2432 24.2705 42.3986 22.6621 42.7095C22.4119 46.6979 22.3389 50.6865 22.4412 54.6741C22.5085 57.2986 23.4678 59.4389 24.7265 59.927C24.1 59.9099 23.4725 59.8862 22.846 59.8568C19.9702 59.7212 17.6689 57.4322 17.521 54.5564C17.3191 50.6059 17.464 46.6554 17.9569 42.7048Z" fill="#FFB983"/>
<path d="M27.4869 55.5195C26.3399 55.5195 25.2808 54.8498 24.7889 53.8134C24.6173 53.452 24.7713 53.0199 25.1327 52.8485C25.4941 52.677 25.9262 52.8309 26.0976 53.1923C26.351 53.7261 26.8963 54.071 27.4869 54.071C28.0775 54.071 28.6228 53.7261 28.8762 53.1923C29.0477 52.8309 29.4796 52.6769 29.8411 52.8485C30.2025 53.0199 30.3564 53.452 30.1849 53.8134C29.693 54.8499 28.6341 55.5195 27.4869 55.5195Z" fill="#E7AB8A"/>
<path d="M9.71281 29.8909C10.3546 29.8909 10.8748 29.1173 10.8748 28.163C10.8748 27.2087 10.3546 26.4351 9.71281 26.4351C9.07104 26.4351 8.55078 27.2087 8.55078 28.163C8.55078 29.1173 9.07104 29.8909 9.71281 29.8909Z" fill="#394949"/>
<path d="M22.7247 28.163C22.7247 27.2101 22.2034 26.4351 21.5627 26.4351C20.9219 26.4351 20.4005 27.2103 20.4005 28.163C20.4005 29.1157 20.9219 29.8909 21.5627 29.8909C22.2034 29.8909 22.7247 29.1158 22.7247 28.163Z" fill="#394949"/>
<path d="M34.892 29.8912C35.5338 29.8912 36.054 29.1175 36.054 28.1632C36.054 27.2089 35.5338 26.4353 34.892 26.4353C34.2502 26.4353 33.73 27.2089 33.73 28.1632C33.73 29.1175 34.2502 29.8912 34.892 29.8912Z" fill="#394949"/>
<path d="M46.7417 26.4353C46.101 26.4353 45.5796 27.2105 45.5796 28.1632C45.5796 29.116 46.101 29.8912 46.7417 29.8912C47.3825 29.8912 47.9038 29.116 47.9038 28.1632C47.9038 27.2105 47.3825 26.4353 46.7417 26.4353Z" fill="#394949"/>
<path d="M22.8364 51.1889C23.3437 51.1889 23.755 50.5788 23.755 49.8262C23.755 49.0735 23.3437 48.4634 22.8364 48.4634C22.329 48.4634 21.9177 49.0735 21.9177 49.8262C21.9177 50.5788 22.329 51.1889 22.8364 51.1889Z" fill="#394949"/>
<path d="M32.1374 48.4634C31.6309 48.4634 31.2188 49.0747 31.2188 49.8262C31.2188 50.5776 31.6309 51.1889 32.1374 51.1889C32.6439 51.1889 33.056 50.5776 33.056 49.8262C33.056 49.0747 32.6439 48.4634 32.1374 48.4634Z" fill="#394949"/>
<path d="M37.4199 47.0468C37.4199 47.0468 30.1822 46.7104 27.4874 42.2432C26.3433 44.1417 24.3786 45.2933 22.497 45.99C19.9492 46.9359 17.555 47.0468 17.555 47.0468C17.555 47.0468 14.1341 35.9238 27.4874 35.9238C40.8407 35.9238 37.4199 47.0468 37.4199 47.0468Z" fill="#D5694C"/>
<path d="M27.4874 35.9238C23.9814 37.4688 22.662 42.7085 22.497 45.9899C19.9492 46.9358 17.555 47.0467 17.555 47.0467C17.555 47.0467 14.1341 35.9238 27.4874 35.9238Z" fill="#A64C31"/>
</g>
<defs>
<clipPath id="clip0_474_506">
<rect width="60" height="60" fill="white"/>
</clipPath>
</defs>
</svg>
