<svg width="60" height="46" viewBox="0 0 60 46" fill="none" xmlns="http://www.w3.org/2000/svg">
<path d="M58.7928 45.3926H31.5849L30.0078 45.1451L28.4563 45.3926H1.20724C0.540483 45.3926 0 44.8521 0 44.1853V4.94992C0 4.28316 0.540483 3.74268 1.20724 3.74268H2.05231L30 5.62416L57.8411 3.74268H58.7928C59.4595 3.74268 60 4.28316 60 4.94992V44.1853C60 44.8521 59.4595 45.3926 58.7928 45.3926Z" fill="#E5646E"/>
<path d="M57.9476 3.74268V41.0441C57.9476 42.2429 56.9722 43.2171 55.7746 43.2171H33.6217C32.4905 43.2171 31.5848 44.2602 31.5848 45.3926H28.4562C28.4562 44.2602 27.5094 43.2171 26.3782 43.2171H4.22528C3.02649 43.2171 2.05225 42.2429 2.05225 41.0441V3.74268H57.9476Z" fill="#DB4655"/>
<path d="M55.7387 41.4063L33.4496 41.4407C31.4494 41.4407 30.0001 43.391 30.0001 45.3925C30.0001 43.391 28.8538 41.379 26.8535 41.379L4.55162 41.527C4.2183 41.527 3.948 41.2566 3.948 40.923V0.724829C3.948 0.391267 4.2183 0.120845 4.55162 0.120845L5.63814 0.000120658H26.5838C27.6657 0.000120658 28.6369 0.474809 29.3006 1.22753C29.8639 1.86628 29.977 3.23602 29.977 4.15485L30.5729 4.09316C30.5729 3.17433 30.5473 1.86628 31.1106 1.2274C31.7742 0.474809 32.7453 0 33.8274 0H55.9803C56.3136 0 56.5839 0.270422 56.5839 0.603984V39.8367L56.3425 40.8023C56.3424 41.1359 56.0722 41.4063 55.7387 41.4063Z" fill="#F1F6F7"/>
<path d="M56.3784 39.8366V41.0439C56.3784 41.3772 56.1081 41.6475 55.7747 41.6475H33.6218C31.6214 41.6475 30.0001 43.27 30.0001 45.2716C30.0001 44.2708 29.5945 43.3642 28.9389 42.7086C28.2834 42.0531 27.378 41.6475 26.3784 41.6475H4.22545C3.89213 41.6475 3.62183 41.3772 3.62183 41.0439V0.603622C3.62183 0.270302 3.89213 0 4.22545 0H5.43269V39.3537C5.43269 39.6204 5.64891 39.8366 5.91559 39.8366H26.3784C27.6614 39.8366 28.8426 40.2844 29.7736 41.0317C29.9063 41.1381 30.0939 41.1381 30.2266 41.0317C31.1576 40.2844 32.3388 39.8366 33.6218 39.8366H56.3784Z" fill="#E1EBF0"/>
<path d="M30.9053 1.22778V42.8753C30.3416 43.5139 29.9999 44.3529 29.9999 45.2716C29.9999 44.3529 29.6583 43.5139 29.0945 42.8753V1.22778C29.6583 1.86641 29.9999 2.70545 29.9999 3.62416C29.9999 2.70545 30.3416 1.86641 30.9053 1.22778Z" fill="#E1EBF0"/>
<path d="M30.9053 40.5671V42.8754C30.3243 43.5281 29.9973 44.5184 29.9999 45.3925C30.0026 44.5186 29.6753 43.5281 29.0945 42.8754V40.5671C29.3323 40.7048 29.5593 40.8605 29.7729 41.0319C29.9057 41.1382 30.0941 41.1382 30.2269 41.0319C30.4405 40.8605 30.6675 40.7048 30.9053 40.5671Z" fill="#D2E4E7"/>
<path d="M25.7396 4.22545V10.6999L24.182 10.9776L15.0424 10.9208C14.9482 10.9208 14.8552 10.8979 14.7707 10.8556L11.2148 9.03885C11.0325 8.9471 10.8164 8.95313 10.6414 9.05575L7.2688 10.8882L7.39375 9.91881L7.38952 4.34617C7.38952 4.01297 7.65995 3.74255 7.99314 3.74255L8.83822 3.62183H25.136C25.4692 3.62183 25.7396 3.89225 25.7396 4.22545Z" fill="#B3E59F"/>
<path d="M25.7396 24.1232V30.763L16.579 31.4333L7.64029 30.763L7.43481 24.3234C7.43481 23.9902 7.70524 23.7198 8.03844 23.7198L8.83824 23.5195H25.136C25.4692 23.5195 25.7396 23.79 25.7396 24.1232Z" fill="#FDCD08"/>
<path d="M51.6867 14.1621L35.1526 14.0041C34.8193 14.0041 34.549 13.7338 34.549 13.4005L34.531 4.56323C34.531 4.22991 34.8013 3.95961 35.1346 3.95961L41.5811 3.62183H50.5473L51.7304 3.87993C52.0637 3.87993 52.334 4.15024 52.334 4.48356L52.2903 13.5584C52.2903 13.8918 52.0201 14.1621 51.6867 14.1621Z" fill="#C27E4E"/>
<path d="M52.6961 4.22545V12.9176L52.5754 13.7627C52.5754 14.0959 52.305 14.3663 51.9718 14.3663L41.0305 14.487L43.1553 10.8979C43.5005 10.3063 44.0474 9.85965 44.6969 9.63873L46.9677 8.8673C47.6607 8.63189 48.2354 8.13933 48.5746 7.49104L50.5472 3.62183H52.0925C52.4257 3.62183 52.6961 3.89225 52.6961 4.22545Z" fill="#95D6A4"/>
<path d="M52.0053 34.1048L35.0101 34.2075C34.6768 34.2075 34.4065 33.9372 34.4065 33.6039V24.3236C34.4065 23.9902 34.6768 23.7199 35.0101 23.7199L35.7948 23.5195H52.0926C52.4259 23.5195 52.6962 23.7898 52.6962 24.1232V25.8738L52.3341 26.7278L52.6962 27.6846V29.4955L52.3341 30.3854L52.6962 31.3064V32.8154L52.609 33.5011C52.609 33.8345 52.3387 34.1048 52.0053 34.1048Z" fill="#B4E3F5"/>
<path d="M52.6962 32.8153V33.7811C52.6962 34.1144 52.4259 34.3847 52.0926 34.3847H34.829C34.4956 34.3847 34.2253 34.1144 34.2253 33.7811V31.3063L34.662 30.3852L34.2253 29.4954V27.6845L34.662 26.7277L34.2253 25.8737V24.1232C34.2253 23.7898 34.4956 23.5195 34.829 23.5195H35.7948V32.4531C35.7948 32.6532 35.9569 32.8153 36.1569 32.8153H52.6962Z" fill="#8EDCEF"/>
<path d="M21.5107 19.0142H11.497C10.9969 19.0142 10.5916 18.609 10.5916 18.1088C10.5916 17.6086 10.9969 17.2034 11.497 17.2034H21.5107C22.0107 17.2034 22.4161 17.6086 22.4161 18.1088C22.4161 18.609 22.0107 19.0142 21.5107 19.0142Z" fill="#E1EBF0"/>
<path d="M24.2906 38.9119H8.7172C8.21716 38.9119 7.81177 38.5067 7.81177 38.0065C7.81177 37.5063 8.21716 37.1011 8.7172 37.1011H24.2906C24.7907 37.1011 25.1961 37.5063 25.1961 38.0065C25.1961 38.5067 24.7907 38.9119 24.2906 38.9119Z" fill="#E1EBF0"/>
<path d="M52.2736 19.0142H34.6479C34.1477 19.0142 33.7424 18.609 33.7424 18.1088C33.7424 17.6086 34.1477 17.2034 34.6479 17.2034H52.2736C52.7738 17.2034 53.1791 17.6086 53.1791 18.1088C53.1791 18.609 52.7738 19.0142 52.2736 19.0142Z" fill="#E1EBF0"/>
<path d="M49.0872 38.9119H37.8341C37.334 38.9119 36.9287 38.5067 36.9287 38.0065C36.9287 37.5063 37.334 37.1011 37.8341 37.1011H49.0872C49.5874 37.1011 49.9927 37.5063 49.9927 38.0065C49.9927 38.5067 49.5874 38.9119 49.0872 38.9119Z" fill="#E1EBF0"/>
<path d="M24.6957 11.5936L20.8326 9.97025L20.3504 9.37218L16.7926 7.55335C16.6122 7.46341 16.3987 7.46956 16.2237 7.56965L14.1111 8.72812L13.5891 9.47709L10.928 10.4737L24.6957 11.5936Z" fill="#C27E4E"/>
<path d="M24.6954 11.5933L10.928 10.4742L14.1115 8.72852L15.2672 9.3191C15.3353 9.35387 15.4105 9.37198 15.4869 9.37198H20.3505L24.6954 11.5933Z" fill="#B36D3C"/>
<path d="M20.1255 30.7629C20.1255 29.0771 18.9738 27.6604 17.4142 27.2566C17.1232 27.1813 16.7777 27.2774 16.4632 27.2774C14.4629 27.2774 13.032 28.8508 13.032 30.8511L16.5041 31.2073L20.1255 30.7629Z" fill="#E5646E"/>
<path d="M17.4701 27.2729C15.9393 27.6943 14.8142 29.0971 14.8142 30.7631L13.3941 31.0634L12.8826 30.7631C12.8826 28.7627 14.5039 27.1414 16.5043 27.1414C16.8387 27.1414 17.1623 27.1872 17.4701 27.2729Z" fill="#DB4655"/>
<path d="M41.5811 3.62183C41.3976 7.6009 38.2044 10.7941 34.2253 10.9776L34.4064 4.48356C34.4064 4.15036 34.6769 3.87993 35.0101 3.87993L35.7948 3.62183H41.5811Z" fill="#FDCD08"/>
<path d="M52.6962 29.4956V31.3065C52.1288 31.3065 51.8825 31.4224 51.5421 31.5829C51.1183 31.7821 50.5895 32.0308 49.6177 32.0308C48.6459 32.0308 48.1171 31.7821 47.6922 31.5829C47.3517 31.4224 47.1054 31.3065 46.538 31.3065C45.9718 31.3065 45.7256 31.4224 45.3851 31.5829C44.9602 31.7821 44.4326 32.0308 43.4608 32.0308C42.4877 32.0308 41.9602 31.7821 41.5352 31.5829C41.1948 31.4224 40.9497 31.3065 40.3823 31.3065C39.8149 31.3065 39.5686 31.4224 39.2282 31.5829C38.8032 31.7821 38.2756 32.0308 37.3038 32.0308C36.332 32.0308 35.8032 31.7821 35.3795 31.5829C35.039 31.4224 34.7927 31.3065 34.2253 31.3065L34.703 30.3444L34.2253 29.4956C35.1972 29.4956 35.7259 29.7443 36.1497 29.9435C36.4901 30.1041 36.7364 30.2199 37.3038 30.2199C37.8712 30.2199 38.1163 30.1041 38.4567 29.9435C38.8817 29.7443 39.4105 29.4956 40.3823 29.4956C41.3541 29.4956 41.8817 29.7443 42.3066 29.9435C42.6471 30.1041 42.8934 30.2199 43.4608 30.2199C44.027 30.2199 44.2732 30.1041 44.6137 29.9435C45.0386 29.7443 45.5662 29.4956 46.538 29.4956C47.5111 29.4956 48.0386 29.7443 48.4636 29.9435C48.804 30.1041 49.0503 30.2199 49.6177 30.2199C50.1851 30.2199 50.4314 30.1041 50.7718 29.9435C51.1956 29.7443 51.7243 29.4956 52.6962 29.4956Z" fill="#8EDCEF"/>
<path d="M52.6962 25.8738V27.6846C52.1288 27.6846 51.8825 27.8005 51.5421 27.9611C51.1183 28.1603 50.5895 28.409 49.6177 28.409C48.6459 28.409 48.1171 28.1603 47.6922 27.9611C47.3517 27.8005 47.1054 27.6846 46.538 27.6846C45.9718 27.6846 45.7256 27.8005 45.3851 27.9611C44.9602 28.1603 44.4326 28.409 43.4608 28.409C42.4877 28.409 41.9602 28.1603 41.5352 27.9611C41.1948 27.8005 40.9497 27.6846 40.3823 27.6846C39.8149 27.6846 39.5686 27.8005 39.2282 27.9611C38.8032 28.1603 38.2756 28.409 37.3038 28.409C36.332 28.409 35.8032 28.1603 35.3795 27.9611C35.039 27.8005 34.7927 27.6846 34.2253 27.6846L34.6825 26.7071L34.2253 25.8738C35.1972 25.8738 35.7259 26.1225 36.1497 26.3217C36.4901 26.4822 36.7364 26.5981 37.3038 26.5981C37.8712 26.5981 38.1163 26.4822 38.4567 26.3217C38.8817 26.1225 39.4105 25.8738 40.3823 25.8738C41.3541 25.8738 41.8817 26.1225 42.3066 26.3217C42.6471 26.4822 42.8934 26.5981 43.4608 26.5981C44.027 26.5981 44.2732 26.4822 44.6137 26.3217C45.0386 26.1225 45.5662 25.8738 46.538 25.8738C47.5111 25.8738 48.0386 26.1225 48.4636 26.3217C48.804 26.4822 49.0503 26.5981 49.6177 26.5981C50.1851 26.5981 50.4314 26.4822 50.7718 26.3217C51.1956 26.1225 51.7243 25.8738 52.6962 25.8738Z" fill="#8EDCEF"/>
<path d="M35.7948 29.7841V31.7664C35.6414 31.7061 35.5062 31.6421 35.3795 31.5829C35.039 31.4224 34.7928 31.3065 34.2253 31.3065V29.4956C34.9461 29.4956 35.4241 29.632 35.7948 29.7841Z" fill="#50CDEA"/>
<path d="M35.7948 26.1623V28.1446C35.6414 28.0842 35.5062 28.0203 35.3795 27.9611C35.039 27.8005 34.7928 27.6846 34.2253 27.6846V25.8738C34.9461 25.8738 35.4241 26.0102 35.7948 26.1623Z" fill="#50CDEA"/>
<path d="M25.7397 10.7V12.9177L25.5872 13.7127C25.5872 14.0459 25.3168 14.3163 24.9836 14.3163L8.05357 14.3573C7.72037 14.3573 7.44995 14.0869 7.44995 13.7537L7.5376 10.9775L10.6902 9.023C10.8652 8.92038 11.0813 8.91435 11.2636 9.0061L12.2512 9.26916L14.924 10.6347C15.0085 10.6769 15.1015 10.6999 15.1956 10.6999H25.7397V10.7Z" fill="#C27E4E"/>
<path d="M8.83822 3.62183V9.92243L8.05351 10.8882H7.2688V4.22545C7.2688 3.89225 7.53922 3.62183 7.87242 3.62183H8.83822Z" fill="#95D6A4"/>
<path d="M8.83822 12.5554V11.4968C8.83822 11.3688 8.9057 11.2504 9.0158 11.1852L12.2511 9.26927L11.2636 8.76464C11.0813 8.67289 10.8652 8.67893 10.6901 8.78154L7.2688 10.8882V12.2198V13.8834C7.2688 14.2167 7.5391 14.487 7.87242 14.487H25.136C25.4693 14.487 25.7396 14.2167 25.7396 13.8834V12.9176H9.20039C9.00035 12.9176 8.83822 12.7554 8.83822 12.5554Z" fill="#B36D3C"/>
<path d="M41.9602 12.9177L41.8387 13.7024L41.0306 14.4871H34.829C34.4956 14.4871 34.2253 14.2168 34.2253 13.8835V10.9776C34.4952 10.965 34.7482 10.4719 35.0101 10.4326C35.2719 10.3932 35.5424 10.8074 35.7948 10.7422V12.5555C35.7948 12.7556 35.9569 12.9177 36.1569 12.9177H41.9602Z" fill="#B36D3C"/>
<path d="M52.6961 12.9177V13.8835C52.6961 14.2167 52.4257 14.4871 52.0925 14.4871H41.0305L41.9601 12.9177H52.6961Z" fill="#78C2A4"/>
<path d="M35.7948 3.62183V10.7421C35.2901 10.8725 34.765 10.9522 34.2253 10.9776V4.22545C34.2253 3.89225 34.4958 3.62183 34.829 3.62183H35.7948Z" fill="#F9B419"/>
<path d="M25.7396 30.7632V32.8155L25.4978 33.6039C25.4978 33.9371 25.2274 34.2076 24.8942 34.2076L8.11353 34.092C7.78033 34.092 7.50991 33.8216 7.50991 33.4884L7.43481 30.9198L8.83824 30.7632H25.7396Z" fill="#B4E3F5"/>
<path d="M25.7396 32.8154V33.7812C25.7396 34.1145 25.4693 34.3848 25.136 34.3848H7.87242C7.5391 34.3848 7.2688 34.1145 7.2688 33.7812V30.7631L8.05351 30.4265L8.83822 30.7631V32.4532C8.83822 32.6533 9.00035 32.8154 9.20039 32.8154H25.7396Z" fill="#8EDCEF"/>
<path d="M8.83822 23.5195V30.763H7.2688V24.1232C7.2688 23.79 7.53922 23.5195 7.87242 23.5195H8.83822Z" fill="#F9B419"/>
</svg>
