<?xml version="1.0" encoding="utf-8"?>
<!-- Generator: Adobe Illustrator 25.0.1, SVG Export Plug-In . SVG Version: 6.00 Build 0)  -->
<svg version="1.1" id="Calque_1" xmlns="http://www.w3.org/2000/svg" xmlns:xlink="http://www.w3.org/1999/xlink" x="0px" y="0px"
	 viewBox="0 0 80.5 76.6" style="enable-background:new 0 0 80.5 76.6;" xml:space="preserve">
<style type="text/css">
	.st0{fill:#E4E9F4;}
	.st1{fill:#FF6464;}
	.st2{fill:#CDD2DF;}
	.st3{fill:#49BC6E;}
	.st4{fill:#ED4545;}
	.st5{fill:#7A6CF7;}
	.st6{fill:#555E6B;}
	.st7{fill:#F9CFA9;}
	.st8{fill:#3D4EC6;}
	.st9{fill:#2B3894;}
	.st10{fill:#E6F7FE;}
	.st11{fill:#D5F1FE;}
	.st12{fill:#11DFEF;}
	.st13{fill:#F948B4;}
	.st14{fill:#E00E8B;}
	.st15{fill:#FC7ACD;}
	.st16{fill:#FBBC8D;}
</style>
<path class="st0" d="M58.6,58.9H5.4c-1.9,0-3.5-1.6-3.5-3.5V20.9l30.1-1.2L62,20.9v34.6C62,57.4,60.5,58.9,58.6,58.9z"/>
<path class="st1" d="M62,20.9H2v-11C2,8,3.5,6.4,5.5,6.4h52.8C60.3,6.4,62,8,62,9.9V20.9z"/>
<path class="st2" d="M55.8,20.9v16.1c0,10-8.1,18.1-18.1,18.1H2c0,2,1.4,3.6,3.4,3.6h53.4c1.7,0,3.2-1.4,3.2-3.2V20.9H55.8z"/>
<path class="st3" d="M31.3,42.4c-0.2,0-0.5-0.1-0.6-0.3L28.5,40c-0.4-0.4-0.4-0.9,0-1.3c0.4-0.4,0.9-0.4,1.3,0l1.5,1.5l3.2-3.2
	c0.4-0.4,0.9-0.4,1.3,0c0.4,0.4,0.4,0.9,0,1.3L32,42.1C31.8,42.3,31.6,42.4,31.3,42.4z"/>
<path class="st3" d="M20.4,42.4c-0.2,0-0.5-0.1-0.6-0.3L17.6,40c-0.4-0.4-0.4-0.9,0-1.3c0.4-0.4,0.9-0.4,1.3,0l1.5,1.5l3.2-3.2
	c0.4-0.4,0.9-0.4,1.3,0c0.4,0.4,0.4,0.9,0,1.3l-3.8,3.8C20.9,42.3,20.7,42.4,20.4,42.4z"/>
<path class="st3" d="M9.5,42.4c-0.2,0-0.5-0.1-0.6-0.3L6.8,40c-0.4-0.4-0.4-0.9,0-1.3c0.4-0.4,0.9-0.4,1.3,0l1.5,1.5l3.2-3.2
	c0.4-0.4,0.9-0.4,1.3,0c0.4,0.4,0.4,0.9,0,1.3l-3.8,3.8C10,42.3,9.8,42.4,9.5,42.4z"/>
<path class="st4" d="M58.2,6.4h-6c2,0,3.6,1.6,3.6,3.6v10.9H62V10C62,8,60.2,6.4,58.2,6.4z"/>
<path class="st5" d="M12,31.4H8.2c-0.4,0-0.8-0.4-0.8-0.8v-3.8c0-0.4,0.4-0.8,0.8-0.8H12c0.4,0,0.8,0.4,0.8,0.8v3.8
	C12.8,31.1,12.5,31.4,12,31.4z"/>
<path class="st3" d="M42.2,31.5c-0.2,0-0.5-0.1-0.6-0.3l-2.1-2.1c-0.4-0.4-0.4-0.9,0-1.3c0.4-0.4,0.9-0.4,1.3,0l1.5,1.5l3.2-3.2
	c0.4-0.4,0.9-0.4,1.3,0c0.4,0.4,0.4,0.9,0,1.3l-3.8,3.8C42.7,31.4,42.4,31.5,42.2,31.5z"/>
<path class="st3" d="M31.3,31.5c-0.2,0-0.5-0.1-0.6-0.3l-2.1-2.1c-0.4-0.4-0.4-0.9,0-1.3c0.4-0.4,0.9-0.4,1.3,0l1.5,1.5l3.2-3.2
	c0.4-0.4,0.9-0.4,1.3,0c0.4,0.4,0.4,0.9,0,1.3L32,31.3C31.8,31.4,31.5,31.5,31.3,31.5z"/>
<path class="st3" d="M20.4,31.5c-0.2,0-0.5-0.1-0.6-0.3l-2.1-2.1c-0.4-0.4-0.4-0.9,0-1.3c0.4-0.4,0.9-0.4,1.3,0l1.5,1.5l3.2-3.2
	c0.4-0.4,0.9-0.4,1.3,0c0.4,0.4,0.4,0.9,0,1.3l-3.8,3.8C20.9,31.4,20.7,31.5,20.4,31.5z"/>
<path class="st1" d="M45.5,36.8c-0.4-0.4-0.9-0.4-1.3,0l-1.5,1.5l-1.5-1.5c-0.4-0.4-0.9-0.4-1.3,0c-0.4,0.4-0.4,0.9,0,1.3l1.5,1.5
	L40,41c-0.4,0.4-0.4,0.9,0,1.3c0.2,0.2,0.4,0.3,0.6,0.3c0.2,0,0.5-0.1,0.6-0.3l1.5-1.5l1.5,1.5c0.2,0.2,0.4,0.3,0.6,0.3
	c0.2,0,0.5-0.1,0.6-0.3c0.4-0.4,0.4-0.9,0-1.3l-1.5-1.5l1.5-1.5C45.9,37.7,45.9,37.1,45.5,36.8z"/>
<path class="st1" d="M55,28.7l1.5-1.5c0.4-0.4,0.4-0.9,0-1.3c-0.4-0.4-0.9-0.4-1.3,0l-1.5,1.5l-1.5-1.5c-0.4-0.4-0.9-0.4-1.3,0
	c-0.4,0.4-0.4,0.9,0,1.3l1.5,1.5l-1.5,1.5c-0.4,0.4-0.4,0.9,0,1.3c0.2,0.2,0.4,0.3,0.6,0.3c0.2,0,0.5-0.1,0.6-0.3l1.5-1.5l1.5,1.5
	c0.2,0.2,0.4,0.3,0.6,0.3c0.2,0,0.5-0.1,0.6-0.3c0.4-0.4,0.4-0.9,0-1.3L55,28.7z"/>
<path class="st5" d="M55.6,42.2h-3.8c-0.4,0-0.8-0.4-0.8-0.8v-3.8c0-0.4,0.4-0.8,0.8-0.8h3.8c0.4,0,0.8,0.4,0.8,0.8v3.8
	C56.4,41.9,56,42.2,55.6,42.2z"/>
<path class="st5" d="M12,53.1H8.2c-0.4,0-0.8-0.4-0.8-0.8v-3.8c0-0.4,0.4-0.8,0.8-0.8H12c0.4,0,0.8,0.4,0.8,0.8v3.8
	C12.8,52.8,12.5,53.1,12,53.1z"/>
<path class="st5" d="M22.9,53.1h-3.8c-0.4,0-0.8-0.4-0.8-0.8v-3.8c0-0.4,0.4-0.8,0.8-0.8h3.8c0.4,0,0.8,0.4,0.8,0.8v3.8
	C23.7,52.8,23.4,53.1,22.9,53.1z"/>
<path class="st5" d="M33.8,53.1H30c-0.4,0-0.8-0.4-0.8-0.8v-3.8c0-0.4,0.4-0.8,0.8-0.8h3.8c0.4,0,0.8,0.4,0.8,0.8v3.8
	C34.6,52.8,34.3,53.1,33.8,53.1z"/>
<path class="st5" d="M44.7,53.1h-3.8c-0.4,0-0.8-0.4-0.8-0.8v-3.8c0-0.4,0.4-0.8,0.8-0.8h3.8c0.4,0,0.8,0.4,0.8,0.8v3.8
	C45.5,52.8,45.1,53.1,44.7,53.1z"/>
<path class="st6" d="M15.5,12.2h-0.2c-1.5,0-2.6-1.2-2.6-2.6v-6c0-1.5,1.2-2.6,2.6-2.6h0.2c1.5,0,2.6,1.2,2.6,2.6v6
	C18.2,11,17,12.2,15.5,12.2z"/>
<path class="st6" d="M48.4,12.2h-0.2c-1.5,0-2.6-1.2-2.6-2.6v-6c0-1.5,1.2-2.6,2.6-2.6h0.2c1.5,0,2.6,1.2,2.6,2.6v6
	C51.1,11,49.9,12.2,48.4,12.2z"/>
<g>
	<path class="st7" d="M77,54.7c0.2-2.4-0.2-4.8-1.2-6.9c-2.7-5.5-2.1-5.9-2.2-11.4c0-1.1-0.9-2-2-2c-1.1,0-2,0.9-2,2
		c0,0.7,0,20.5,0,20.4c0,0.3,0,0.6-0.1,0.9v2.9c0,2.5-2,4.5-4.5,4.5c-1.6,0-7.3,0-11.1,0c1.7,2.4,4,4.2,6.8,5.4c0,0,0,0,0.1,0
		c1.6,0.7,2.9,2,3.5,3.6c5.3-0.4,10.1-2.4,14-5.5L76.6,63c-0.2-0.8-0.3-1.6-0.2-2.4L77,54.7z"/>
	<path class="st7" d="M46.2,34.4l-0.6-0.6c-1-0.9-2.5-0.8-3.3,0.1c-0.9,1-0.8,2.5,0.1,3.3l3.8,3.6V34.4z"/>
	<path class="st8" d="M66.6,22.6H49.2c-1.7,0-3.1,1.4-3.1,3.1v36.6c0,1.7,1.4,3.1,3.1,3.1h17.4c1.7,0,3.1-1.4,3.1-3.1V25.6
		C69.6,23.9,68.3,22.6,66.6,22.6L66.6,22.6z"/>
	<path class="st9" d="M52,24.8c-0.2-0.2-0.3-0.5-0.3-0.9c0-0.6,0.4-1.2,0.9-1.4h-3.5c-1.7,0-3.1,1.4-3.1,3.1v36.6
		c0,1.7,1.4,3.1,3.1,3.1h3.7V27.5C52.9,26.6,52.6,25.6,52,24.8z"/>
	<path class="st10" d="M47.9,41.9v20.4c0,0.7,0.6,1.3,1.3,1.3h17.4c0.7,0,1.3-0.6,1.3-1.3c0-0.7,0-10.9,0-20.4H47.9z"/>
	<path class="st11" d="M47.9,41.9v20.4c0,0.7,0.6,1.3,1.3,1.3h3V41.9H47.9z"/>
	<path class="st8" d="M54.9,48c0,1.1-0.9,2-2,2c-1.1,0-2-0.9-2-2c0-1.1,0.9-2,2-2C54,46,54.9,46.9,54.9,48z"/>
	<path class="st8" d="M54.9,55.5c0,1.1-0.9,2-2,2c-1.1,0-2-0.9-2-2c0-1.1,0.9-2,2-2C54,53.5,54.9,54.4,54.9,55.5z"/>
	<path class="st9" d="M52.7,46c-1,0.1-1.8,1-1.8,2c0,1.1,0.9,2,2,2c0.7,0,1.3-0.4,1.7-0.9C52.8,49.4,51.7,47.4,52.7,46z"/>
	<path class="st9" d="M52.7,53.5c-1,0.1-1.8,1-1.8,2c0,1.1,0.9,2,2,2c0.7,0,1.3-0.4,1.7-0.9C52.8,56.9,51.7,54.9,52.7,53.5z"/>
	<path class="st12" d="M61.1,47.2h-2.9c-0.4,0-0.8-0.3-0.8-0.8c0-0.4,0.3-0.8,0.8-0.8h2.9c0.4,0,0.8,0.3,0.8,0.8
		C61.9,46.9,61.6,47.2,61.1,47.2z"/>
	<path class="st12" d="M64,50.4h-5.7c-0.4,0-0.8-0.3-0.8-0.8c0-0.4,0.3-0.8,0.8-0.8H64c0.4,0,0.8,0.3,0.8,0.8
		C64.8,50.1,64.4,50.4,64,50.4z"/>
	<path class="st12" d="M61.1,54.7h-2.9c-0.4,0-0.8-0.3-0.8-0.8c0-0.4,0.3-0.8,0.8-0.8h2.9c0.4,0,0.8,0.3,0.8,0.8
		C61.9,54.4,61.6,54.7,61.1,54.7z"/>
	<path class="st12" d="M64,57.9h-5.7c-0.4,0-0.8-0.3-0.8-0.8c0-0.4,0.3-0.8,0.8-0.8H64c0.4,0,0.8,0.3,0.8,0.8
		C64.8,57.5,64.4,57.9,64,57.9z"/>
	<path class="st13" d="M66.6,24.3H64c-0.2,0-0.4,0.2-0.4,0.4c0,0.6-0.5,1.1-1.1,1.1h-9.2c-0.6,0-1.1-0.5-1.1-1.1
		c0-0.2-0.2-0.4-0.4-0.4h-2.6c-0.7,0-1.3,0.6-1.3,1.3v16.5h20V25.6C67.9,24.9,67.3,24.3,66.6,24.3z"/>
	<path class="st14" d="M52.2,25c0-0.1,0-0.2,0-0.3c0-0.2-0.2-0.4-0.4-0.4h-2.6c-0.7,0-1.3,0.6-1.3,1.3v16.5h4.3V25z"/>
	<path class="st15" d="M66.6,24.3H64c-0.2,0-0.4,0.2-0.4,0.4c0,0.6-0.5,1.1-1.1,1.1h-5.1L67.9,39V25.6
		C67.9,24.9,67.3,24.3,66.6,24.3z"/>
	<path class="st15" d="M54.6,30.3h-3.5c-0.4,0-0.8-0.3-0.8-0.8c0-0.4,0.3-0.8,0.8-0.8h3.5c0.4,0,0.8,0.3,0.8,0.8
		C55.4,30,55,30.3,54.6,30.3z"/>
	<path class="st7" d="M49.7,46.9c-0.8,0.8-2.1,0.9-2.9,0.1l-3.5-3.2c-0.8-0.8-0.9-2.1-0.1-2.9c0.8-0.8,2.1-0.9,2.9-0.1l3.5,3.2
		C50.4,44.7,50.5,46,49.7,46.9z"/>
	<path class="st16" d="M49.6,43.9l-1.7-1.5c0.2,0.8,0,1.7-0.6,2.3c-0.6,0.6-1.5,0.9-2.3,0.7l1.7,1.5c0.8,0.8,2.2,0.7,2.9-0.1
		C50.5,46,50.4,44.7,49.6,43.9z"/>
	<path class="st7" d="M49.7,52.5c-0.8,0.8-2.1,0.9-2.9,0.1l-3.5-3.2c-0.8-0.8-0.9-2.1-0.1-2.9c0.8-0.8,2.1-0.9,2.9-0.1l3.5,3.2
		C50.4,50.4,50.5,51.7,49.7,52.5z"/>
	<path class="st7" d="M49.7,58.2c-0.8,0.8-2.1,0.9-2.9,0.1l-3.5-3.2c-0.8-0.8-0.9-2.1-0.1-2.9c0.8-0.8,2.1-0.9,2.9-0.1l3.5,3.2
		C50.4,56,50.5,57.3,49.7,58.2z"/>
	<path class="st16" d="M76.6,63c-0.1-0.4-0.2-0.8-0.2-1.2c-3.8,6.3-11.3,9.2-18.3,7.4c0.8,0.5,1.6,0.9,2.5,1.3c0,0,0,0,0.1,0
		c1.6,0.7,2.9,2,3.5,3.6c5.3-0.4,10.1-2.4,14-5.5L76.6,63z"/>
	<path class="st16" d="M49.6,49.6L47.9,48c0.2,0.8,0,1.7-0.6,2.3c-0.6,0.6-1.5,0.9-2.3,0.7l1.7,1.5c0.8,0.8,2.2,0.7,2.9-0.1
		C50.5,51.7,50.4,50.4,49.6,49.6z"/>
	<path class="st16" d="M49.6,55.2l-1.7-1.5c0.2,0.8,0,1.7-0.6,2.3c-0.6,0.6-1.5,0.9-2.3,0.7l1.7,1.5c0.8,0.8,2.2,0.7,2.9-0.1
		C50.5,57.3,50.4,56,49.6,55.2z"/>
</g>
</svg>
