<svg width="55" height="55" viewBox="0 0 55 55" fill="none" xmlns="http://www.w3.org/2000/svg">
<g clip-path="url(#clip0_475_722)">
<path d="M6.26624 1.18164L2.81338 2.13179C2.69103 2.45266 2.62421 2.7992 2.62421 3.15498V10.0046C2.62421 11.2125 1.80823 12.2297 0.697598 12.5352C0.298096 12.6452 0 12.9754 0 13.3898C0 13.9358 0.442686 14.3785 0.988711 14.3785H11.372L6.26624 1.18164Z" fill="#F5EBCD"/>
<path d="M7.87283 14.3787L8.6206 3.00665C8.6206 1.51048 6.9287 0.385986 5.10747 0.385986C4.04228 0.385986 3.17957 1.17135 2.81348 2.13181H5.24862C5.7317 2.13181 6.12336 2.52347 6.12336 3.00654V14.3785H7.87283V14.3787Z" fill="#F4DBB3"/>
<path d="M46.3626 50.244V2.1319C46.3626 1.16564 45.5793 0.382324 44.6131 0.382324H8.72534L8.70117 49.4447C8.70117 51.8603 10.6594 53.8185 13.075 53.8185C27.0713 53.8185 46.3626 50.244 46.3626 50.244Z" fill="#FAF5DC"/>
<path d="M18.3701 52.8683H12.2468C10.7998 52.8683 9.62245 51.6911 9.62245 50.244V3.00664C9.62245 2.01825 9.28041 1.11559 8.72537 0.382324H5.24866C6.69799 0.382324 7.87297 1.5573 7.87297 3.00664V50.244C7.87297 52.6596 9.83117 54.6178 12.2468 54.6178H18.3701V52.8683Z" fill="#F5EBCD"/>
<path d="M37.6106 10.8795C36.3728 10.8795 35.7184 10.226 35.24 9.74935C34.8104 9.31966 34.5994 9.12995 34.1064 9.12995C33.6152 9.12995 33.4051 9.31955 32.9762 9.74849C32.4996 10.226 31.8452 10.8795 30.6082 10.8795C29.3713 10.8795 28.7177 10.226 28.2411 9.74849C27.8123 9.31966 27.6021 9.12995 27.1109 9.12995C26.6205 9.12995 26.4104 9.31955 25.9816 9.74849C25.5049 10.226 24.8514 10.8795 23.6144 10.8795C22.3775 10.8795 21.7239 10.226 21.2473 9.74849C20.8184 9.31966 20.6083 9.12995 20.1171 9.12995C19.6258 9.12995 19.4157 9.31955 18.9869 9.74849C18.5103 10.226 17.8559 10.8795 16.6189 10.8795C15.3819 10.8795 14.7284 10.226 14.2517 9.74849C13.8229 9.31966 13.6128 9.12995 13.1216 9.12995C12.6381 9.12995 12.2468 8.73872 12.2468 8.25521C12.2468 7.77171 12.6381 7.38048 13.1216 7.38048C14.3585 7.38048 15.0121 8.03403 15.4887 8.51152C15.9175 8.94035 16.1277 9.13006 16.6189 9.13006C17.111 9.13006 17.3211 8.94046 17.7499 8.51152C18.2266 8.03403 18.8801 7.38048 20.1171 7.38048C21.3541 7.38048 22.0076 8.03403 22.4842 8.51152C22.9131 8.94035 23.1232 9.13006 23.6144 9.13006C24.1057 9.13006 24.3158 8.94046 24.7446 8.51152C25.2212 8.03403 25.8748 7.38048 27.1109 7.38048C28.3479 7.38048 29.0014 8.03403 29.478 8.51152C29.9069 8.94035 30.117 9.13006 30.6082 9.13006C31.1003 9.13006 31.3104 8.94046 31.7393 8.51152C32.2159 8.03403 32.8695 7.38048 34.1064 7.38048C35.3442 7.38048 35.9987 8.03403 36.477 8.51066C36.9067 8.94035 37.1177 9.12995 37.6106 9.12995C38.1036 9.12995 38.3137 8.94035 38.7434 8.51142C39.2217 8.03393 39.8762 7.38037 41.114 7.38037C41.5975 7.38037 41.9887 7.7716 41.9887 8.25511C41.9887 8.73861 41.5975 9.12984 41.114 9.12984C40.621 9.12984 40.41 9.31944 39.9804 9.74924C39.502 10.226 38.8485 10.8795 37.6106 10.8795Z" fill="#6F6571"/>
<path d="M37.6106 17.003C36.3728 17.003 35.7184 16.3494 35.24 15.8728C34.8104 15.4431 34.5994 15.2534 34.1064 15.2534C33.6152 15.2534 33.4051 15.443 32.9762 15.8719C32.4996 16.3494 31.8452 17.003 30.6082 17.003C29.3713 17.003 28.7177 16.3494 28.2411 15.8719C27.8123 15.4431 27.6021 15.2534 27.1109 15.2534C26.6205 15.2534 26.4104 15.443 25.9816 15.8719C25.5049 16.3494 24.8514 17.003 23.6144 17.003C22.3775 17.003 21.7239 16.3494 21.2473 15.8719C20.8184 15.4431 20.6083 15.2534 20.1171 15.2534C19.6258 15.2534 19.4157 15.443 18.9869 15.8719C18.5103 16.3494 17.8559 17.003 16.6189 17.003C15.3819 17.003 14.7284 16.3494 14.2517 15.8719C13.8229 15.4431 13.6128 15.2534 13.1216 15.2534C12.6381 15.2534 12.2468 14.8621 12.2468 14.3786C12.2468 13.8951 12.6381 13.5039 13.1216 13.5039C14.3585 13.5039 15.0121 14.1575 15.4887 14.6349C15.9175 15.0638 16.1277 15.2535 16.6189 15.2535C17.111 15.2535 17.3211 15.0639 17.7499 14.6349C18.2266 14.1575 18.8801 13.5039 20.1171 13.5039C21.3541 13.5039 22.0076 14.1575 22.4842 14.6349C22.9131 15.0638 23.1232 15.2535 23.6144 15.2535C24.1057 15.2535 24.3158 15.0639 24.7446 14.6349C25.2212 14.1575 25.8748 13.5039 27.1109 13.5039C28.3479 13.5039 29.0014 14.1575 29.478 14.6349C29.9069 15.0638 30.117 15.2535 30.6082 15.2535C31.1003 15.2535 31.3104 15.0639 31.7393 14.6349C32.2159 14.1575 32.8695 13.5039 34.1064 13.5039C35.3442 13.5039 35.9987 14.1575 36.477 14.6341C36.9067 15.0638 37.1177 15.2535 37.6106 15.2535C38.1036 15.2535 38.3137 15.0639 38.7434 14.6349C39.2217 14.1575 39.8762 13.5039 41.114 13.5039C41.5975 13.5039 41.9887 13.8951 41.9887 14.3786C41.9887 14.8621 41.5975 15.2534 41.114 15.2534C40.621 15.2534 40.41 15.443 39.9804 15.8728C39.502 16.3494 38.8485 17.003 37.6106 17.003Z" fill="#5D5360"/>
<path d="M37.6106 23.1263C36.3728 23.1263 35.7184 22.4727 35.24 21.9961C34.8104 21.5664 34.5994 21.3767 34.1064 21.3767C33.6152 21.3767 33.4051 21.5663 32.9762 21.9952C32.4996 22.4727 31.8452 23.1263 30.6082 23.1263C29.3713 23.1263 28.7177 22.4727 28.2411 21.9952C27.8123 21.5664 27.6021 21.3767 27.1109 21.3767C26.6205 21.3767 26.4104 21.5663 25.9816 21.9952C25.5049 22.4727 24.8514 23.1263 23.6144 23.1263C22.3775 23.1263 21.7239 22.4727 21.2473 21.9952C20.8184 21.5664 20.6083 21.3767 20.1171 21.3767C19.6258 21.3767 19.4157 21.5663 18.9869 21.9952C18.5103 22.4727 17.8559 23.1263 16.6189 23.1263C15.3819 23.1263 14.7284 22.4727 14.2517 21.9952C13.8229 21.5664 13.6128 21.3767 13.1216 21.3767C12.6381 21.3767 12.2468 20.9854 12.2468 20.5019C12.2468 20.0184 12.6381 19.6272 13.1216 19.6272C14.3585 19.6272 15.0121 20.2808 15.4887 20.7582C15.9175 21.1871 16.1277 21.3768 16.6189 21.3768C17.111 21.3768 17.3211 21.1872 17.7499 20.7582C18.2266 20.2808 18.8801 19.6272 20.1171 19.6272C21.3541 19.6272 22.0076 20.2808 22.4842 20.7582C22.9131 21.1871 23.1232 21.3768 23.6144 21.3768C24.1057 21.3768 24.3158 21.1872 24.7446 20.7582C25.2212 20.2808 25.8748 19.6272 27.1109 19.6272C28.3479 19.6272 29.0014 20.2808 29.478 20.7582C29.9069 21.1871 30.117 21.3768 30.6082 21.3768C31.1003 21.3768 31.3104 21.1872 31.7393 20.7582C32.2159 20.2808 32.8695 19.6272 34.1064 19.6272C35.3442 19.6272 35.9987 20.2808 36.477 20.7574C36.9067 21.1871 37.1177 21.3768 37.6106 21.3768C38.1036 21.3768 38.3137 21.1872 38.7434 20.7582C39.2217 20.2808 39.8762 19.6272 41.114 19.6272C41.5975 19.6272 41.9887 20.0184 41.9887 20.5019C41.9887 20.9854 41.5975 21.3767 41.114 21.3767C40.621 21.3767 40.41 21.5663 39.9804 21.9961C39.502 22.4727 38.8485 23.1263 37.6106 23.1263Z" fill="#6F6571"/>
<path d="M37.6106 29.2498C36.3728 29.2498 35.7184 28.5962 35.24 28.1196C34.8104 27.6899 34.5994 27.5002 34.1064 27.5002C33.6152 27.5002 33.4051 27.6898 32.9762 28.1187C32.4996 28.5962 31.8452 29.2498 30.6082 29.2498C29.3713 29.2498 28.7177 28.5962 28.2411 28.1187C27.8123 27.6899 27.6021 27.5002 27.1109 27.5002C26.6205 27.5002 26.4104 27.6898 25.9816 28.1187C25.5049 28.5962 24.8514 29.2498 23.6144 29.2498C22.3775 29.2498 21.7239 28.5962 21.2473 28.1187C20.8184 27.6899 20.6083 27.5002 20.1171 27.5002C19.6258 27.5002 19.4157 27.6898 18.9869 28.1187C18.5103 28.5962 17.8559 29.2498 16.6189 29.2498C15.3819 29.2498 14.7284 28.5962 14.2517 28.1187C13.8229 27.6899 13.6128 27.5002 13.1216 27.5002C12.6381 27.5002 12.2468 27.109 12.2468 26.6255C12.2468 26.142 12.6381 25.7507 13.1216 25.7507C14.3585 25.7507 15.0121 26.4043 15.4887 26.8818C15.9175 27.3106 16.1277 27.5003 16.6189 27.5003C17.111 27.5003 17.3211 27.3107 17.7499 26.8818C18.2266 26.4043 18.8801 25.7507 20.1171 25.7507C21.3541 25.7507 22.0076 26.4043 22.4842 26.8818C22.9131 27.3106 23.1232 27.5003 23.6144 27.5003C24.1057 27.5003 24.3158 27.3107 24.7446 26.8818C25.2212 26.4043 25.8748 25.7507 27.1109 25.7507C28.3479 25.7507 29.0014 26.4043 29.478 26.8818C29.9069 27.3106 30.117 27.5003 30.6082 27.5003C31.1003 27.5003 31.3104 27.3107 31.7393 26.8818C32.2159 26.4043 32.8695 25.7507 34.1064 25.7507C35.3442 25.7507 35.9987 26.4043 36.477 26.8809C36.9067 27.3106 37.1177 27.5003 37.6106 27.5003C38.1036 27.5003 38.3137 27.3107 38.7434 26.8818C39.2217 26.4043 39.8762 25.7507 41.114 25.7507C41.5975 25.7507 41.9887 26.142 41.9887 26.6255C41.9887 27.109 41.5975 27.5002 41.114 27.5002C40.621 27.5002 40.41 27.6898 39.9804 28.1196C39.502 28.5962 38.8485 29.2498 37.6106 29.2498Z" fill="#5D5360"/>
<path d="M37.6106 35.3728C36.3728 35.3728 35.7184 34.7193 35.24 34.2427C34.8104 33.813 34.5994 33.6233 34.1064 33.6233C33.6152 33.6233 33.4051 33.8129 32.9762 34.2418C32.4996 34.7193 31.8452 35.3728 30.6082 35.3728C29.3713 35.3728 28.7177 34.7193 28.2411 34.2418C27.8123 33.813 27.6021 33.6233 27.1109 33.6233C26.6205 33.6233 26.4104 33.8129 25.9816 34.2418C25.5049 34.7193 24.8514 35.3728 23.6144 35.3728C22.3775 35.3728 21.7239 34.7193 21.2473 34.2418C20.8184 33.813 20.6083 33.6233 20.1171 33.6233C19.6258 33.6233 19.4157 33.8129 18.9869 34.2418C18.5103 34.7193 17.8559 35.3728 16.6189 35.3728C15.3819 35.3728 14.7284 34.7193 14.2517 34.2418C13.8229 33.813 13.6128 33.6233 13.1216 33.6233C12.6381 33.6233 12.2468 33.232 12.2468 32.7485C12.2468 32.265 12.6381 31.8738 13.1216 31.8738C14.3585 31.8738 15.0121 32.5273 15.4887 33.0048C15.9175 33.4337 16.1277 33.6234 16.6189 33.6234C17.111 33.6234 17.3211 33.4338 17.7499 33.0048C18.2266 32.5273 18.8801 31.8738 20.1171 31.8738C21.3541 31.8738 22.0076 32.5273 22.4842 33.0048C22.9131 33.4337 23.1232 33.6234 23.6144 33.6234C24.1057 33.6234 24.3158 33.4338 24.7446 33.0048C25.2212 32.5273 25.8748 31.8738 27.1109 31.8738C28.3479 31.8738 29.0014 32.5273 29.478 33.0048C29.9069 33.4337 30.117 33.6234 30.6082 33.6234C31.1003 33.6234 31.3104 33.4338 31.7393 33.0048C32.2159 32.5273 32.8695 31.8738 34.1064 31.8738C35.3442 31.8738 35.9987 32.5273 36.477 33.004C36.9067 33.4337 37.1177 33.6234 37.6106 33.6234C38.1036 33.6234 38.3137 33.4338 38.7434 33.0048C39.2217 32.5273 39.8762 31.8738 41.114 31.8738C41.5975 31.8738 41.9887 32.265 41.9887 32.7485C41.9887 33.232 41.5975 33.6233 41.114 33.6233C40.621 33.6233 40.41 33.8129 39.9804 34.2427C39.502 34.7194 38.8485 35.3728 37.6106 35.3728Z" fill="#6F6571"/>
<path d="M37.6106 41.4964C36.3728 41.4964 35.7184 40.8428 35.24 40.3662C34.8104 39.9365 34.5994 39.7468 34.1064 39.7468C33.6152 39.7468 33.4051 39.9364 32.9762 40.3653C32.4996 40.8428 31.8452 41.4964 30.6082 41.4964C29.3713 41.4964 28.7177 40.8428 28.2411 40.3653C27.8123 39.9365 27.6021 39.7468 27.1109 39.7468C26.6205 39.7468 26.4104 39.9364 25.9816 40.3653C25.5049 40.8428 24.8514 41.4964 23.6144 41.4964C22.3775 41.4964 21.7239 40.8428 21.2473 40.3653C20.8184 39.9365 20.6083 39.7468 20.1171 39.7468C19.6258 39.7468 19.4157 39.9364 18.9869 40.3653C18.5103 40.8428 17.8559 41.4964 16.6189 41.4964C15.3819 41.4964 14.7284 40.8428 14.2517 40.3653C13.8229 39.9365 13.6128 39.7468 13.1216 39.7468C12.6381 39.7468 12.2468 39.3556 12.2468 38.872C12.2468 38.3885 12.6381 37.9973 13.1216 37.9973C14.3585 37.9973 15.0121 38.6509 15.4887 39.1284C15.9175 39.5572 16.1277 39.7469 16.6189 39.7469C17.111 39.7469 17.3211 39.5573 17.7499 39.1284C18.2266 38.6509 18.8801 37.9973 20.1171 37.9973C21.3541 37.9973 22.0076 38.6509 22.4842 39.1284C22.9131 39.5572 23.1232 39.7469 23.6144 39.7469C24.1057 39.7469 24.3158 39.5573 24.7446 39.1284C25.2212 38.6509 25.8748 37.9973 27.1109 37.9973C28.3479 37.9973 29.0014 38.6509 29.478 39.1284C29.9069 39.5572 30.117 39.7469 30.6082 39.7469C31.1003 39.7469 31.3104 39.5573 31.7393 39.1284C32.2159 38.6509 32.8695 37.9973 34.1064 37.9973C35.3442 37.9973 35.9987 38.6509 36.477 39.1275C36.9067 39.5572 37.1177 39.7469 37.6106 39.7469C38.1036 39.7469 38.3137 39.5573 38.7434 39.1284C39.2217 38.6509 39.8762 37.9973 41.114 37.9973C41.5975 37.9973 41.9887 38.3885 41.9887 38.872C41.9887 39.3556 41.5975 39.7468 41.114 39.7468C40.621 39.7468 40.41 39.9364 39.9804 40.3662C39.502 40.8429 38.8485 41.4964 37.6106 41.4964Z" fill="#5D5360"/>
<path d="M52.9402 13.4094L51.9922 13.374C47.9508 14.2989 40.8645 17.8051 34.5898 28.8428C34.5898 28.8428 33.122 32.2233 32.1191 34.6973L32.8037 37.1954L32.3663 39.7467H37.2497C37.9925 39.7467 38.6436 39.2754 38.8969 38.5771C42.5169 28.5956 49.8491 18.3646 52.8786 14.3726C53.1154 14.0606 53.1039 13.6907 52.9402 13.4094Z" fill="#AFEFA5"/>
<path d="M52.9401 13.4095C52.7614 13.1007 52.4007 12.8995 51.9821 12.9952C47.9407 13.9201 39.2967 17.1366 33.0221 28.1743C33.0221 28.1743 31.2587 31.4663 30.2558 33.9402C29.9297 34.7449 30.2334 35.6655 30.9795 36.1097L32.8037 37.1955L32.4818 39.0727C35.54 32.011 42.6012 18.2917 52.9401 13.4095Z" fill="#8CE1A4"/>
<path d="M54.1199 50.2441H18.3701L17.4829 51.6702L17.8589 53.8723H51.9385L54.2353 52.8692C54.5739 52.4187 54.8274 51.9006 54.9722 51.3388C55.1147 50.7853 54.6914 50.2441 54.1199 50.2441Z" fill="#F5EBCD"/>
<path d="M18.3701 51.1189V50.2441H17.4177C16.9855 50.2441 16.6306 50.5625 16.5576 50.9885C16.2041 53.0495 14.4087 54.618 12.2468 54.618H50.7364C52.1635 54.618 53.4358 53.926 54.2342 52.8685H20.1196C19.1534 52.8685 18.3701 52.0851 18.3701 51.1189Z" fill="#F4DBB3"/>
<path d="M46.1285 18.1577C45.7996 17.8024 45.2469 17.781 44.8933 18.1108C44.4997 18.4753 35.6607 26.8068 29.8342 43.644L30.3646 44.598L31.4991 44.1883C37.1975 27.7883 45.9902 19.4797 46.0832 19.3931C46.4368 19.065 46.4573 18.5115 46.1285 18.1577Z" fill="#F4DBB3"/>
<path d="M29.8341 43.644C29.5114 44.5683 29.2068 45.5078 28.9056 46.4877C28.7638 46.9498 29.0234 47.4394 29.4848 47.5812C29.5702 47.6077 29.6573 47.6196 29.742 47.6196C30.1161 47.6196 30.4621 47.3778 30.5782 47.002C30.8728 46.0435 31.1819 45.0926 31.4989 44.1882L29.8341 43.644Z" fill="#5D5360"/>
</g>
<defs>
<clipPath id="clip0_475_722">
<rect width="55" height="55" fill="white"/>
</clipPath>
</defs>
</svg>
