<svg width="60" height="54" viewBox="0 0 60 54" fill="none" xmlns="http://www.w3.org/2000/svg">
<path d="M50.5447 20.4928C50.5447 27.3354 44.9975 32.8821 38.1549 32.8821C31.3123 32.8821 25.7651 27.3354 25.7651 20.4928C25.7651 13.6502 31.3123 8.10303 38.1549 8.10303C44.9975 8.10303 50.5447 13.6502 50.5447 20.4928Z" fill="#FFE671"/>
<path d="M41.0282 8.43872C43.295 10.684 44.6999 13.7986 44.6999 17.2415C44.6999 24.0841 39.1528 29.6312 32.3101 29.6312C31.3209 29.6312 30.3592 29.5145 29.4368 29.2952C31.6757 31.5126 34.755 32.8823 38.1548 32.8823C44.9975 32.8823 50.5446 27.3356 50.5446 20.4929C50.5446 14.6396 46.4852 9.73464 41.0282 8.43872Z" fill="#FFCE5E"/>
<path d="M30.0995 25.9138H2.82667C1.2657 25.9138 0 27.1791 0 28.7405V46.2498C0 47.8112 1.2657 49.0765 2.82667 49.0765H11.4499C11.6921 49.0765 11.9246 49.173 12.0963 49.3442L15.817 53.0649C16.1736 53.422 16.7522 53.422 17.1092 53.0649L20.8299 49.3442C21.0016 49.173 21.2336 49.0765 21.4762 49.0765H30.0995C31.6605 49.0765 32.9262 47.8112 32.9262 46.2498V28.7405C32.9262 27.1791 31.6605 25.9138 30.0995 25.9138Z" fill="#7885ED"/>
<path d="M30.0997 25.9138H27.1911V36.7943C27.1911 41.7231 23.1953 45.7184 18.2665 45.7184C16.4071 45.7184 14.6237 46.4572 13.309 47.7719L11.8904 49.1905C11.9655 49.2313 12.0346 49.283 12.0964 49.3443L15.8171 53.065C16.1741 53.4216 16.7527 53.4216 17.1093 53.065L20.8305 49.3443C21.0017 49.1727 21.2342 49.0765 21.4764 49.0765H30.0997C31.6611 49.0765 32.9264 47.8108 32.9264 46.2499V28.7405C32.9264 27.1791 31.6606 25.9138 30.0997 25.9138Z" fill="#676FCE"/>
<path d="M30.3787 0.000244141H11.7433C10.6762 0.000244141 9.81152 0.864955 9.81152 1.932V13.8961C9.81152 14.9631 10.6762 15.8278 11.7433 15.8278H17.6356C17.8008 15.8278 17.9597 15.8933 18.0769 16.0105L20.6193 18.5529C20.8633 18.7968 21.2588 18.7968 21.5023 18.5529L24.0447 16.0105C24.1619 15.8933 24.3207 15.8278 24.4864 15.8278H30.3787C31.4453 15.8278 32.31 14.9631 32.31 13.8961V1.932C32.31 0.865413 31.4453 0.000244141 30.3787 0.000244141Z" fill="#37CD90"/>
<path d="M30.3787 0.000244141H28.6635V6.92297C28.6635 10.2907 25.9334 13.0208 22.5657 13.0208C21.2949 13.0208 20.0764 13.5253 19.1778 14.4238L17.8558 15.7459C17.8192 15.7825 17.7784 15.8118 17.7358 15.8374C17.864 15.8585 17.9839 15.9175 18.0769 16.0105L20.6193 18.5529C20.8633 18.7968 21.2583 18.7968 21.5023 18.5529L24.0447 16.0105C24.1619 15.8933 24.3207 15.8278 24.4864 15.8278H30.3787C31.4453 15.8278 32.31 14.9631 32.31 13.8961V1.932C32.31 0.865413 31.4453 0.000244141 30.3787 0.000244141Z" fill="#27AA88"/>
<path d="M58.3762 36.2654H42.7125C41.8158 36.2654 41.0889 36.9918 41.0889 37.8886V47.9452C41.0889 48.8415 41.8158 49.5684 42.7125 49.5684H47.6651C47.8042 49.5684 47.9379 49.6238 48.0363 49.7222L50.1731 51.859C50.3782 52.0641 50.7106 52.0641 50.9156 51.859L53.0525 49.7222C53.1509 49.6238 53.2845 49.5684 53.4237 49.5684H58.3762C59.273 49.5684 59.9999 48.8415 59.9999 47.9452V37.8886C59.9994 36.9918 59.2725 36.2654 58.3762 36.2654Z" fill="#D9E0ED"/>
<path d="M58.3763 36.2654H56.6917V42.3243C56.6917 45.1551 54.397 47.4499 51.5662 47.4499C50.4982 47.4499 49.4737 47.8738 48.7184 48.6291L47.769 49.5789C47.8693 49.5991 47.9627 49.6485 48.0359 49.7222L50.1732 51.859C50.3778 52.0641 50.7102 52.0641 50.9152 51.859L53.0521 49.7222C53.1505 49.6238 53.2842 49.5684 53.4233 49.5684H58.3758C59.2726 49.5684 59.9995 48.8415 59.9995 47.9452V37.8886C59.9995 36.9918 59.2726 36.2654 58.3763 36.2654Z" fill="#CFD6E5"/>
<path d="M13.0769 32.7997C13.0769 32.266 13.3941 31.7574 14.03 31.2744C14.6653 30.7915 15.5172 30.5498 16.5847 30.5498C17.7795 30.5498 18.733 30.8551 19.4448 31.4649C20.1566 32.0751 20.5123 32.8441 20.5123 33.772C20.5123 34.0897 20.4643 34.4014 20.3681 34.7063C20.272 35.0111 20.1695 35.2689 20.0605 35.4785C19.9516 35.6882 19.7909 35.9235 19.5794 36.1839C19.3675 36.4444 19.2104 36.6257 19.1079 36.7273L18.6085 37.2038L18.2437 37.5092C17.8115 37.8525 17.5447 38.1953 17.443 38.5387C17.341 38.8815 17.2906 39.3773 17.2906 40.0259C17.2906 40.4832 16.9725 40.7121 16.3371 40.7121C16.0194 40.7121 15.7937 40.6366 15.6605 40.486C15.5268 40.3354 15.46 40.0589 15.46 39.6565C15.46 38.3501 15.8413 37.3572 16.604 36.6788L17.1569 36.2265C17.4494 35.9752 17.6687 35.7774 17.8147 35.6328C17.9608 35.4881 18.1072 35.2748 18.2533 34.9919C18.3993 34.709 18.4725 34.417 18.4725 34.1153C18.4725 33.6003 18.2949 33.2012 17.9406 32.9187C17.5859 32.6358 17.1107 32.4944 16.5156 32.4944C16.0977 32.4944 15.7493 32.5594 15.471 32.6889C15.1922 32.8189 15.0018 32.9576 14.9006 33.1046C14.7995 33.252 14.6759 33.3907 14.5298 33.5202C14.3843 33.6502 14.2167 33.7148 14.0268 33.7148C13.786 33.7148 13.5676 33.6356 13.3712 33.4763C13.1749 33.3174 13.0769 33.0922 13.0769 32.7997ZM15.1739 43.3813C15.1739 43.0256 15.2819 42.7208 15.498 42.4662C15.7141 42.2122 16.0002 42.0845 16.3563 42.0845C16.712 42.0845 17.0169 42.2122 17.2714 42.4662C17.5254 42.7203 17.6527 43.0256 17.6527 43.3813C17.6527 43.7246 17.5254 44.0263 17.2714 44.2868C17.0169 44.5477 16.712 44.6777 16.3563 44.6777C16.0002 44.6777 15.7141 44.5477 15.498 44.2868C15.2819 44.0268 15.1739 43.7246 15.1739 43.3813Z" fill="white"/>
<path d="M37.2447 26.2175C36.987 25.9634 36.8584 25.6581 36.8584 25.302C36.8584 24.9463 36.987 24.6414 37.2447 24.3869C37.5025 24.1328 37.8229 24.0056 38.206 24.0056C38.5741 24.0056 38.8895 24.1328 39.1522 24.3869C39.415 24.6414 39.5468 24.9463 39.5468 25.302C39.5468 25.6453 39.415 25.9474 39.1522 26.2079C38.8895 26.4683 38.5741 26.5988 38.206 26.5988C37.8229 26.5988 37.5025 26.4715 37.2447 26.2175ZM36.9536 13.5192C36.9536 13.1887 37.0708 12.9314 37.3043 12.7469C37.5377 12.5629 37.8321 12.4705 38.1877 12.4705C38.5434 12.4705 38.8396 12.5661 39.0767 12.7566C39.3138 12.9474 39.4324 13.2015 39.4324 13.5192C39.4324 14.3583 39.3862 15.7563 39.2941 17.7137C39.2017 19.671 39.1559 21.0695 39.1559 21.9081C39.1559 22.137 39.0538 22.3151 38.8497 22.4423C38.6455 22.5696 38.4249 22.6328 38.1882 22.6328C37.5428 22.6328 37.2205 22.3915 37.2205 21.9081C37.2205 21.0695 37.1761 19.671 37.0873 17.7137C36.998 15.7563 36.9536 14.3583 36.9536 13.5192Z" fill="#E0365F"/>
<path d="M28.1161 4.71474H13.7675C13.2654 4.71474 12.8589 4.30779 12.8589 3.80609C12.8589 3.30392 13.2658 2.89697 13.7675 2.89697H28.1161C28.6178 2.89697 29.0247 3.30392 29.0247 3.80609C29.0247 4.30779 28.6178 4.71474 28.1161 4.71474Z" fill="#199185"/>
<path d="M28.1161 8.37905H13.7675C13.2654 8.37905 12.8589 7.9721 12.8589 7.46994C12.8589 6.96823 13.2658 6.56128 13.7675 6.56128H28.1161C28.6178 6.56128 29.0247 6.96823 29.0247 7.46994C29.0247 7.9721 28.6178 8.37905 28.1161 8.37905Z" fill="#199185"/>
<path d="M21.0611 12.0436H13.7675C13.2654 12.0436 12.8589 11.6367 12.8589 11.1349C12.8589 10.6328 13.2658 10.2258 13.7675 10.2258H21.0611C21.5632 10.2258 21.9697 10.6328 21.9697 11.1349C21.9697 11.6367 21.5632 12.0436 21.0611 12.0436Z" fill="#199185"/>
<path d="M47.2364 42.9683C47.2364 43.492 46.812 43.9163 46.2884 43.9163C45.7647 43.9163 45.3403 43.492 45.3403 42.9683C45.3403 42.4446 45.7647 42.0203 46.2884 42.0203C46.812 42.0203 47.2364 42.4446 47.2364 42.9683Z" fill="#86A4B7"/>
<path d="M51.2732 42.9683C51.2732 43.492 50.8489 43.9163 50.3252 43.9163C49.8015 43.9163 49.3772 43.492 49.3772 42.9683C49.3772 42.4446 49.8015 42.0203 50.3252 42.0203C50.8489 42.0203 51.2732 42.4446 51.2732 42.9683Z" fill="#86A4B7"/>
<path d="M55.4031 42.9683C55.4031 43.492 54.9783 43.9163 54.4546 43.9163C53.9309 43.9163 53.5066 43.492 53.5066 42.9683C53.5066 42.4446 53.9309 42.0203 54.4546 42.0203C54.9783 42.0203 55.4031 42.4446 55.4031 42.9683Z" fill="#86A4B7"/>
</svg>
