<svg width="290" height="315" viewBox="0 0 290 315" fill="none" xmlns="http://www.w3.org/2000/svg">
<g clip-path="url(#clip0_217_574)">
<path d="M265.288 43.7137C266.61 40.015 268.99 35.9218 272.958 35.5979C275.576 35.3811 277.982 36.951 279.992 38.6227C280.275 38.8578 280.558 39.0981 280.836 39.3436C279.825 37.8962 278.711 36.5221 277.501 35.2322C271.397 28.7437 262.955 24.7315 254.259 22.6026C245.564 20.4737 236.516 20.095 227.548 19.9592C214.676 19.7633 201.365 20.1342 189.67 25.4446C184.029 28.0123 178.769 31.8521 175.765 37.22C172.255 43.4891 172.202 51.0224 172.326 58.1874C172.877 88.0631 175.092 117.886 178.959 147.522L251.583 200.78C256.407 158.864 257.473 116.393 260.295 74.231C260.99 63.9158 261.815 53.4647 265.288 43.7137Z" fill="#8BC3C0"/>
<path d="M279.992 38.6227C277.982 36.951 275.576 35.3811 272.958 35.5979C268.99 35.9218 266.61 40.015 265.288 43.7137C261.815 53.4647 260.99 63.9158 260.3 74.231C257.478 116.393 256.412 158.864 251.588 200.78L271.061 215.061C278.686 185.361 282.433 154.846 286.152 124.42C288.077 108.706 290.003 92.9416 290.003 77.1122C290.003 63.9733 288.273 49.9462 280.836 39.3358C280.558 39.0981 280.275 38.8604 279.992 38.6227Z" fill="#357092"/>
<path d="M152.018 175.874H16.8732V313.916H163.977C166.974 313.916 169.401 312.229 169.401 310.149V220.447C173.503 215.714 176.013 209.306 176.013 202.256C176.021 187.686 165.273 175.874 152.018 175.874Z" fill="#113C54"/>
<path d="M33.7438 202.256C33.7438 187.686 26.1905 175.874 16.8732 175.874C7.55593 175.874 0 187.686 0 202.256C0 209.309 1.76931 215.714 4.65204 220.447V310.136C4.65065 310.632 4.74824 311.123 4.93924 311.581C5.13024 312.04 5.41089 312.456 5.76513 312.807C6.11936 313.158 6.54023 313.437 7.00363 313.627C7.46703 313.818 7.96387 313.916 8.4657 313.916H25.2807C26.2917 313.915 27.2611 313.518 27.9757 312.812C28.6903 312.105 29.0918 311.148 29.0918 310.149V220.447C31.9745 215.714 33.7438 209.306 33.7438 202.256Z" fill="#8BC3C0"/>
<path d="M15.7889 208.974C16.6101 206.274 16.8835 203.441 16.5935 200.636C16.3035 197.831 15.4558 195.111 14.0989 192.63C11.3987 194.947 9.15596 197.967 9.46539 201.485C9.77482 205.004 12.7263 207.154 15.7889 208.974Z" fill="#357092"/>
<path d="M64.2452 290.407C55.8906 293.685 43.3203 302.122 38.1816 308.337C37.8108 308.773 37.5708 309.303 37.4887 309.867C37.3089 311.228 38.2372 311.717 39.1099 312.095C45.0341 314.66 51.6829 314.969 58.1518 314.992C63.4994 315.004 68.8417 314.842 74.1787 314.504C77.8998 314.263 81.6209 313.898 85.231 312.997C86.8786 312.586 88.5977 311.996 89.6476 310.677C90.3987 309.731 90.7055 308.519 90.9144 307.333C91.6636 302.961 91.2152 298.469 89.6159 294.325L66.078 290.227C65.462 290.118 64.8274 290.18 64.2452 290.407Z" fill="#99583F"/>
<path d="M54.7851 290.185C66.4059 291.925 72.1793 299.045 75.6783 302.624C79.6815 299.637 84.0519 297.162 88.6849 295.26L54.7851 290.185Z" fill="white"/>
<path d="M94.2229 293.5C86.1294 296.423 78.9107 301.31 73.2319 307.712C72.383 308.671 71.534 310.045 72.2243 311.108C72.5364 311.591 73.0865 311.863 73.6154 312.093C79.5422 314.658 86.191 314.966 92.6573 314.99C97.6769 315.002 102.695 314.859 107.711 314.561C111.755 314.318 115.812 313.973 119.736 312.994C121.384 312.584 123.103 311.993 124.15 310.674C124.902 309.729 125.208 308.517 125.42 307.331C126.168 302.958 125.719 298.467 124.121 294.322L94.2229 293.5Z" fill="#C27D56"/>
<path d="M101.25 294.398C105.955 296.23 110.208 299.034 113.725 302.624C117.728 299.636 122.099 297.162 126.732 295.26L101.25 294.398Z" fill="white"/>
<path d="M89.838 57.1844C84.0726 56.0011 77.9369 57.4116 72.8696 60.3659C67.8023 63.3202 63.7057 67.7243 60.4659 72.5854C58.813 75.0617 57.3267 77.7913 57.1759 80.7535C56.9379 85.4057 60.019 89.5877 63.4597 92.7692C65.2766 94.454 67.247 96.0004 68.7835 97.936C70.3201 99.8715 71.4124 102.306 71.1056 104.748C70.8623 106.679 69.7832 108.39 68.9554 110.153C68.1276 111.916 67.5167 113.972 68.2467 115.779C68.6936 116.887 69.5849 117.751 70.3862 118.653C71.8165 120.24 73.0237 122.01 73.9751 123.916C74.3185 124.517 74.531 125.183 74.5992 125.87C74.6786 127.727 72.9595 129.112 71.4256 130.172C73.1684 131.287 75.2234 132.45 77.2069 131.836C77.9483 131.578 78.6203 131.156 79.1719 130.603C80.1152 129.714 80.8561 128.637 81.3453 127.443C81.8345 126.249 82.0609 124.966 82.0093 123.68C81.9578 122.393 81.6295 121.132 81.0464 119.98C80.4632 118.828 79.6385 117.812 78.6271 116.999C77.8337 116.362 76.8155 115.45 77.3048 114.557C77.6195 113.974 78.3997 113.859 79.0661 113.773C81.1743 113.539 83.2382 113.011 85.1966 112.206C85.99 111.879 86.7834 111.49 87.3123 110.84C88.4549 109.458 88.0793 107.345 87.1166 105.838C86.154 104.33 84.7126 103.176 83.6309 101.75C83.2726 101.331 83.0319 100.826 82.9327 100.287C82.7925 99.0461 83.9086 98.0666 84.8025 97.1837C86.2365 95.744 87.3191 94.0003 87.968 92.0852C88.617 90.17 88.8151 88.134 88.5474 86.1318C88.1719 83.4857 86.9765 80.871 87.4657 78.2459C87.9312 75.7539 89.8301 73.7765 91.8242 72.1831C93.8183 70.5897 96.024 69.1844 97.5368 67.1391C102.157 60.8492 95.1301 58.271 89.838 57.1844Z" fill="#99583F"/>
<path d="M97.8012 58.0333C96.203 57.2557 94.4385 56.8704 92.6573 56.9101C89.2007 56.9937 85.7811 58.8457 84.0488 61.8C82.3165 64.7543 82.4276 68.7326 84.5116 71.4648L97.8012 58.0333Z" fill="#F83B4F"/>
<path d="M104.402 112.796C107.909 101.867 112.569 91.3404 117.221 80.8371C118.107 78.8362 119.004 76.817 120.305 75.0486C122.003 72.7343 124.33 70.9398 126.774 69.4091C134.058 64.8379 142.473 62.4112 150.762 60.0394C158.225 57.9053 165.741 58.2475 173.458 57.3568C178.084 56.8344 182.924 56.3119 187.272 57.9576C193.86 60.4522 199.02 66.2693 204.946 70.0543C211.558 74.2781 218.609 77.8906 224.655 82.8824C234.898 91.3195 241.7 103.257 245.955 115.748C250.21 128.239 252.104 141.362 253.979 154.407C255.693 166.342 252.689 178.831 247.867 189.903C246.722 192.534 245.379 195.175 243.202 197.066C240.057 199.801 235.688 200.561 231.592 201.438C223.486 203.173 215.433 205.785 207.141 205.571C200.352 207.12 193.894 210.445 187.43 213.015C182.802 214.844 178.137 217.048 174.828 220.737C171.242 224.733 169.621 230.078 168.677 235.333C165.503 252.988 168.061 275.581 164.474 293.158C123.59 301.422 80.7693 295.153 39.5384 288.795C41.2706 273.52 42.8733 257.565 44.6056 242.3C45.399 235.419 46.1713 228.521 47.7475 221.776C49.2004 215.565 51.3156 209.524 54.0578 203.753C55.7081 200.281 57.6097 196.878 60.2438 194.059C63.2905 190.794 67.1835 188.451 70.7882 185.797C75.3503 182.435 79.484 178.548 83.6045 174.669C86.8654 171.6 90.1528 168.502 92.6785 164.817C96.9549 158.576 98.7877 151.056 100.539 143.719L104.402 112.796Z" fill="#FFBA55"/>
<path d="M195.362 52.7229C194.918 55.6772 193.355 58.4251 193.246 61.4108C193.201 62.5862 193.384 63.7617 193.381 64.9371C193.381 68.8867 191.228 72.6011 188.356 75.3516C185.484 78.1022 181.924 80.0247 178.383 81.8558C166.916 87.7863 155.141 93.118 143.108 97.8289C143.24 90.9015 143.018 83.9611 143.568 77.0573C144.118 70.1535 145.467 63.2131 148.572 57.0015L195.362 52.7229Z" fill="#FF966C"/>
<path d="M147.739 62.1683C147.51 64.9655 148.286 67.7528 149.931 70.0415C151.575 72.3302 153.982 73.9743 156.731 74.6855C158.891 75.2472 161.168 75.208 163.382 74.918C171.227 73.8608 178.353 69.8448 183.265 63.7121L147.739 62.1683Z" fill="#C27D56"/>
<path d="M202.18 49.8679C205.354 48.7394 208.041 46.6132 210.643 44.5104C211.452 43.8574 212.275 43.1887 212.827 42.3136C213.38 41.4386 213.621 40.3049 213.192 39.3645C212.928 38.7925 212.439 38.3197 212.312 37.7032C212.09 36.5957 213.105 35.6684 213.959 34.9266C218.244 31.2304 221.153 25.9252 221.592 20.3275C222.031 14.7297 219.897 8.91253 215.684 5.13803C211.471 1.36352 205.216 -0.161955 199.816 1.55682C199.373 1.73557 198.898 1.8244 198.419 1.81803C197.89 1.76578 197.422 1.45494 196.957 1.19373C195.568 0.410324 193.995 0.00296815 192.395 0.01284C190.796 0.0227119 189.228 0.449473 187.849 1.24996C186.471 2.05045 185.331 3.19627 184.544 4.57159C183.758 5.9469 183.353 7.50292 183.371 9.08231L202.18 49.8679Z" fill="white"/>
<path d="M210.831 33.6936C210.164 33.0354 210.172 31.9827 210.228 31.0528C210.587 24.9901 211.465 18.1777 208.739 12.4337C205.658 5.94256 197.422 2.14192 190.53 1.43665C189.608 1.34215 188.682 1.30117 187.756 1.31389C186.417 2.13432 185.312 3.27807 184.545 4.63724C183.777 5.99641 183.373 7.5262 183.371 9.08232L202.18 49.86C205.353 48.7316 208.041 46.6053 210.643 44.5026C211.452 43.8495 212.275 43.1809 212.827 42.3058C213.38 41.4307 213.621 40.2971 213.192 39.3567C212.928 38.7847 212.439 38.3119 212.312 37.6954C212.113 36.7132 212.886 35.8669 213.663 35.1773C213.249 34.8973 212.805 34.6609 212.341 34.4721C211.815 34.2631 211.238 34.0959 210.831 33.6936Z" fill="#C0CCCE"/>
<path d="M147.503 44.2309C146.033 38.0287 145.979 31.5812 147.345 25.3558C148.588 19.7267 152.266 13.792 156.921 11.2634C161.929 5.38655 168.93 1.50972 176.619 0.356193C184.308 -0.797332 192.159 0.851234 198.707 4.99435C200.617 6.15981 202.336 7.60515 203.806 9.28084C206.335 12.2586 207.752 16.0723 208.183 19.9304C208.614 23.7885 208.101 27.7171 207.086 31.4707C206.927 32.0559 206.755 32.6723 206.911 33.26C207.176 34.2213 208.202 34.7777 208.659 35.6632C209.138 36.5931 208.897 37.7398 208.395 38.6619C207.892 39.584 207.184 40.3702 206.639 41.274C206.406 41.658 206.2 42.1203 206.348 42.5461C206.464 42.8857 206.787 43.1286 206.903 43.4682C206.983 43.815 206.943 44.1782 206.79 44.5C205.203 48.8544 201.339 51.934 197.647 54.776C192.599 53.4916 187.37 53.0406 182.173 53.4412L147.503 44.2309Z" fill="white"/>
<path d="M155.443 16.5007C152.213 19.7162 150.209 23.9087 148.336 28.0437C145.549 34.203 142.888 40.5818 142.41 47.308C141.931 54.0342 143.983 61.2802 149.238 65.5928C151.251 69.5632 154.98 71.1723 158.926 71.6189C160.905 71.8312 162.908 71.6345 164.807 71.0414C166.705 70.4483 168.458 69.4716 169.954 68.1735C174.45 68.7482 179.031 67.4239 182.971 65.1801C186.912 62.9363 190.176 59.6633 192.794 55.9907C194.35 56.3588 195.99 56.1448 197.396 55.3899C198.88 54.5845 200.182 53.4886 201.223 52.1691C202.608 50.4895 203.716 48.5122 203.904 46.3467C203.969 45.7682 203.925 45.1829 203.775 44.6201C203.246 42.8674 201.299 41.7782 199.453 41.8696C197.607 41.961 195.925 43.0346 194.711 44.4112C193.497 45.7877 192.675 47.4517 191.871 49.0947C191.379 45.3332 192.841 41.5875 193.503 37.8626C194.386 32.7992 193.68 27.5901 191.479 22.9344C188.449 23.0859 185.397 22.9082 182.353 23.0597C176.116 23.368 169.75 23.6658 163.736 22.0149C160.536 21.1163 156.76 19.5125 155.443 16.5007Z" fill="#FF966C"/>
<path d="M154.398 34.4198C153.869 34.7751 153.29 35.0507 152.679 35.2374C152.221 35.357 151.74 35.3635 151.279 35.2565C150.818 35.1494 150.39 34.9321 150.034 34.6236C149.687 34.3025 149.447 33.8847 149.346 33.4256C149.244 32.9664 149.287 32.4878 149.468 32.0532C149.595 31.779 148.987 31.5308 148.717 31.6719C148.591 31.7611 148.488 31.8788 148.418 32.015C148.347 32.1513 148.31 32.3023 148.31 32.4555C148.167 33.7302 148.99 35.0049 150.148 35.59C150.739 35.8602 151.383 36.0001 152.035 36.0001C152.687 36.0001 153.33 35.8602 153.922 35.59C154.403 35.3811 154.9 35.0363 154.98 34.5217C154.985 34.3284 154.549 34.3336 154.398 34.4198Z" fill="#5F130D"/>
<path d="M175.958 40.7542C175.164 41.7729 174.154 42.7368 172.882 43.0346C172.227 43.189 171.542 43.1552 170.906 42.9372C170.27 42.7193 169.71 42.3262 169.293 41.8045C168.876 41.2827 168.619 40.6541 168.552 39.9926C168.485 39.3312 168.611 38.6646 168.915 38.0716C169.058 37.7947 169.322 37.6641 169.528 37.8992C169.708 38.1579 169.785 38.4735 169.743 38.7847C169.716 39.4273 169.579 40.0907 169.79 40.6994C170.081 41.5352 171.009 42.0551 171.906 42.0342C172.353 42.005 172.79 41.889 173.192 41.6926C173.593 41.4963 173.952 41.2236 174.247 40.8901C174.426 40.6749 174.627 40.4781 174.847 40.3023C174.957 40.2166 175.087 40.1577 175.225 40.1305C175.362 40.1033 175.505 40.1085 175.64 40.1456C175.918 40.2344 176.132 40.5348 175.958 40.7542Z" fill="#5F130D"/>
<path d="M154.75 26.1655C154.221 26.1264 153.652 26.1055 153.208 25.8129C152.764 25.5203 152.539 24.8334 152.917 24.4572C153.17 24.2618 153.487 24.1643 153.808 24.1829C154.709 24.1412 155.612 24.1674 156.508 24.2613C157.302 24.3475 160.351 25.1416 159.127 26.4555C158.317 27.3201 155.739 26.2413 154.75 26.1655Z" fill="white"/>
<path d="M175.035 30.8491C174.334 30.6114 172.292 29.8042 172.453 28.8064C172.604 27.8686 174.159 28.0541 174.77 28.2108C176.453 28.6504 177.963 29.5807 179.102 30.8804C179.896 31.792 178.782 32.1368 178.044 31.9252C177.058 31.664 176.021 31.1834 175.035 30.8491Z" fill="white"/>
<path d="M155.485 46.7385C154.943 46.719 154.403 46.6719 153.866 46.5975C153.426 46.5723 153.004 46.4146 152.658 46.1456C152.482 45.9595 152.359 45.7319 152.299 45.4848C152.238 45.2378 152.244 44.9795 152.314 44.735C152.464 44.2531 152.715 43.808 153.052 43.429C154.07 42.1652 155.34 41.1215 156.783 40.3624C156.323 42.4181 156.067 44.6985 155.485 46.7385Z" fill="#FC571E"/>
<path d="M162.985 55.1469C158.726 54.9398 154.515 54.163 150.468 52.8378C150.759 54.1439 151.327 55.4499 152.388 56.2963C153.52 57.2001 155.059 57.4325 156.514 57.3934C158.733 57.3359 161.057 56.2623 162.985 55.1469Z" fill="#B62C43"/>
<path d="M197.462 42.0733L172.549 46.4355C172.607 44.2231 170.88 41.8748 168.143 40.7385C166.624 40.079 164.93 39.9259 163.316 40.3023C162.705 40.4366 162.128 40.6908 161.619 41.0498C161.109 41.4087 160.678 41.8652 160.351 42.392C159.611 41.1356 158.696 40.3571 157.622 40.0855C156.746 39.8845 155.827 39.9849 155.017 40.3702C155.066 39.4009 154.82 38.4393 154.311 37.6092C153.434 36.2232 152.146 35.138 150.622 34.5013C149.098 33.8647 147.412 33.7076 145.795 34.0515C144.263 34.4433 143.129 35.3445 142.6 36.5905C141.516 39.1347 143.354 42.3371 146.697 43.7215C147.689 44.1383 148.755 44.3568 149.833 44.3641C150.403 44.3663 150.971 44.297 151.523 44.1578C153.057 43.766 154.192 42.8648 154.721 41.6188C154.808 41.4152 154.877 41.2046 154.927 40.9893C155.699 40.5329 156.618 40.3835 157.498 40.5713C158.516 40.8325 159.381 41.6319 160.079 42.9536C159.103 45.4769 160.936 48.5984 164.223 49.9619C165.215 50.3805 166.281 50.5998 167.36 50.6071C167.93 50.6091 168.499 50.5398 169.052 50.4007C170.584 50.0089 171.718 49.1077 172.25 47.8618C172.372 47.575 172.461 47.2753 172.514 46.9684L197.57 42.5879L197.462 42.0733ZM154.226 41.4177C153.761 42.5095 152.753 43.3036 151.383 43.651C149.879 44.0014 148.3 43.8565 146.887 43.2383C143.811 41.9636 142.1 39.0589 143.071 36.7916C143.534 35.6997 144.544 34.9057 145.914 34.5583C146.423 34.4295 146.946 34.3655 147.471 34.3676C148.479 34.3751 149.475 34.5802 150.402 34.971C151.833 35.5356 153.039 36.5439 153.84 37.8443C154.557 39.0589 154.689 40.3258 154.226 41.4177ZM171.753 47.658C171.29 48.7499 170.279 49.5439 168.912 49.894C167.408 50.2403 165.83 50.0955 164.416 49.4813C161.343 48.2065 159.632 45.3019 160.6 43.0346C161.065 41.9427 162.073 41.1486 163.443 40.7986C163.952 40.67 164.475 40.6059 165.001 40.6079C166.008 40.6152 167.004 40.8203 167.931 41.2113C171.012 42.4886 172.723 45.3907 171.753 47.658Z" fill="white"/>
<path d="M200.749 44.7298C201.147 45.3189 201.313 46.0315 201.216 46.7331C201.118 47.4347 200.764 48.0768 200.22 48.5383C200.205 48.1962 200.106 47.863 199.93 47.5678C199.754 47.2727 199.508 47.0247 199.213 46.8457L197.589 48.8152C197.968 48.8946 198.315 49.0831 198.586 49.3568C198.857 49.6306 199.04 49.9774 199.112 50.3537C198.369 51.746 196.277 52.2031 195.01 51.2471C195.108 49.7268 196.028 48.4887 196.999 47.3707C197.271 47.0546 200.36 44.1943 200.749 44.7298Z" fill="#FC571E"/>
<path d="M202.756 140.336C206.459 136.548 210.492 132.575 215.715 131.499C216.898 131.253 218.12 131.165 219.251 130.752C220.971 130.125 222.34 128.803 224.012 128.054C226.85 126.774 230.171 127.288 233.168 128.142C242.72 130.9 251.057 136.75 256.835 144.753C258.065 146.469 259.181 148.298 259.789 150.311C260.451 152.498 260.49 154.82 260.39 157.103C260.059 164.678 257.777 172.857 251.49 177.216C250.011 178.186 248.446 179.02 246.815 179.711C243.696 181.124 240.504 182.464 237.122 183.033C233.739 183.603 230.116 183.342 227.119 181.693C225.287 180.685 223.766 179.212 222.311 177.723C218.664 173.991 215.258 170.037 212.113 165.882L202.756 140.336Z" fill="white"/>
<path d="M110.594 122.573C112.287 108.222 114.803 93.9773 118.128 79.9072C118.499 78.3399 118.885 76.7726 119.641 75.336C120.63 73.4735 122.199 71.9768 123.833 70.6342C128.268 66.9772 133.864 64.2266 139.342 62.406C131.754 74.0325 129.675 88.2293 127.771 101.935C126.885 108.33 125.999 114.862 127.242 121.194C139.143 123.127 152.531 124.744 164.427 126.68C170.127 103.673 183.071 83.0461 201.397 67.7687C202.098 67.1888 202.957 66.5802 203.843 66.8022C204.417 66.9458 204.843 67.4082 205.242 67.847C208.525 71.3655 212.738 74.6176 217.199 76.467C200.892 95.3749 190.075 118.293 185.899 142.786C183.458 157.262 184.87 172.337 182.868 186.878C165.81 191.565 146.67 191.199 130.482 198.283C129.424 198.745 128.34 199.27 127.628 200.171C126.882 201.122 126.65 202.358 126.441 203.544C123.849 218.241 121.463 232.974 119.284 247.741C93.0725 249.266 67.4744 240.375 41.4373 237.031C43.7276 224.832 45.0552 213.109 47.3455 200.911C47.93 197.8 48.5251 194.642 49.8897 191.784C51.4766 188.474 54.0049 185.7 56.7104 183.201C63.785 176.67 72.1741 171.707 80.4943 166.823L105.902 151.866L110.594 122.573Z" fill="#C27D56"/>
<path d="M157.545 163.921C163.072 166.976 167.551 171.591 170.409 177.174C171.975 180.249 173.025 183.613 173.144 187.051C173.17 187.79 173.144 188.574 172.744 189.203C172.404 189.669 171.971 190.061 171.472 190.355L157.82 199.667C157.511 199.879 157.141 200.101 156.781 199.991C156.56 199.902 156.371 199.752 156.236 199.558C149.138 191.269 144.123 181.066 135.401 174.46L157.545 163.921Z" fill="#357092"/>
<path d="M95.1063 101.993C88.6664 106.279 84.6597 113.303 81.6844 120.387C78.7091 127.471 76.5034 134.926 72.5364 141.516C70.2831 145.247 75.062 149.784 79.2777 151.014C83.4934 152.244 88.0052 151.424 92.3346 150.651C115.127 146.581 138.617 143.925 159.526 134.098C160.56 133.612 161.708 132.954 161.906 131.841C161.959 131.322 161.893 130.798 161.713 130.308C158.672 119.878 150.471 111.049 140.212 107.157C135.774 105.472 130.691 104.474 127.676 100.851L95.1063 101.993Z" fill="#8BC3C0"/>
<path d="M77.0694 152.02C77.4185 155.371 77.7676 158.728 77.7755 162.092C77.794 168.719 76.6119 175.863 80.0235 181.571C82.0044 184.883 85.342 187.247 88.9494 188.704C92.5568 190.162 96.4392 190.794 100.303 191.293C101.271 191.418 102.279 191.531 103.212 191.217C104.146 190.904 104.889 190.172 105.577 189.459C109.957 184.933 113.981 180.083 117.613 174.952C120.546 170.814 123.262 166.405 124.468 161.494C125.674 156.583 125.195 151.066 122.17 146.994C120.715 145.035 118.761 143.504 116.83 142C115.415 140.897 113.966 139.774 112.263 139.2C110.147 138.489 107.854 138.677 105.651 138.967C100.853 139.589 95.9632 140.688 92.012 143.444L77.0694 152.02Z" fill="#8BC3C0"/>
<path d="M127.84 175.249C127.279 172.872 126.681 170.448 125.325 168.408C123.526 165.702 120.596 163.968 117.769 162.338C114.73 160.577 111.242 158.224 107.737 157.855C102.744 157.333 97.706 159.558 94.1515 163.064C90.5971 166.569 88.3993 171.232 87.1061 176.025C86.5771 177.992 86.1857 180.069 86.6432 182.054C87.3705 185.207 90.0813 187.539 92.9509 189.107C96.5212 191.071 100.488 192.207 104.418 193.328L109.708 194.832C111.559 198.831 113.476 203.497 116.261 206.929L116.56 207.29C116.711 205.306 117.368 203.393 118.47 201.728C121.577 197.126 126.544 194.548 131.958 194.299C130.686 187.931 129.334 181.578 127.84 175.249Z" fill="#357092"/>
<path d="M159.714 111.616L155.879 106.13L121.498 125.852L92.935 111.354L89.4969 116.579L122.556 136.95L159.714 111.616Z" fill="white"/>
<path d="M115.812 125.844L86.8522 113.697L104.307 163.197L130.49 177.694L116.608 128.654C116.16 127.778 115.89 126.823 115.812 125.844Z" fill="#F83B4F"/>
<path d="M160.904 108.742L129.329 126.243L144.771 175.871L180.343 160.982L160.904 108.742Z" fill="#F83B4F"/>
<path d="M122.291 131.852C119.036 131.852 117.414 130.216 116.608 128.654L130.49 177.694C130.49 177.694 133.002 183.049 138.688 181.743C144.374 180.437 144.771 175.866 144.771 175.866L129.331 126.236C129.331 126.236 127.713 131.852 122.291 131.852Z" fill="#B62C43"/>
<path d="M128.485 146.696C130.891 146.039 132.985 144.564 134.399 142.533L132.061 135.015C130.671 136.946 128.645 138.341 126.33 138.961C124.014 139.58 121.553 139.386 119.366 138.411L121.559 146.156C123.741 147.098 126.18 147.288 128.485 146.696Z" fill="#FFBA55"/>
<path d="M136.676 173.578C139.152 172.899 141.294 171.356 142.706 169.236L140.373 161.732C138.925 163.82 136.746 165.305 134.256 165.901C131.766 166.497 129.14 166.162 126.885 164.96L129.078 172.705C131.413 173.916 134.121 174.227 136.676 173.578Z" fill="#FFBA55"/>
<path d="M83.9086 138.594C82.3403 136.243 77.1831 136.883 75.0039 137.549C71.9625 138.499 69.0348 140.401 67.8632 143.444C66.1785 147.806 68.5534 155.099 72.3592 157.858C75.7021 160.287 80.6556 159.812 83.9483 157.317C87.2409 154.823 88.9732 150.69 89.2377 146.607L83.9086 138.594Z" fill="#8BC3C0"/>
<path d="M90.8166 147.31C88.7008 145.171 88.1719 141.864 88.7775 138.933C89.3831 136.002 91.126 133.045 92.7922 130.551L94.3658 135.015C95.86 134.08 97.3966 132.897 98.9834 132.113C99.6102 131.812 100.398 131.538 100.956 131.951C101.142 132.115 101.277 132.327 101.345 132.563C101.414 132.799 101.414 133.05 101.345 133.286C101.194 133.756 100.936 134.186 100.591 134.542C99.7775 135.491 98.8443 136.334 97.8145 137.05C98.8723 136.721 99.8324 136.446 100.901 136.12C101.472 135.942 102.072 135.765 102.665 135.859C103.257 135.953 103.829 136.439 103.815 137.031C103.815 137.499 103.456 137.883 103.109 138.202C101.933 139.277 100.564 140.128 99.0733 140.709C100.47 140.255 101.499 140.187 102.969 140.148C103.448 140.148 104 140.19 104.273 140.576C104.418 140.805 104.472 141.078 104.424 141.344C104.302 142.337 103.421 143.079 102.504 143.504C101.586 143.93 100.57 144.142 99.6948 144.646C100.692 144.528 102.001 144.04 102.995 144.27C104.736 144.669 103.575 145.918 102.443 146.699C99.0654 149.055 93.694 150.228 90.8166 147.31Z" fill="#FF966C"/>
<path d="M91.4883 137.496C91.3402 137.22 82.4302 137.92 81.4993 137.977C78.487 138.163 75.1652 138.711 72.7717 140.691C71.8216 141.502 71.0772 142.521 70.5986 143.668C70.12 144.814 69.9204 146.055 70.0159 147.292C70.2042 149.466 71.0315 151.539 72.3962 153.255C74.065 155.426 76.3791 157.03 79.1587 157.382C81.7426 157.712 84.136 156.86 86.2756 155.491C88.4152 154.123 90.1448 152.307 91.8797 150.5L96.0848 146.119L91.4883 137.496Z" fill="#FF966C"/>
<path d="M128.02 105.827C126.446 109.306 124.273 112.488 121.596 115.231C120.252 116.605 118.729 117.898 116.888 118.483C114.698 119.18 112.297 118.799 110.123 118.054C105.214 116.349 101.12 112.905 98.6343 108.39C103.526 108.567 108.424 108.304 113.268 107.606L128.02 105.827Z" fill="#C27D56"/>
<path d="M91.3428 76.9973C92.3796 73.9986 94.4874 71.4753 96.8121 69.2889C101.591 64.7935 107.944 61.335 114.513 61.975C119.538 62.4609 124.082 65.2898 127.763 68.7195C131.201 71.9298 133.894 75.9603 134.266 80.6229C134.655 85.4736 135.041 90.3739 134.317 95.188C133.592 100.002 131.648 104.788 128.025 108.084C122.897 112.752 114.955 115.973 107.952 114.249C104.122 113.275 100.563 111.461 97.541 108.942C94.5189 106.423 92.111 103.262 90.4965 99.6965C88.6928 95.6295 87.9973 90.4496 88.3623 86.0221L91.3428 76.9973Z" fill="#FF966C"/>
<path d="M85.1331 90.5803C84.7364 90.5803 81.0153 90.2642 81.0153 90.2642C81.0153 90.2642 74.951 95.431 85.662 100.841C96.3731 106.25 91.6126 95.5537 91.6126 95.5537L85.1331 90.5803Z" fill="#FF966C"/>
<path d="M81.0153 90.272C83.4431 91.2516 85.2892 93.2707 86.7596 95.4153C88.2301 97.5598 89.7904 99.4223 91.3826 101.478C90.2559 99.4614 89.4969 95.2821 90.2559 91.6617C100.169 85.6068 107.476 76.1569 110.781 65.1174C114.003 65.8566 116.6 68.0482 118.753 70.5297C120.905 73.0112 128.009 81.8375 134.396 82.3025C135.499 76.2946 133.716 69.8296 129.9 65.0103C126.084 60.1909 120.416 56.9415 114.362 55.672C108.309 54.4025 101.924 55.0555 96.106 57.1452C94.0595 57.8567 92.0978 58.7869 90.2559 59.9193C85.3053 63.0388 81.6398 67.7961 79.9151 73.3403C78.248 78.9357 78.6377 84.933 81.0153 90.272Z" fill="#99583F"/>
<path d="M107.975 82.9189L107.891 82.9477C106.669 83.382 105.487 83.9186 104.357 84.5515C103.99 84.7578 102.043 85.949 103.654 86.0822C104.034 86.0756 104.403 85.9554 104.712 85.7374L108.092 83.8253C108.422 83.6399 108.79 83.2089 108.507 82.9581C108.43 82.9057 108.34 82.8744 108.247 82.8675C108.153 82.8607 108.06 82.8784 107.975 82.9189Z" fill="#5F130D"/>
<path d="M125.869 79.9411C124.674 79.8345 123.469 79.904 122.294 80.1475C122.082 79.9542 121.466 80.2232 121.434 80.5053C121.433 80.6485 121.478 80.7883 121.563 80.904C121.649 81.0197 121.769 81.1053 121.908 81.1479C122.186 81.2251 122.479 81.2411 122.765 81.1949L125.145 80.986C125.478 80.9888 125.804 80.8903 126.078 80.7039C126.324 80.4897 126.197 79.9699 125.869 79.9411Z" fill="#5F130D"/>
<path d="M109.562 92.5472C109.562 93.2681 109.187 93.8532 108.724 93.8532C108.261 93.8532 107.885 93.2681 107.885 92.5472C107.885 91.8262 108.261 91.2411 108.724 91.2411C109.187 91.2411 109.562 91.8236 109.562 92.5472Z" fill="#5F130D"/>
<path d="M124.981 90.272C124.981 90.9956 124.605 91.5781 124.143 91.5781C123.68 91.5781 123.307 90.9956 123.307 90.272C123.307 89.5485 123.68 88.966 124.143 88.966C124.605 88.966 124.981 89.5511 124.981 90.272Z" fill="#5F130D"/>
<path d="M117.451 98.555L117.269 94.1144C118.176 94.5559 118.909 95.3082 118.948 96.306C118.988 97.3038 118.319 98.0404 117.451 98.555Z" fill="#FC571E"/>
<path d="M122.675 101.303C121.061 101.747 119.438 102.194 117.769 102.332C115.063 102.552 112.281 101.953 109.655 102.633C110.184 104.171 111.638 105.279 113.093 106.028C113.995 106.48 114.944 106.909 115.949 106.987C117.47 107.104 118.972 106.391 120.059 105.331C121.194 104.174 122.083 102.804 122.675 101.303Z" fill="#B62C43"/>
<path d="M130.093 221.586C130.358 223.027 130.939 223.97 131.743 224.537C133.909 225 136.311 224.373 138.159 223.101C140.458 221.533 142.023 219.099 143.224 216.602C145.166 212.552 146.3 208.171 146.564 203.698C146.633 202.501 146.636 201.269 146.223 200.14C145.811 199.012 144.901 197.996 143.721 197.737L143.586 197.713C142.667 197.71 141.76 197.924 140.942 198.338C133.002 203.04 128.771 212.443 130.093 221.586Z" fill="#C0CCCE"/>
<path d="M140.54 198.361C138.037 199.49 135.695 200.936 133.571 202.663C133.042 199.877 132.502 197.091 131.952 194.305C126.531 194.566 121.564 197.131 118.464 201.734C117.363 203.398 116.706 205.311 116.555 207.295C119.059 210.28 122.162 212.796 124.24 216.084C126.031 218.924 127.21 222.479 130.228 224.007C130.71 224.247 131.222 224.423 131.751 224.529C130.958 223.963 130.355 223.02 130.101 221.578C128.779 212.435 133.01 203.032 140.944 198.33C141.763 197.917 142.67 197.703 143.589 197.706C142.552 197.538 141.5 197.938 140.54 198.361Z" fill="white"/>
<path d="M258.459 175.874H163.472V220.447H270.68C273.56 215.714 275.33 209.306 275.33 202.256C275.33 187.686 267.776 175.874 258.459 175.874Z" fill="#357092"/>
<path d="M163.472 313.916H266.88C267.891 313.915 268.861 313.518 269.576 312.812C270.291 312.106 270.693 311.148 270.694 310.149V220.447H163.472V313.916Z" fill="#357092"/>
<path d="M180.343 202.256C180.343 187.686 172.789 175.874 163.472 175.874C154.155 175.874 146.599 187.686 146.599 202.256C146.599 209.309 148.368 215.714 151.251 220.447V310.136C151.251 311.135 151.653 312.093 152.369 312.799C153.084 313.505 154.053 313.902 155.064 313.903H171.879C172.89 313.902 173.86 313.505 174.574 312.799C175.289 312.092 175.691 311.135 175.691 310.136V220.447C178.573 215.714 180.343 209.306 180.343 202.256Z" fill="#8BC3C0"/>
<path d="M162.388 208.974C163.209 206.274 163.482 203.441 163.192 200.636C162.902 197.831 162.055 195.111 160.698 192.63C157.997 194.947 155.755 197.967 156.064 201.485C156.374 205.004 159.325 207.154 162.388 208.974Z" fill="#357092"/>
<path d="M270.678 220.444L175.69 224.689V220.444H270.678Z" fill="#113C54"/>
<path d="M172.726 142.415L170.33 146.412C169.248 148.217 168.034 150.136 166.072 150.936C165.775 151.085 165.435 151.129 165.109 151.059C164.922 150.98 164.754 150.863 164.617 150.715C164.48 150.566 164.377 150.39 164.316 150.199C163.599 148.499 164.141 146.563 164.691 144.803C165.334 142.739 166.066 140.803 166.709 138.74C164.797 140.516 164.329 143.426 162.414 145.202C161.867 145.725 161.126 146.129 160.388 145.986C159.473 145.798 158.957 144.826 158.756 143.925C158.299 141.89 158.78 139.766 159.457 137.792C160.134 135.817 161.012 133.975 161.377 131.925L159.032 136.086C158.413 137.18 157.709 138.356 156.522 138.805C156.069 138.978 155.488 138.998 155.165 138.641C155.008 138.432 154.916 138.184 154.9 137.925C154.813 137.087 154.829 136.241 154.948 135.407C155.078 134.101 155.213 132.795 155.675 131.564C156.096 130.454 156.773 129.475 157.442 128.479L159.238 125.841C158.738 125.648 158.201 126.008 157.82 126.382C156.625 127.555 155.816 129.059 154.681 130.3C153.546 131.541 151.87 132.513 150.23 132.129C150.042 132.102 149.862 132.032 149.706 131.924C149.55 131.817 149.421 131.675 149.331 131.509C149.24 131.183 149.264 130.836 149.399 130.525C150.346 127.476 151.293 124.423 152.409 121.429C152.938 120.05 153.507 118.634 154.591 117.626C155.86 116.448 157.63 115.991 159.32 115.578L168.634 113.293C170.943 112.726 173.551 112.198 175.577 113.439C176.733 114.147 177.492 115.325 178.221 116.464C182.064 122.524 185.489 128.542 189.329 134.602C195.896 137.319 203.113 137.998 210.222 138.596C217.331 139.194 224.528 139.717 231.203 142.159C237.878 144.601 244.08 149.267 246.592 155.844C247.486 158.195 247.888 160.679 248.137 163.158C248.666 168.382 248.383 174.129 245.037 178.206C241.232 182.861 234.459 184.063 228.434 183.339C221.476 182.503 214.914 179.565 209.056 175.764C203.198 171.963 197.977 167.295 192.778 162.651L182.926 153.851C178.264 149.682 173.218 148.585 172.726 142.415Z" fill="#FF966C"/>
</g>
<defs>
<clipPath id="clip0_217_574">
<rect width="290" height="315" fill="white"/>
</clipPath>
</defs>
</svg>
