<svg width="60" height="60" viewBox="0 0 60 60" fill="none" xmlns="http://www.w3.org/2000/svg">
<g clip-path="url(#clip0_474_568)">
<path fill-rule="evenodd" clip-rule="evenodd" d="M36.6101 8.17057L40.1506 3.90882C40.4471 3.55245 40.2459 2.99159 39.8434 2.76225L36.3136 0.722959C35.9147 0.493623 35.3253 0.599443 35.1665 1.03339L33.2427 6.22655C33.0803 6.6605 33.151 7.14378 33.5499 7.37311L35.4631 8.48089C35.8654 8.71034 36.3172 8.52682 36.6101 8.17057Z" fill="#80D261"/>
<path fill-rule="evenodd" clip-rule="evenodd" d="M56.3846 9.28547L55.4773 6.73828C55.3678 6.42785 55.3255 6.16324 55.4526 5.88457L56.6351 3.31265C56.8858 2.81168 56.8293 2.69531 56.2644 2.70586L53.3735 2.76234C53.0453 2.76586 53.0029 2.68828 52.7876 2.48015L50.8039 0.557224C50.4014 0.169099 50.232 0.215037 50.0767 0.751287L49.3213 3.40781C49.2366 3.69715 49.2401 3.78527 48.9542 3.94406L46.4198 5.34117C45.9291 5.61281 45.9361 5.74336 46.4056 6.05379L48.7177 7.68726C48.9647 7.86363 49.0601 8.11769 49.1201 8.4423L49.6108 11.0988C49.6955 11.6563 49.826 11.6916 50.2744 11.3529L52.3958 9.71941C52.6148 9.55007 53.0065 9.44425 53.2818 9.48304L55.9327 9.83589C56.4939 9.90632 56.5858 9.81105 56.3846 9.28547Z" fill="#FECE85"/>
<path fill-rule="evenodd" clip-rule="evenodd" d="M24.5488 25.5635C30.1365 18.3523 28.6893 11.24 27.6481 6.99932C26.4832 2.2578 19.8894 3.38315 21.2378 8.39995C22.5403 13.2474 23.0098 16.9341 21.6897 23.7536L24.5488 25.5635Z" fill="#FE76A8"/>
<path fill-rule="evenodd" clip-rule="evenodd" d="M31.372 31.6808L46.2856 19.2976C46.7692 18.8143 46.7692 18.024 46.2856 17.5408L42.4027 13.6635C41.9191 13.1802 41.1284 13.1802 40.6449 13.6635L28.2551 28.5656L31.372 31.6808Z" fill="#FECE85"/>
<path fill-rule="evenodd" clip-rule="evenodd" d="M51.2273 39.7318C56.1726 41.33 57.6304 34.8067 52.9498 33.4026C48.7987 32.1572 41.8449 30.3721 34.4216 35.4347L36.2959 38.4476C42.9286 37.555 46.5396 38.2148 51.2273 39.7318Z" fill="#FE76A8"/>
<path fill-rule="evenodd" clip-rule="evenodd" d="M24.5487 25.5634C30.1364 18.3523 28.6892 11.24 27.648 6.9993C26.9914 4.31805 24.5911 3.51016 22.8791 4.2263C23.7333 4.68848 24.4569 5.54571 24.7746 6.84052C25.7595 10.8554 27.1114 17.4492 22.4979 24.2651L24.5487 25.5634Z" fill="#FE5694"/>
<path fill-rule="evenodd" clip-rule="evenodd" d="M31.372 31.681L46.2856 19.2978C46.7693 18.8145 46.7693 18.0242 46.2856 17.5409L45.5937 16.8494L29.7236 30.0299L31.372 31.681Z" fill="#FDB440"/>
<path fill-rule="evenodd" clip-rule="evenodd" d="M51.2274 39.7317C56.0387 41.2875 57.5493 35.1559 53.3206 33.5295C53.2712 35.2864 51.8311 36.9094 49.1272 36.4084C44.5666 35.5617 41.0473 35.3464 35.2549 36.7753L36.2962 38.4476C42.9288 37.5549 46.5398 38.2147 51.2274 39.7317Z" fill="#FE5694"/>
<path fill-rule="evenodd" clip-rule="evenodd" d="M8.03611 24.685L7.36193 17.4526C7.30544 16.8529 6.5995 16.5177 6.01357 16.6765L0.852863 18.0595C0.266925 18.2148 -0.181434 18.8569 0.0727456 19.4072L3.10837 26.0045C3.36255 26.5548 3.87079 26.9394 4.45673 26.7842L7.25587 26.0327C7.84193 25.8775 8.09259 25.2883 8.03611 24.685Z" fill="#80D261"/>
<path fill-rule="evenodd" clip-rule="evenodd" d="M13.0978 8.42807L15.6075 6.6535C16.1157 6.31483 16.1229 6.17373 15.5898 5.88088L12.8401 4.36389C12.5294 4.19104 12.533 4.09577 12.4412 3.78182L11.6188 0.899476C11.4528 0.31389 11.2693 0.264437 10.8316 0.687836L8.67843 2.77272C8.44194 3.00205 8.39952 3.08666 8.04304 3.07963L4.90147 3.01963C4.29081 3.00557 4.22729 3.13248 4.50257 3.6794L5.78741 6.46998C5.92511 6.76987 5.87917 7.0592 5.75917 7.39788L4.77432 10.1602C4.55542 10.7282 4.65784 10.834 5.26499 10.7565L8.14182 10.372C8.44182 10.3332 8.86546 10.446 9.10546 10.6296L11.4034 12.4041C11.8905 12.771 12.0317 12.7323 12.127 12.129L12.6565 9.24662C12.7236 8.89377 12.8259 8.61862 13.0978 8.42807Z" fill="#FECE85"/>
<path fill-rule="evenodd" clip-rule="evenodd" d="M58.7672 24.5156L59.9885 17.3573C60.0909 16.7611 59.4943 16.2566 58.8872 16.2566H53.543C52.9393 16.2566 52.3393 16.7611 52.4416 17.3573L53.6665 24.5156C53.7689 25.1119 54.1607 25.6164 54.7678 25.6164H57.6659C58.2694 25.6164 58.6648 25.1119 58.7672 24.5156Z" fill="#80D261"/>
<path fill-rule="evenodd" clip-rule="evenodd" d="M57.7046 50.478L59.6743 48.1107C60.0802 47.652 60.0484 47.5145 59.4554 47.3663L56.402 46.6113C56.0561 46.5266 56.0349 46.4349 55.8655 46.1526L54.323 43.5772C54.0123 43.055 53.8218 43.055 53.5076 43.5772L51.9651 46.1526C51.7956 46.4348 51.7744 46.5266 51.4286 46.6113L48.3753 47.3663C47.7823 47.5145 47.7541 47.6521 48.16 48.1107L50.1262 50.478C50.3379 50.7321 50.3662 51.0248 50.3379 51.3812L50.105 54.3093C50.0379 54.9161 50.165 54.9902 50.7333 54.7609L53.416 53.6425C53.6984 53.5262 54.1361 53.5262 54.4149 53.6425L57.1011 54.7609C57.6658 54.9902 57.7929 54.9161 57.7294 54.3093L57.4929 51.3812C57.4646 51.0248 57.4928 50.732 57.7046 50.478Z" fill="#FECE85"/>
<path fill-rule="evenodd" clip-rule="evenodd" d="M44.2805 54.468L38.8198 50.6014C38.3644 50.2768 37.7785 50.2062 37.3832 50.6014L35.4982 52.4853C35.1028 52.8804 35.1735 53.466 35.4982 53.9212L39.3669 59.3789C39.6882 59.8341 40.4048 59.7741 40.8 59.3789L44.2805 55.9004C44.6759 55.5052 44.7359 54.7889 44.2805 54.468Z" fill="#80D261"/>
<path fill-rule="evenodd" clip-rule="evenodd" d="M36.3031 34.2847C35.3571 32.9441 34.2664 31.5822 33.0909 30.2558C32.579 29.6772 32.0496 29.1057 31.5096 28.5447C31.5025 28.5342 31.4919 28.5235 31.4813 28.5165C30.8919 27.945 30.2918 27.391 29.6811 26.8513C28.4033 25.7258 27.0972 24.6815 25.8053 23.7643C25.8018 23.7643 25.8018 23.7643 25.8018 23.7643C25.0747 23.2458 24.3546 22.7729 23.6486 22.3496C23.1157 22.0285 22.5932 21.7393 22.0814 21.4782C18.4456 19.6366 15.3958 19.4038 14.2627 22.1308C14.238 22.1873 14.0403 22.7236 13.8886 23.0552L12.7378 26.2868L10.8035 31.7198L8.00433 39.5837L5.80519 45.7718L3.35187 52.6583C2.74824 54.3588 2.93187 55.6254 3.71187 56.271C4.35781 57.0506 5.62508 57.2341 7.3264 56.6308L14.2167 54.1789L20.408 51.981L28.2761 49.1833L33.7121 47.25L36.9454 46.0999C37.2772 45.9481 37.8138 45.7507 37.8703 45.726C40.5282 44.6252 40.3764 41.6971 38.6574 38.1832C38.3539 37.5587 37.9973 36.9166 37.602 36.2605C37.2103 35.6114 36.7761 34.9516 36.3065 34.2883C36.3031 34.2882 36.3031 34.2847 36.3031 34.2847Z" fill="#80D261"/>
<path fill-rule="evenodd" clip-rule="evenodd" d="M33.0909 30.2556C32.5791 29.6771 32.0496 29.1055 31.5096 28.5446C31.5026 28.534 31.4919 28.5234 31.4814 28.5163C30.8919 27.9448 30.2918 27.3909 29.6811 26.8511C29.6459 26.8229 29.6141 26.7911 29.5787 26.7629C28.3714 25.7044 27.1361 24.7166 25.9147 23.8417C25.8795 23.817 25.8406 23.7887 25.8053 23.7641C25.8018 23.7641 25.8018 23.7641 25.8018 23.7641C25.0746 23.2456 24.3545 22.7727 23.6486 22.3459C23.1261 22.0355 22.6037 21.7427 22.0813 21.478C20.5847 20.7195 19.1832 20.2362 17.9796 20.1162C19.3034 20.8959 20.6235 21.8202 21.8695 22.7939C22.2225 23.0691 22.572 23.3479 22.9109 23.6301C23.3627 24.0005 23.7968 24.3745 24.2169 24.7449C24.4076 24.9107 24.5946 25.08 24.7853 25.2494V25.2529C25.2018 25.6304 25.6148 26.015 26.0172 26.4065L26.0489 26.4347C27.7679 28.2163 29.4622 30.2238 30.8425 32.1782C31.6931 33.3707 32.5757 34.8065 33.1934 36.073C34.9124 39.5904 35.0641 42.5151 32.4062 43.6193C32.3957 43.6229 32.3639 43.6334 32.3215 43.6511C32.9957 44.9388 33.4793 46.156 33.7123 47.2496L36.9456 46.0995C37.2773 45.9477 37.8139 45.7503 37.8704 45.7255C40.5284 44.6248 40.3766 41.6966 38.6576 38.1828C38.647 38.158 38.6364 38.137 38.6223 38.1122C38.3293 37.516 37.9799 36.8845 37.6022 36.2601C37.5704 36.2071 37.5352 36.1543 37.5034 36.0978C37.5034 36.0978 37.4999 36.0943 37.4999 36.0907C37.1152 35.4627 36.7057 34.8489 36.3068 34.2879C36.3033 34.2879 36.3033 34.2844 36.3033 34.2844C35.4314 33.0461 34.436 31.7937 33.3664 30.5659C33.2746 30.4604 33.1828 30.358 33.0909 30.2556Z" fill="#4FC122"/>
<path fill-rule="evenodd" clip-rule="evenodd" d="M33.7122 47.2498C32.9568 43.6866 29.5258 38.7933 25.4347 34.5597C21.1988 30.4708 16.303 27.0417 12.7378 26.2866L10.8035 31.7197C13.9521 33.1591 17.6232 35.9286 20.9023 39.0896C24.0651 42.3671 26.836 46.0361 28.2762 49.1831L33.7122 47.2498Z" fill="#FECE85"/>
<path fill-rule="evenodd" clip-rule="evenodd" d="M20.4082 51.9809L28.2763 49.1833C27.7856 48.1073 27.1361 46.9713 26.3701 45.8105L18.0608 48.7634C18.9221 49.8395 19.7163 50.919 20.4082 51.9809Z" fill="#4FC122"/>
<path fill-rule="evenodd" clip-rule="evenodd" d="M33.7123 47.2498C33.4793 46.1561 32.9957 44.939 32.3215 43.6514C32.1415 43.7184 31.7461 43.8702 31.4814 43.9936L26.3701 45.8104C27.1361 46.9712 27.7856 48.1072 28.2763 49.1832L33.7123 47.2498Z" fill="#FDB440"/>
<path fill-rule="evenodd" clip-rule="evenodd" d="M20.4081 51.9808C18.9221 49.7052 16.9771 47.3309 14.8557 45.133C12.6565 43.0128 10.281 41.0688 8.00419 39.5835L5.80505 45.7716C7.33353 46.9394 8.86541 48.2623 10.3197 49.6664C11.7245 51.1199 13.0483 52.6511 14.2167 54.1787L20.4081 51.9808Z" fill="#FECE85"/>
<path fill-rule="evenodd" clip-rule="evenodd" d="M14.2168 54.1787C13.4155 53.1309 12.5401 52.0795 11.6154 51.053L3.00961 54.1117C2.91785 55.0854 3.17203 55.8263 3.71203 56.2708C4.35797 57.0504 5.62523 57.2339 7.32656 56.6306L14.2168 54.1787Z" fill="#4FC122"/>
<path fill-rule="evenodd" clip-rule="evenodd" d="M20.4082 51.9809C19.7163 50.919 18.9221 49.8394 18.0608 48.7634L11.6152 51.053C12.5401 52.0797 13.4155 53.131 14.2167 54.1788L20.4082 51.9809Z" fill="#FDB440"/>
<path fill-rule="evenodd" clip-rule="evenodd" d="M13.0979 8.42807L15.6076 6.6535C16.1158 6.31483 16.123 6.17373 15.5899 5.88088L12.8402 4.36389C12.5295 4.19104 12.5331 4.09577 12.4413 3.78182L11.6189 0.899476C11.4529 0.31389 11.2694 0.264437 10.8317 0.687836L9.88216 1.60858C10.2669 2.85745 10.4788 4.23334 10.4788 5.67627C10.4788 7.58491 10.1081 9.37354 9.46216 10.9047L11.4036 12.4041C11.8908 12.771 12.032 12.7323 12.1272 12.129L12.6567 9.24662C12.7237 8.89377 12.826 8.61862 13.0979 8.42807Z" fill="#FDB440"/>
<path fill-rule="evenodd" clip-rule="evenodd" d="M8.03605 24.685L7.36187 17.4526C7.30539 16.8529 6.59945 16.5177 6.01351 16.6765L4.82746 16.994C4.95801 17.7595 5.02516 18.5604 5.02516 19.3824C5.02516 21.986 4.3368 24.3639 3.2002 26.1772C3.47195 26.6324 3.93437 26.9216 4.4568 26.784L7.25594 26.0326C7.84187 25.8775 8.09254 25.2883 8.03605 24.685Z" fill="#4FC122"/>
<path fill-rule="evenodd" clip-rule="evenodd" d="M40.1507 3.90886C40.4472 3.55249 40.246 2.99163 39.8436 2.7623L36.3138 0.723118C36.102 0.603118 35.8443 0.574993 35.6184 0.638391C36.0526 1.95077 36.2926 3.4114 36.2926 4.95312C36.2926 6.23023 36.1267 7.45448 35.8231 8.58335C36.1161 8.58687 36.402 8.42456 36.6103 8.17062L40.1507 3.90886Z" fill="#4FC122"/>
<path fill-rule="evenodd" clip-rule="evenodd" d="M55.4771 6.73837C55.3677 6.42794 55.3254 6.16333 55.4524 5.88466L56.6349 3.31274C56.8856 2.81177 56.8291 2.6954 56.2643 2.70595L53.3734 2.76243C53.0451 2.76595 53.0027 2.68837 52.7874 2.48024L51.7003 1.42896C51.8627 2.27563 51.9473 3.16474 51.9473 4.08196C51.9473 6.982 51.0896 9.60325 49.7129 11.4731C49.8082 11.6424 49.9671 11.5859 50.2741 11.3531L52.3955 9.71962C52.6145 9.55028 53.0062 9.44446 53.2815 9.48325L55.9324 9.8361C56.4936 9.90665 56.5854 9.81138 56.3843 9.28579L55.4771 6.73837Z" fill="#FDB440"/>
<path fill-rule="evenodd" clip-rule="evenodd" d="M58.7672 24.5156L59.9885 17.3573C60.0909 16.7611 59.4943 16.2566 58.8872 16.2566H56.561C56.6033 16.7011 56.6245 17.1562 56.6245 17.6184C56.6245 20.7124 55.6502 23.4854 54.1113 25.3728C54.2878 25.5246 54.5067 25.6162 54.7679 25.6162H57.666C58.2694 25.6164 58.6648 25.1119 58.7672 24.5156Z" fill="#4FC122"/>
<path fill-rule="evenodd" clip-rule="evenodd" d="M40.8002 59.379L44.2807 55.9004C44.6761 55.5053 44.7361 54.7891 44.2807 54.468L39.0389 50.7566C39.346 51.8891 39.5118 53.1132 39.5118 54.394C39.5118 55.9145 39.2753 57.3574 38.8552 58.6557L39.3671 59.379C39.6882 59.8342 40.4048 59.7742 40.8002 59.379Z" fill="#4FC122"/>
<path fill-rule="evenodd" clip-rule="evenodd" d="M57.7046 50.478L59.6743 48.1107C60.0802 47.652 60.0484 47.5145 59.4553 47.3663L56.402 46.6113C56.0561 46.5266 56.0349 46.4349 55.8655 46.1526L54.323 43.5772C54.0123 43.055 53.8218 43.055 53.5076 43.5772L53.0134 44.4028C53.5006 45.7787 53.7723 47.3274 53.7723 48.9679C53.7723 50.739 53.4546 52.4077 52.8934 53.8612L53.4159 53.6424C53.6983 53.5261 54.136 53.5261 54.4148 53.6424L57.1009 54.7607C57.6657 54.9901 57.7928 54.916 57.7293 54.3092L57.4928 51.3811C57.4646 51.0248 57.4928 50.732 57.7046 50.478Z" fill="#FDB440"/>
</g>
<defs>
<clipPath id="clip0_474_568">
<rect width="60" height="60" fill="white"/>
</clipPath>
</defs>
</svg>
