<svg width="168" height="166" viewBox="0 0 168 166" fill="none" xmlns="http://www.w3.org/2000/svg">
<circle cx="84" cy="103.891" r="62.1088" fill="white"/>
<g clip-path="url(#clip0_252_148)">
<path d="M120.016 51.7527C119.38 36.1643 108.441 16.9078 86.0109 17.0132H83.7196H81.4275C58.9977 16.9078 48.0595 36.1643 47.422 51.7527C46.7815 67.4197 52.2744 85.4903 63.4311 95.0996C68.6623 99.6048 76.5972 101.771 83.7196 101.88C90.8412 101.771 98.7761 99.6044 104.007 95.0996C115.165 85.4903 120.657 67.4197 120.016 51.7527Z" fill="#523E91"/>
<path d="M66.9602 117.791H101.04C93.4888 113.741 95.5237 98.1722 95.5237 98.1722H72.4759C72.4763 98.1726 74.5111 113.741 66.9602 117.791Z" fill="#F9C5B8"/>
<path d="M72.0039 109.877C80.1459 108.954 88.1154 106.243 95.2783 102.236C95.3063 99.8453 95.5237 98.1722 95.5237 98.1722H72.4759C72.4763 98.1726 73.2756 104.307 72.0039 109.877Z" fill="#F5A997"/>
<path d="M123.752 65.2218C123.034 70.7292 119.897 74.8182 116.744 74.3552C113.592 73.8922 111.618 69.0525 112.334 63.5455C113.052 58.0381 116.189 53.9491 119.342 54.4121C122.495 54.8751 124.469 59.7148 123.752 65.2218Z" fill="#F5A997"/>
<path d="M116.7 70.2662C116.272 70.2662 115.883 69.9781 115.776 69.5473C114.991 66.3876 114.633 62.6426 117.943 58.8291C118.287 58.4342 118.887 58.3892 119.285 58.7306C119.683 59.071 119.728 59.668 119.385 60.0636C116.512 63.3742 116.969 66.4611 117.624 69.0946C117.75 69.6011 117.439 70.1135 116.928 70.2383C116.852 70.2577 116.775 70.2662 116.7 70.2662Z" fill="#E9837B"/>
<path d="M119.898 64.7775C119.84 64.7775 119.78 64.772 119.72 64.7611C118.192 64.4723 116.619 64.7585 116.603 64.7611C116.085 64.8566 115.589 64.5199 115.492 64.0067C115.395 63.4943 115.733 63.0006 116.249 62.9032C116.327 62.8886 118.183 62.5467 120.076 62.9032C120.592 63.0006 120.931 63.495 120.833 64.0089C120.746 64.462 120.347 64.7775 119.898 64.7775Z" fill="#E9837B"/>
<path d="M44.2485 65.2218C44.9659 70.7292 48.103 74.8182 51.2559 74.3552C54.4087 73.8922 56.3828 69.0525 55.6661 63.5455C54.9486 58.0381 51.8112 53.9491 48.6583 54.4121C45.5054 54.8751 43.5314 59.7148 44.2485 65.2218Z" fill="#F5A997"/>
<path d="M51.3005 70.2661C51.2253 70.2661 51.1483 70.2577 51.0716 70.2383C50.5612 70.1135 50.2499 69.6011 50.3759 69.0945C51.0307 66.4611 51.4888 63.3742 48.6152 60.0636C48.2718 59.6679 48.3163 59.071 48.7147 58.7306C49.113 58.3898 49.7141 58.4341 50.0571 58.829C53.3666 62.6425 53.0096 66.3875 52.2239 69.5473C52.117 69.9781 51.7279 70.2661 51.3005 70.2661Z" fill="#E9837B"/>
<path d="M48.1015 64.7774C47.653 64.7774 47.254 64.4619 47.1674 64.0088C47.0693 63.4953 47.4084 63.0004 47.925 62.9031C49.818 62.5466 51.6734 62.8884 51.7515 62.9031C52.2678 63.0004 52.6072 63.4949 52.5091 64.0088C52.4107 64.5205 51.9129 64.8598 51.3974 64.7609C51.3708 64.7566 49.8021 64.474 48.2802 64.7609C48.2202 64.7723 48.1605 64.7774 48.1015 64.7774Z" fill="#E9837B"/>
<path d="M115.931 51.3574C115.366 35.6468 105.658 16.2377 85.7518 16.3449H83.7181H81.6836C61.7776 16.2377 52.0702 35.6468 51.5046 51.3574C50.9364 67.1485 55.8113 85.3608 65.7125 95.0458C70.3548 99.5865 77.3969 101.77 83.7181 101.88C90.0386 101.77 97.0806 99.5865 101.723 95.0458C111.625 85.3612 116.499 67.1485 115.931 51.3574Z" fill="#F9C5B8"/>
<path d="M84 118.217C76.4163 117.906 70.3644 114.315 70.3644 114.315L61.7762 119.138L75.104 134.029L84 126.991V118.217Z" fill="#6E85C2"/>
<path d="M84 118.217C91.5837 117.906 97.6356 114.315 97.6356 114.315L106.224 119.138L92.8959 134.029L84 126.991V118.217Z" fill="#6E85C2"/>
<path d="M77.2122 69.9894C77.2122 71.9121 73.7572 73.472 69.4947 73.472C65.2323 73.472 61.7765 71.9121 61.7765 69.9894C61.7765 68.0649 65.2323 66.5054 69.4947 66.5054C73.7572 66.5054 77.2122 68.0649 77.2122 69.9894Z" fill="#F6AFA8"/>
<path d="M105.663 69.9894C105.663 71.9121 102.208 73.472 97.9451 73.472C93.6827 73.472 90.2269 71.9121 90.2269 69.9894C90.2269 68.0649 93.6827 66.5054 97.9451 66.5054C102.208 66.5054 105.663 68.0649 105.663 69.9894Z" fill="#F6AFA8"/>
<path d="M75.3344 52.1842C75.2404 53.0831 74.5259 53.6859 73.7373 53.6105C70.8427 53.3298 67.9647 53.8038 65.3163 54.9977C64.5944 55.3216 63.7222 54.9805 63.3412 54.1595C62.9609 53.3411 63.3161 52.294 64.1651 51.9119C67.2034 50.5426 70.5037 49.9987 73.8239 50.3208C74.7514 50.4101 75.4279 51.2875 75.3344 52.1842Z" fill="#523E91"/>
<path d="M92.1044 52.1842C92.1984 53.0831 92.9129 53.6859 93.7015 53.6105C96.596 53.3298 99.474 53.8038 102.122 54.9977C102.844 55.3216 103.717 54.9805 104.098 54.1595C104.478 53.3411 104.123 52.294 103.274 51.9119C100.235 50.5426 96.9351 49.9987 93.6149 50.3208C92.687 50.4101 92.0104 51.2875 92.1044 52.1842Z" fill="#523E91"/>
<path d="M91.4802 85.0416C90.392 86.7059 87.3323 89.6486 83.7196 89.6486C80.1068 89.6486 77.0464 86.7059 75.9582 85.0416H91.4802Z" fill="white"/>
<path d="M83.4015 81.0503C83.281 81.0503 83.1583 81.0272 83.0397 80.9796C80.9927 80.1433 79.8783 79.2034 79.5327 78.0223C79.0772 76.4638 80.0766 75.0594 81.1345 73.5727C81.7967 72.6416 82.4818 71.679 82.8149 70.6721C82.9789 70.1754 83.5161 69.9031 84.0162 70.0689C84.5151 70.2314 84.7875 70.7654 84.6235 71.2617C84.2012 72.5384 83.3979 73.6675 82.6889 74.6641C81.9032 75.7684 81.1607 76.8115 81.3608 77.4952C81.475 77.8857 81.9847 78.5039 83.7642 79.2305C84.2502 79.4296 84.482 79.9823 84.2823 80.4647C84.1308 80.8303 83.7759 81.0503 83.4015 81.0503Z" fill="#E9837B"/>
<path d="M71.0491 66.5054C72.4507 66.5054 73.5869 64.3794 73.5869 61.7568C73.5869 59.1342 72.4507 57.0082 71.0491 57.0082C69.6475 57.0082 68.5112 59.1342 68.5112 61.7568C68.5112 64.3794 69.6475 66.5054 71.0491 66.5054Z" fill="#2A2D6B"/>
<path d="M96.3897 66.5054C97.7913 66.5054 98.9275 64.3794 98.9275 61.7568C98.9275 59.1342 97.7913 57.0082 96.3897 57.0082C94.9881 57.0082 93.8518 59.1342 93.8518 61.7568C93.8518 64.3794 94.9881 66.5054 96.3897 66.5054Z" fill="#2A2D6B"/>
<path d="M61.7762 18.4099C61.7762 18.4099 44.1011 20.1177 48.6583 54.4121C48.6583 54.4121 52.7376 54.3762 52.6049 68.0148H54.4824C54.4824 68.0148 55.3691 57.5982 55.6948 50.2312C55.6948 50.2312 60.1551 43.0771 64.4761 29.8861L61.7762 18.4099Z" fill="#523E91"/>
<path d="M99.1022 17.0126C99.1022 17.0126 125.573 16.8607 118.955 54.4122C118.955 54.4122 114.876 54.3763 115.008 68.0149H113.131C113.131 68.0149 112.244 57.5983 111.919 50.2313C111.919 50.2313 103.423 45.688 99.1018 32.497V17.0126H99.1022Z" fill="#523E91"/>
<path d="M96.5883 30.5853C105.537 29.0195 121.5 26.4197 121.239 18.9198C114.542 18.3228 117.114 13.9878 113.254 10.7428C110.991 8.841 108.524 10.6293 106.037 9.71869C103.004 8.60786 104.126 7.10978 102.942 4.29151C100.557 -1.38823 96.7335 -0.605702 92.0941 1.91976C86.5784 4.92177 82.7003 5.30535 76.532 5.62232C70.434 5.93599 64.2083 8.16572 59.7958 12.6321C53.339 19.1687 57.0918 28.3929 65.1011 30.3389C75.652 32.9028 85.9505 32.4468 96.5883 30.5853Z" fill="#523E91"/>
</g>
<mask id="mask0_252_148" style="mask-type:alpha" maskUnits="userSpaceOnUse" x="21" y="41" width="126" height="125">
<circle cx="84" cy="103.891" r="62.1088" fill="white"/>
</mask>
<g mask="url(#mask0_252_148)">
<path d="M120.016 51.7527C119.38 36.1643 108.441 16.9078 86.0109 17.0132H83.7195H81.4275C58.9976 16.9078 48.0595 36.1643 47.422 51.7527C46.7815 67.4197 52.2744 85.4903 63.4311 95.0996C68.6623 99.6048 76.5972 101.771 83.7195 101.88C90.8412 101.771 98.7761 99.6044 104.007 95.0996C115.165 85.4903 120.657 67.4197 120.016 51.7527Z" fill="#523E91"/>
<path d="M156.194 166.001C156.861 148.082 145.5 141.192 145.5 141.192L97.6337 114.315H70.3644L22.5 141.192C22.5 141.192 11.1388 148.082 11.8061 166.001H156.194Z" fill="#F9C5B8"/>
<path d="M66.9602 117.791H101.04C93.4888 113.741 95.5237 98.1721 95.5237 98.1721H72.4759C72.4763 98.1725 74.5111 113.741 66.9602 117.791Z" fill="#F9C5B8"/>
<path d="M72.0038 109.877C80.1458 108.954 88.1154 106.243 95.2783 102.236C95.3063 99.8452 95.5237 98.1721 95.5237 98.1721H72.4759C72.4763 98.1725 73.2755 104.307 72.0038 109.877Z" fill="#F5A997"/>
<path d="M123.752 65.2218C123.034 70.7292 119.897 74.8182 116.744 74.3552C113.592 73.8922 111.618 69.0525 112.334 63.5455C113.052 58.0381 116.189 53.9491 119.342 54.4121C122.495 54.8751 124.469 59.7148 123.752 65.2218Z" fill="#F5A997"/>
<path d="M116.7 70.266C116.272 70.266 115.883 69.978 115.776 69.5472C114.991 66.3874 114.633 62.6424 117.943 58.829C118.287 58.4341 118.887 58.389 119.285 58.7305C119.683 59.0709 119.728 59.6679 119.385 60.0635C116.512 63.3741 116.969 66.461 117.624 69.0944C117.75 69.601 117.439 70.1134 116.928 70.2382C116.852 70.2576 116.775 70.266 116.7 70.266Z" fill="#E9837B"/>
<path d="M119.898 64.7774C119.839 64.7774 119.78 64.7719 119.72 64.7609C118.192 64.4722 116.619 64.7584 116.603 64.7609C116.085 64.8565 115.589 64.5197 115.492 64.0066C115.395 63.4942 115.733 63.0004 116.249 62.9031C116.327 62.8884 118.183 62.5466 120.076 62.9031C120.592 63.0004 120.931 63.4949 120.833 64.0088C120.746 64.4619 120.347 64.7774 119.898 64.7774Z" fill="#E9837B"/>
<path d="M44.2485 65.2218C44.9659 70.7292 48.103 74.8182 51.2558 74.3552C54.4087 73.8922 56.3828 69.0525 55.666 63.5455C54.9486 58.0381 51.8112 53.9491 48.6583 54.4121C45.5054 54.8751 43.5314 59.7148 44.2485 65.2218Z" fill="#F5A997"/>
<path d="M51.3004 70.2659C51.2253 70.2659 51.1482 70.2574 51.0716 70.238C50.5612 70.1132 50.2498 69.6008 50.3759 69.0943C51.0307 66.4608 51.4887 63.3739 48.6152 60.0633C48.2717 59.6677 48.3163 59.0707 48.7147 58.7303C49.113 58.3896 49.714 58.4339 50.0571 58.8288C53.3666 62.6423 53.0095 66.3873 52.2239 69.547C52.117 69.9778 51.7279 70.2659 51.3004 70.2659Z" fill="#E9837B"/>
<path d="M48.1015 64.7772C47.653 64.7772 47.2539 64.4617 47.1673 64.0085C47.0693 63.495 47.4083 63.0002 47.925 62.9028C49.818 62.5463 51.6734 62.8882 51.7515 62.9028C52.2677 63.0002 52.6071 63.4947 52.5091 64.0085C52.4107 64.5202 51.9129 64.8595 51.3974 64.7607C51.3708 64.7563 49.8021 64.4737 48.2802 64.7607C48.2201 64.772 48.1605 64.7772 48.1015 64.7772Z" fill="#E9837B"/>
<path d="M115.931 51.3573C115.366 35.6467 105.658 16.2376 85.7518 16.3448H83.7181H81.6836C61.7776 16.2376 52.0702 35.6467 51.5046 51.3573C50.9364 67.1484 55.8112 85.3607 65.7124 95.0457C70.3548 99.5864 77.3968 101.77 83.7181 101.88C90.0386 101.77 97.0806 99.5864 101.723 95.0457C111.625 85.361 116.499 67.1484 115.931 51.3573Z" fill="#F9C5B8"/>
<path d="M97.6337 114.315L145.5 141.192C145.5 141.192 156.861 148.082 156.194 166.001H11.8061C11.1388 148.082 22.5 141.192 22.5 141.192L70.3644 114.315C70.3644 114.315 84.8158 123.128 97.6337 114.315Z" fill="#9E91C6"/>
<path d="M84 118.217C76.4163 117.906 70.3644 114.315 70.3644 114.315L61.7761 119.138L75.104 134.029L84 126.991V118.217Z" fill="#6E85C2"/>
<path d="M84 118.217C91.5837 117.906 97.6356 114.315 97.6356 114.315L106.224 119.138L92.8959 134.029L84 126.991V118.217Z" fill="#6E85C2"/>
<path d="M77.2122 69.9893C77.2122 71.9119 73.7572 73.4719 69.4947 73.4719C65.2323 73.4719 61.7765 71.9119 61.7765 69.9893C61.7765 68.0648 65.2323 66.5052 69.4947 66.5052C73.7572 66.5052 77.2122 68.0648 77.2122 69.9893Z" fill="#F6AFA8"/>
<path d="M105.663 69.9893C105.663 71.9119 102.208 73.4719 97.9451 73.4719C93.6827 73.4719 90.2269 71.9119 90.2269 69.9893C90.2269 68.0648 93.6827 66.5052 97.9451 66.5052C102.208 66.5052 105.663 68.0648 105.663 69.9893Z" fill="#F6AFA8"/>
<path d="M75.3343 52.1839C75.2404 53.0829 74.5258 53.6857 73.7373 53.6103C70.8427 53.3295 67.9647 53.8035 65.3163 54.9974C64.5944 55.3214 63.7222 54.9802 63.3411 54.1593C62.9609 53.3409 63.3161 52.2937 64.1651 51.9116C67.2034 50.5424 70.5037 49.9985 73.8239 50.3206C74.7514 50.4099 75.4279 51.2872 75.3343 52.1839Z" fill="#523E91"/>
<path d="M92.1044 52.1838C92.1984 53.0827 92.9129 53.6856 93.7015 53.6102C96.596 53.3294 99.474 53.8034 102.122 54.9973C102.844 55.3212 103.717 54.9801 104.098 54.1592C104.478 53.3408 104.123 52.2936 103.274 51.9115C100.235 50.5423 96.935 49.9984 93.6149 50.3205C92.687 50.4098 92.0104 51.2871 92.1044 52.1838Z" fill="#523E91"/>
<path d="M91.4801 85.0414C90.392 86.7056 87.3323 89.6483 83.7195 89.6483C80.1068 89.6483 77.0464 86.7056 75.9582 85.0414H91.4801Z" fill="white"/>
<path d="M83.4015 81.0501C83.281 81.0501 83.1583 81.0271 83.0397 80.9795C80.9926 80.1432 79.8783 79.2033 79.5327 78.0221C79.0772 76.4637 80.0766 75.0593 81.1345 73.5726C81.7967 72.6414 82.4818 71.6788 82.8149 70.6719C82.9789 70.1753 83.5161 69.903 84.0162 70.0688C84.5151 70.2313 84.7875 70.7653 84.6235 71.2616C84.2012 72.5382 83.3978 73.6674 82.6889 74.664C81.9032 75.7683 81.1607 76.8114 81.3608 77.4951C81.475 77.8856 81.9846 78.5038 83.7641 79.2303C84.2502 79.4295 84.482 79.9821 84.2822 80.4645C84.1308 80.8302 83.7759 81.0501 83.4015 81.0501Z" fill="#E9837B"/>
<path d="M71.0491 66.5053C72.4507 66.5053 73.5869 64.3792 73.5869 61.7567C73.5869 59.1341 72.4507 57.0081 71.0491 57.0081C69.6474 57.0081 68.5112 59.1341 68.5112 61.7567C68.5112 64.3792 69.6474 66.5053 71.0491 66.5053Z" fill="#2A2D6B"/>
<path d="M96.3897 66.5051C97.7913 66.5051 98.9275 64.3791 98.9275 61.7565C98.9275 59.134 97.7913 57.0079 96.3897 57.0079C94.988 57.0079 93.8518 59.134 93.8518 61.7565C93.8518 64.3791 94.988 66.5051 96.3897 66.5051Z" fill="#2A2D6B"/>
<path d="M61.7761 18.4099C61.7761 18.4099 44.1011 20.1177 48.6583 54.4121C48.6583 54.4121 52.7376 54.3762 52.6049 68.0148H54.4824C54.4824 68.0148 55.369 57.5982 55.6948 50.2312C55.6948 50.2312 60.1551 43.0771 64.4761 29.8861L61.7761 18.4099Z" fill="#523E91"/>
<path d="M99.1022 17.0123C99.1022 17.0123 125.573 16.8604 118.955 54.4119C118.955 54.4119 114.876 54.3761 115.008 68.0147H113.131C113.131 68.0147 112.244 57.598 111.919 50.231C111.919 50.231 103.423 45.6877 99.1018 32.4967V17.0123H99.1022Z" fill="#523E91"/>
</g>
<defs>
<clipPath id="clip0_252_148">
<rect width="167.129" height="166" fill="white" transform="translate(0.435364)"/>
</clipPath>
</defs>
</svg>
