<svg width="126" height="165" viewBox="0 0 126 165" fill="none" xmlns="http://www.w3.org/2000/svg">
<circle cx="63" cy="102.891" r="62.1088" fill="white"/>
<path d="M85.9258 48.5487H63H40.0742C40.0742 48.5487 33.3408 85.5509 33.3408 130.812H63H92.6592C92.6592 85.5509 85.9258 48.5487 85.9258 48.5487Z" fill="url(#paint0_linear_252_292)"/>
<path d="M42.7714 26.9715C42.7714 12.4716 51.765 0 63 0C74.235 0 83.2287 12.4716 83.2287 26.9715H42.7714Z" fill="url(#paint1_linear_252_292)"/>
<path d="M56.2571 17.5316C56.2571 21.2563 59.2766 24.2745 63 24.2745C66.7248 24.2745 69.7429 21.255 69.7429 17.5316C69.7429 13.8095 66.7248 10.7887 63 10.7887C59.2766 10.7887 56.2571 13.8082 56.2571 17.5316Z" fill="url(#paint2_linear_252_292)"/>
<path d="M34.0676 66.6776C35.7695 72.521 33.7993 78.1985 29.6686 79.357C25.5379 80.5167 20.8098 76.7191 19.1079 70.8758C17.406 65.0324 19.3762 59.3549 23.5069 58.1964C27.639 57.038 32.3671 60.8343 34.0676 66.6776Z" fill="url(#paint3_linear_252_292)"/>
<path d="M91.9324 66.6775C90.2305 72.5209 92.2007 78.1984 96.3314 79.3568C100.462 80.5166 105.19 76.719 106.892 70.8756C108.594 65.0323 106.624 59.3547 102.493 58.1963C98.361 57.0379 93.6329 60.8341 91.9324 66.6775Z" fill="url(#paint4_linear_252_292)"/>
<path d="M33.7642 67.5704C34.5855 70.4739 33.2477 73.3666 30.7744 74.0342C28.3011 74.7004 25.6296 72.8879 24.8083 69.9857C23.987 67.0823 25.3248 64.1896 27.7981 63.522C30.2714 62.8545 32.9416 64.667 33.7642 67.5704Z" fill="url(#paint5_linear_252_292)"/>
<path d="M92.2358 67.5704C91.4145 70.4739 92.7523 73.3666 95.2256 74.0342C97.6989 74.7004 100.37 72.8879 101.192 69.9857C102.013 67.0823 100.675 64.1896 98.2019 63.522C95.7286 62.8545 93.0584 64.667 92.2358 67.5704Z" fill="url(#paint6_linear_252_292)"/>
<path d="M63 111.932C48.4111 111.932 27.937 90.7592 27.937 71.4745V60.6859L63 28.3201L98.063 60.7142V71.4745C98.063 90.7592 77.5511 111.932 63 111.932Z" fill="url(#paint7_linear_252_292)"/>
<path d="M49.8689 71.4745H49.1582C47.8703 71.4745 46.8171 70.4213 46.8171 69.132V65.7242C46.8171 64.4376 47.8703 63.3831 49.1596 63.3831H49.8703C51.1581 63.3831 52.2114 64.4376 52.2114 65.7255V69.1334C52.2114 70.4213 51.1581 71.4745 49.8689 71.4745Z" fill="#51251F"/>
<path d="M76.8404 71.4745H76.1297C74.8418 71.4745 73.7886 70.4213 73.7886 69.132V65.7242C73.7886 64.4376 74.8418 63.3831 76.1311 63.3831H76.8418C78.1297 63.3831 79.1829 64.4376 79.1829 65.7255V69.1334C79.1829 70.4213 78.1297 71.4745 76.8404 71.4745Z" fill="#51251F"/>
<path d="M45.4685 59.5034C44.9277 59.5034 44.4166 59.1744 44.2089 58.6376C43.9419 57.9418 44.2898 57.1623 44.9844 56.8953C47.5979 55.8919 51.68 55.9014 54.0832 56.9115C54.7696 57.2014 55.0906 57.993 54.802 58.6795C54.5121 59.3659 53.7191 59.6828 53.034 59.3982C51.2445 58.643 47.9351 58.6498 45.9499 59.4144C45.7922 59.4751 45.629 59.5034 45.4685 59.5034Z" fill="#7A5954"/>
<path d="M72.4401 59.5034C71.8993 59.5034 71.3882 59.1744 71.1805 58.6376C70.9135 57.9418 71.2614 57.1623 71.9559 56.8953C74.5695 55.8919 78.6516 55.9014 81.0548 56.9115C81.7412 57.2014 82.0622 57.993 81.7736 58.6795C81.4836 59.3659 80.6907 59.6828 80.0056 59.3982C78.216 58.643 74.9066 58.6498 72.9215 59.4144C72.7637 59.4751 72.6005 59.5034 72.4401 59.5034Z" fill="#7A5954"/>
<path d="M77.8343 20.2286C77.8343 20.2286 71.314 17.5315 63 17.5315C48.0146 17.5315 27.937 27.1388 27.937 52.5945C27.937 56.6402 27.9357 57.5734 27.9357 62.0345C27.9357 62.0345 61.2927 58.3745 73.7886 40.4573C73.8021 40.4371 73.8142 40.4155 73.8291 40.3939L73.7886 40.4573C73.7886 40.4573 80.3319 52.0483 98.063 60.6859C98.063 60.6859 98.0913 56.0387 98.0913 51.7867C98.0913 41.4485 93.8608 27.105 77.8343 20.2286Z" fill="url(#paint8_linear_252_292)"/>
<path d="M68.3943 148.343H89.9715V156.435H68.3943V148.343Z" fill="url(#paint9_linear_252_292)"/>
<path d="M63 93.0411C60.5807 93.0411 58.4917 92.3884 56.7912 91.0991C56.1978 90.65 56.0818 89.8031 56.5309 89.2098C56.98 88.6164 57.8255 88.4977 58.4203 88.9495C59.6407 89.8746 61.1821 90.3439 63 90.3439C64.8179 90.3439 66.3593 89.8746 67.5798 88.9481C68.1732 88.4991 69.0201 88.6137 69.4691 89.2071C69.9182 89.8004 69.8036 90.646 69.2102 91.0964C67.5097 92.387 65.4207 93.0411 63 93.0411Z" fill="#F09890"/>
<mask id="mask0_252_292" style="mask-type:alpha" maskUnits="userSpaceOnUse" x="0" y="40" width="126" height="125">
<circle cx="63" cy="102.891" r="62.1088" fill="white"/>
</mask>
<g mask="url(#mask0_252_292)">
<path d="M85.9258 48.5488H63H40.0742C40.0742 48.5488 33.3408 85.5511 33.3408 130.812H63H92.6592C92.6592 85.5511 85.9258 48.5488 85.9258 48.5488Z" fill="url(#paint10_linear_252_292)"/>
<path d="M76.4858 126.766L75.1372 107.886H50.8628L49.5142 126.766C11.8876 126.766 11.7541 164.526 11.7541 164.526H114.246C114.246 164.526 114.112 126.766 76.4858 126.766Z" fill="url(#paint11_linear_252_292)"/>
<path d="M34.0676 66.6778C35.7695 72.5211 33.7993 78.1986 29.6686 79.3571C25.5379 80.5169 20.8098 76.7193 19.1079 70.8759C17.406 65.0325 19.3762 59.355 23.5069 58.1966C27.639 57.0381 32.3671 60.8344 34.0676 66.6778Z" fill="url(#paint12_linear_252_292)"/>
<path d="M91.9324 66.6776C90.2305 72.521 92.2007 78.1985 96.3314 79.357C100.462 80.5167 105.19 76.7191 106.892 70.8758C108.594 65.0324 106.624 59.3549 102.493 58.1964C98.361 57.038 93.6329 60.8343 91.9324 66.6776Z" fill="url(#paint13_linear_252_292)"/>
<path d="M33.7642 67.5706C34.5855 70.4741 33.2477 73.3667 30.7744 74.0343C28.3011 74.7005 25.6296 72.888 24.8083 69.9859C23.987 67.0824 25.3248 64.1897 27.7981 63.5221C30.2714 62.8546 32.9416 64.6671 33.7642 67.5706Z" fill="url(#paint14_linear_252_292)"/>
<path d="M92.2358 67.5706C91.4145 70.4741 92.7523 73.3667 95.2256 74.0343C97.6989 74.7005 100.37 72.888 101.192 69.9859C102.013 67.0824 100.675 64.1897 98.2019 63.5221C95.7286 62.8546 93.0584 64.6671 92.2358 67.5706Z" fill="url(#paint15_linear_252_292)"/>
<path d="M63 111.932C48.4111 111.932 27.937 90.7593 27.937 71.4746V60.686L63 28.3202L98.063 60.7143V71.4746C98.063 90.7593 77.5511 111.932 63 111.932Z" fill="url(#paint16_linear_252_292)"/>
<path d="M49.8689 71.4746H49.1582C47.8703 71.4746 46.8171 70.4214 46.8171 69.1322V65.7243C46.8171 64.4378 47.8703 63.3832 49.1596 63.3832H49.8703C51.1581 63.3832 52.2114 64.4378 52.2114 65.7257V69.1335C52.2114 70.4214 51.1581 71.4746 49.8689 71.4746Z" fill="#51251F"/>
<path d="M76.8404 71.4746H76.1297C74.8418 71.4746 73.7886 70.4214 73.7886 69.1322V65.7243C73.7886 64.4378 74.8418 63.3832 76.1311 63.3832H76.8418C78.1297 63.3832 79.1829 64.4378 79.1829 65.7257V69.1335C79.1829 70.4214 78.1297 71.4746 76.8404 71.4746Z" fill="#51251F"/>
<path d="M45.4685 59.5036C44.9277 59.5036 44.4166 59.1745 44.2089 58.6378C43.9419 57.9419 44.2898 57.1624 44.9844 56.8954C47.5979 55.8921 51.68 55.9015 54.0832 56.9116C54.7696 57.2015 55.0906 57.9932 54.802 58.6796C54.5121 59.366 53.7191 59.6829 53.034 59.3984C51.2445 58.6432 47.9351 58.6499 45.9499 59.4146C45.7922 59.4752 45.629 59.5036 45.4685 59.5036Z" fill="#7A5954"/>
<path d="M72.4401 59.5036C71.8993 59.5036 71.3882 59.1745 71.1805 58.6378C70.9135 57.9419 71.2614 57.1624 71.9559 56.8954C74.5695 55.8921 78.6516 55.9015 81.0548 56.9116C81.7412 57.2015 82.0622 57.9932 81.7736 58.6796C81.4836 59.366 80.6907 59.6829 80.0056 59.3984C78.216 58.6432 74.9066 58.6499 72.9215 59.4146C72.7637 59.4752 72.6005 59.5036 72.4401 59.5036Z" fill="#7A5954"/>
<path d="M77.8343 20.2288C77.8343 20.2288 71.314 17.5316 63 17.5316C48.0146 17.5316 27.937 27.1389 27.937 52.5946C27.937 56.6403 27.9357 57.5735 27.9357 62.0346C27.9357 62.0346 61.2927 58.3746 73.7886 40.4574C73.8021 40.4372 73.8142 40.4156 73.8291 40.394L73.7886 40.4574C73.7886 40.4574 80.3319 52.0484 98.063 60.6861C98.063 60.6861 98.0913 56.0389 98.0913 51.7868C98.0913 41.4486 93.8608 27.1052 77.8343 20.2288Z" fill="url(#paint17_linear_252_292)"/>
<path d="M76.4858 126.766L63 136.206L49.5142 126.766C20.826 126.766 13.9401 148.704 12.2841 159.132H26.8015C27.0604 160.968 27.5581 162.768 28.3281 164.526H97.6719C98.4419 162.768 98.9396 160.968 99.1985 159.132H113.716C112.06 148.704 105.173 126.766 76.4858 126.766Z" fill="url(#paint18_linear_252_292)"/>
<path d="M29.2856 156.435C29.2856 153.906 29.8115 151.468 30.8499 149.185L30.9727 148.919C31.2909 148.246 31.0023 147.442 30.3294 147.124C29.6564 146.807 28.8527 147.096 28.5331 147.769L28.3928 148.072C27.1953 150.705 26.5884 153.519 26.5884 156.435C26.5884 159.23 27.1872 161.945 28.3227 164.526H31.3152C31.21 164.36 31.1035 164.177 30.9956 163.946C29.8803 161.553 29.2856 159.035 29.2856 156.435ZM97.6058 148.071L97.4656 147.767C97.146 147.094 96.3422 146.806 95.6693 147.123C94.9963 147.441 94.7077 148.245 95.026 148.918L95.1487 149.183C96.1885 151.468 96.7144 153.906 96.7144 156.435C96.7144 159.035 96.1197 161.553 95.0044 163.946C94.8979 164.177 94.79 164.36 94.6848 164.526H97.6773C98.8114 161.945 99.4116 159.23 99.4116 156.435C99.4116 153.519 98.8047 150.705 97.6058 148.071Z" fill="url(#paint19_linear_252_292)"/>
<path d="M68.3943 148.344H89.9715V156.435H68.3943V148.344Z" fill="url(#paint20_linear_252_292)"/>
<path d="M63 93.0412C60.5807 93.0412 58.4917 92.3885 56.7912 91.0992C56.1978 90.6502 56.0818 89.8033 56.5309 89.2099C56.98 88.6165 57.8255 88.4978 58.4203 88.9496C59.6407 89.8747 61.1821 90.344 63 90.344C64.8179 90.344 66.3593 89.8747 67.5798 88.9483C68.1732 88.4992 69.0201 88.6138 69.4691 89.2072C69.9182 89.8006 69.8036 90.6461 69.2102 91.0965C67.5097 92.3871 65.4207 93.0412 63 93.0412Z" fill="#F09890"/>
</g>
<defs>
<linearGradient id="paint0_linear_252_292" x1="63" y1="48.5487" x2="63" y2="130.812" gradientUnits="userSpaceOnUse">
<stop stop-color="#AC766A"/>
<stop offset="1" stop-color="#93634D"/>
</linearGradient>
<linearGradient id="paint1_linear_252_292" x1="53.5384" y1="3.70319" x2="65.3452" y2="27.8171" gradientUnits="userSpaceOnUse">
<stop stop-color="#AC766A"/>
<stop offset="1" stop-color="#93634D"/>
</linearGradient>
<linearGradient id="paint2_linear_252_292" x1="63" y1="10.7887" x2="63" y2="24.2745" gradientUnits="userSpaceOnUse">
<stop stop-color="#F1F2F2"/>
<stop offset="1" stop-color="#E6E7E8"/>
</linearGradient>
<linearGradient id="paint3_linear_252_292" x1="18.497" y1="68.7774" x2="34.6799" y2="68.7774" gradientUnits="userSpaceOnUse">
<stop stop-color="#F9DDD1"/>
<stop offset="0.5137" stop-color="#F8DBCE"/>
<stop offset="0.8222" stop-color="#F6D3C6"/>
<stop offset="1" stop-color="#F4CABD"/>
</linearGradient>
<linearGradient id="paint4_linear_252_292" x1="107.503" y1="68.7772" x2="91.3201" y2="68.7772" gradientUnits="userSpaceOnUse">
<stop stop-color="#F9DDD1"/>
<stop offset="0.5137" stop-color="#F8DBCE"/>
<stop offset="0.8222" stop-color="#F6D3C6"/>
<stop offset="1" stop-color="#F4CABD"/>
</linearGradient>
<linearGradient id="paint5_linear_252_292" x1="24.5699" y1="70.0163" x2="33.5128" y2="67.5486" gradientUnits="userSpaceOnUse">
<stop stop-color="#F7D0BF"/>
<stop offset="1" stop-color="#F1BEAE"/>
</linearGradient>
<linearGradient id="paint6_linear_252_292" x1="101.562" y1="68.418" x2="92.6205" y2="65.9507" gradientUnits="userSpaceOnUse">
<stop stop-color="#F7D0BF"/>
<stop offset="1" stop-color="#F1BEAE"/>
</linearGradient>
<linearGradient id="paint7_linear_252_292" x1="38.8888" y1="49.7341" x2="87.0896" y2="97.9349" gradientUnits="userSpaceOnUse">
<stop stop-color="#F9DDD1"/>
<stop offset="0.5137" stop-color="#F8DBCE"/>
<stop offset="0.8222" stop-color="#F6D3C6"/>
<stop offset="1" stop-color="#F4CABD"/>
</linearGradient>
<linearGradient id="paint8_linear_252_292" x1="37.4472" y1="30.699" x2="93.0881" y2="67.0876" gradientUnits="userSpaceOnUse">
<stop stop-color="#AC766A"/>
<stop offset="1" stop-color="#93634D"/>
</linearGradient>
<linearGradient id="paint9_linear_252_292" x1="79.1829" y1="148.343" x2="79.1829" y2="156.435" gradientUnits="userSpaceOnUse">
<stop stop-color="#F1F2F2"/>
<stop offset="1" stop-color="#E6E7E8"/>
</linearGradient>
<linearGradient id="paint10_linear_252_292" x1="63" y1="48.5488" x2="63" y2="130.812" gradientUnits="userSpaceOnUse">
<stop stop-color="#AC766A"/>
<stop offset="1" stop-color="#93634D"/>
</linearGradient>
<linearGradient id="paint11_linear_252_292" x1="63" y1="109.02" x2="63" y2="165.286" gradientUnits="userSpaceOnUse">
<stop offset="0.0132" stop-color="#EEAE9A"/>
<stop offset="0.0182" stop-color="#EEAF9B"/>
<stop offset="0.13" stop-color="#F4C8B9"/>
<stop offset="0.2266" stop-color="#F8D8CB"/>
<stop offset="0.2963" stop-color="#F9DDD1"/>
<stop offset="0.6578" stop-color="#F8DBCE"/>
<stop offset="0.8749" stop-color="#F6D3C6"/>
<stop offset="1" stop-color="#F4CABD"/>
</linearGradient>
<linearGradient id="paint12_linear_252_292" x1="18.497" y1="68.7775" x2="34.6799" y2="68.7775" gradientUnits="userSpaceOnUse">
<stop stop-color="#F9DDD1"/>
<stop offset="0.5137" stop-color="#F8DBCE"/>
<stop offset="0.8222" stop-color="#F6D3C6"/>
<stop offset="1" stop-color="#F4CABD"/>
</linearGradient>
<linearGradient id="paint13_linear_252_292" x1="107.503" y1="68.7774" x2="91.3201" y2="68.7774" gradientUnits="userSpaceOnUse">
<stop stop-color="#F9DDD1"/>
<stop offset="0.5137" stop-color="#F8DBCE"/>
<stop offset="0.8222" stop-color="#F6D3C6"/>
<stop offset="1" stop-color="#F4CABD"/>
</linearGradient>
<linearGradient id="paint14_linear_252_292" x1="24.5699" y1="70.0164" x2="33.5128" y2="67.5487" gradientUnits="userSpaceOnUse">
<stop stop-color="#F7D0BF"/>
<stop offset="1" stop-color="#F1BEAE"/>
</linearGradient>
<linearGradient id="paint15_linear_252_292" x1="101.562" y1="68.4181" x2="92.6205" y2="65.9508" gradientUnits="userSpaceOnUse">
<stop stop-color="#F7D0BF"/>
<stop offset="1" stop-color="#F1BEAE"/>
</linearGradient>
<linearGradient id="paint16_linear_252_292" x1="38.8888" y1="49.7342" x2="87.0896" y2="97.935" gradientUnits="userSpaceOnUse">
<stop stop-color="#F9DDD1"/>
<stop offset="0.5137" stop-color="#F8DBCE"/>
<stop offset="0.8222" stop-color="#F6D3C6"/>
<stop offset="1" stop-color="#F4CABD"/>
</linearGradient>
<linearGradient id="paint17_linear_252_292" x1="37.4472" y1="30.6991" x2="93.0881" y2="67.0878" gradientUnits="userSpaceOnUse">
<stop stop-color="#AC766A"/>
<stop offset="1" stop-color="#93634D"/>
</linearGradient>
<linearGradient id="paint18_linear_252_292" x1="63" y1="126.766" x2="63" y2="164.526" gradientUnits="userSpaceOnUse">
<stop stop-color="#FFD486"/>
<stop offset="1" stop-color="#FFB76A"/>
</linearGradient>
<linearGradient id="paint19_linear_252_292" x1="63" y1="116.881" x2="63" y2="136.248" gradientUnits="userSpaceOnUse">
<stop stop-color="#FFD486"/>
<stop offset="1" stop-color="#FFB76A"/>
</linearGradient>
<linearGradient id="paint20_linear_252_292" x1="79.1829" y1="148.344" x2="79.1829" y2="156.435" gradientUnits="userSpaceOnUse">
<stop stop-color="#F1F2F2"/>
<stop offset="1" stop-color="#E6E7E8"/>
</linearGradient>
</defs>
</svg>
