<svg width="168" height="166" viewBox="0 0 168 166" fill="none" xmlns="http://www.w3.org/2000/svg">
<circle cx="84" cy="103.891" r="62.1088" fill="white"/>
<path d="M102.867 17.6945C102.867 17.9862 102.86 18.2738 102.845 18.5618C102.395 27.935 94.653 35.3922 85.1733 35.3922C75.6897 35.3922 67.948 27.9342 67.4977 18.5618C67.4827 18.2738 67.4755 17.9862 67.4755 17.6945C67.4755 7.92295 75.3984 0.000488335 85.1733 0.000488335C94.9448 -0.000264536 102.867 7.92295 102.867 17.6945Z" fill="#E6E6E6"/>
<path d="M74.4882 17.6951C74.4882 9.12253 80.5845 1.97516 88.6779 0.34858C87.5445 0.120837 86.3726 0 85.1725 0C75.3999 0 67.4774 7.92246 67.4774 17.6951C67.4774 27.4677 75.3999 35.3902 85.1725 35.3902C86.3726 35.3902 87.5448 35.2694 88.6779 35.0416C80.5842 33.415 74.4882 26.2677 74.4882 17.6951Z" fill="#D3D3D3"/>
<path d="M110.55 109.523L97.6276 118.91C90.1998 124.305 80.1437 124.305 72.7197 118.91L59.7963 109.523C60.9696 109.105 62.1802 108.77 63.427 108.526H106.919C108.166 108.77 109.377 109.105 110.55 109.523Z" fill="#E54E5C"/>
<path d="M46.8262 76.9711C42.2502 76.7679 38.6082 72.9926 38.6082 68.3692C38.6082 63.6163 42.4607 59.7601 47.2173 59.7601C47.6453 59.7601 48.0658 59.7895 48.4791 59.8524" fill="#E0B394"/>
<path d="M123.514 76.9713C128.09 76.7684 131.736 72.9935 131.736 68.3693C131.736 63.6165 127.88 59.7603 123.123 59.7603C122.695 59.7603 122.27 59.7934 121.861 59.8525" fill="#E0B394"/>
<path d="M101.232 100.744V121.242C101.232 130.114 94.0401 137.302 85.1732 137.302C76.3021 137.302 69.1141 130.114 69.1141 121.242V100.744H101.232Z" fill="#F7CBA4"/>
<path d="M101.232 100.744V116.29L97.6268 118.91C90.199 124.309 80.1429 124.309 72.7188 118.91L69.1133 116.29V100.744H101.232Z" fill="#E0B394"/>
<path d="M72.7177 114.184L57.57 103.178C49.5655 97.3625 45.2353 87.7457 46.1866 77.897L48.8137 50.7086C50.6233 31.9832 66.359 17.6948 85.1717 17.6948C103.984 17.6948 119.721 31.9832 121.53 50.7086L124.157 77.897C125.109 87.7453 120.778 97.3625 112.773 103.178L97.6257 114.184C90.1998 119.58 80.1441 119.58 72.7177 114.184Z" fill="#F7CBA4"/>
<path d="M55.6129 83.2552C55.3581 87.5616 56.7603 91.798 59.5354 95.1005L75.3671 114.555C76.1938 115.54 77.1311 116.367 78.1456 117.027C76.2412 116.363 74.4114 115.411 72.7174 114.182L57.5693 103.178C49.5655 97.3621 45.2369 87.7461 46.1889 77.897L48.8126 50.7082C50.606 32.1654 66.053 17.9734 84.6252 17.7039C73.1861 17.9809 60.2329 28.7635 59.5576 40.2471L55.6129 83.2552Z" fill="#E0B394"/>
<path d="M102.845 18.5609C102.395 27.9342 94.6531 35.3913 85.1733 35.3913C75.6898 35.3913 67.948 27.9334 67.4978 18.5609C72.5126 15.7858 78.2322 14.1589 84.2951 14.0147C84.4057 14.0109 84.5164 14.0109 84.6271 14.0109C84.8078 14.0038 84.9888 14.0038 85.1733 14.0038C91.561 14.0042 97.5938 15.6496 102.845 18.5609Z" fill="#D3D3D3"/>
<path d="M121.971 55.2456C104.52 55.2456 94.7712 36.6772 94.7712 36.6772C94.7712 36.6772 86.6233 51.7512 58.5341 51.3932C55.5263 51.3563 52.2977 51.1383 48.8179 50.7103H48.8141C50.5965 32.2744 65.8738 18.1411 84.2947 17.706C84.4053 17.7022 84.516 17.7022 84.6267 17.7022C84.8074 17.6951 84.9884 17.6951 85.1729 17.6951C94.5792 17.6951 103.218 21.2674 109.727 27.1786C116.24 33.0939 120.628 41.345 121.532 50.7103L121.971 55.2456Z" fill="#E6E6E6"/>
<path d="M84.627 17.7024C73.1875 17.9791 60.2318 28.7617 59.5564 40.2452L58.5344 51.393C55.5267 51.3561 52.298 51.1381 48.8182 50.7101H48.8145C50.5969 32.2742 65.8742 18.1409 84.295 17.7058C84.4053 17.7024 84.5164 17.7024 84.627 17.7024Z" fill="#D3D3D3"/>
<path d="M101.145 85.9612C106.852 85.9612 111.478 81.3352 111.478 75.6288C111.478 69.9224 106.852 65.2964 101.145 65.2964C95.4389 65.2964 90.8129 69.9224 90.8129 75.6288C90.8129 81.3352 95.4389 85.9612 101.145 85.9612Z" fill="#D7E9F4"/>
<path d="M69.2007 85.9612C74.9071 85.9612 79.5331 81.3352 79.5331 75.6288C79.5331 69.9224 74.9071 65.2964 69.2007 65.2964C63.4943 65.2964 58.8683 69.9224 58.8683 75.6288C58.8683 81.3352 63.4943 85.9612 69.2007 85.9612Z" fill="#D7E9F4"/>
<path d="M103.356 75.9982H98.93C97.7073 75.9982 96.7158 75.0067 96.7158 73.784C96.7158 72.5614 97.7073 71.5698 98.93 71.5698H103.356C104.579 71.5698 105.571 72.5614 105.571 73.784C105.571 75.0071 104.579 75.9982 103.356 75.9982Z" fill="#B6CDD8"/>
<path d="M71.4142 75.9982H66.9877C65.765 75.9982 64.7735 75.0067 64.7735 73.784C64.7735 72.5614 65.765 71.5698 66.9877 71.5698H71.4142C72.6368 71.5698 73.6284 72.5614 73.6284 73.784C73.6284 75.0071 72.6368 75.9982 71.4142 75.9982Z" fill="#B6CDD8"/>
<path d="M82.2464 90.7664L87.0505 89.4866C88.5299 89.0924 89.41 87.5735 89.0158 86.0934L85.742 73.8065" fill="#E0B394"/>
<path d="M124.376 64.4984C123.71 63.7271 122.545 63.6412 121.774 64.3068L112.787 72.0614C111.258 67.0822 106.617 63.4519 101.143 63.4519C95.0562 63.4519 89.9976 67.942 89.1058 73.7843H81.2387C80.3473 67.942 75.2884 63.4519 69.2011 63.4519C63.7277 63.4519 59.087 67.0822 57.5579 72.0614L48.5705 64.3068C47.7992 63.6409 46.6338 63.7267 45.9686 64.4984C45.3027 65.2701 45.3885 66.4352 46.1602 67.1007L57.0588 76.5041C57.509 82.8112 62.781 87.8065 69.2014 87.8065C75.2888 87.8065 80.3473 83.3164 81.2391 77.4741H89.1062C89.9976 83.3164 95.0565 87.8065 101.144 87.8065C107.564 87.8065 112.836 82.8112 113.287 76.5041L124.185 67.1007C124.956 66.4352 125.042 65.2701 124.376 64.4984ZM69.2007 84.1163C64.5208 84.1163 60.7136 80.3091 60.7136 75.6292C60.7136 70.9494 64.5208 67.1421 69.2007 67.1421C73.8805 67.1421 77.6878 70.9494 77.6878 75.6292C77.6878 80.3091 73.8805 84.1163 69.2007 84.1163ZM101.143 84.1163C96.4633 84.1163 92.656 80.3091 92.656 75.6292C92.656 70.9494 96.4633 67.1421 101.143 67.1421C105.823 67.1421 109.63 70.9494 109.63 75.6292C109.63 80.3091 105.823 84.1163 101.143 84.1163Z" fill="#ED7C58"/>
<path d="M75.1163 95.5317C77.2503 96.0173 78.93 96.4009 80.56 96.6076C82.1726 96.8248 83.6682 96.9302 85.1717 96.9298C86.6748 96.9242 88.1692 96.8188 89.7804 96.6004C91.4092 96.393 93.0885 96.0124 95.2274 95.5321C94.7282 97.68 93.259 99.4132 91.4465 100.628C89.6189 101.835 87.3923 102.468 85.1721 102.465C82.9518 102.462 80.7267 101.83 78.9006 100.62C77.0896 99.4049 75.6208 97.6744 75.1163 95.5317Z" fill="#4D4D4D"/>
<mask id="mask0_252_160" style="mask-type:alpha" maskUnits="userSpaceOnUse" x="21" y="41" width="126" height="125">
<circle cx="84" cy="103.891" r="62.1088" fill="white"/>
</mask>
<g mask="url(#mask0_252_160)">
<path d="M127.24 133.224V166.461H43.1059V133.224C43.1059 122.301 50.0692 112.999 59.7966 109.523C60.97 109.106 62.1806 108.77 63.4274 108.527H106.919C108.166 108.77 109.376 109.106 110.55 109.523C120.277 112.999 127.24 122.302 127.24 133.224Z" fill="#FD5D65"/>
<path d="M74.1275 108.527H63.4262C51.8467 110.782 43.1047 120.985 43.1047 133.225V166.462H53.806V133.225C53.806 120.985 62.548 110.782 74.1275 108.527Z" fill="#E54E5C"/>
<path d="M110.55 109.523L97.6276 118.91C90.1998 124.305 80.1437 124.305 72.7196 118.91L59.7962 109.523C60.9696 109.106 62.1802 108.77 63.427 108.527H106.919C108.166 108.77 109.377 109.106 110.55 109.523Z" fill="#E54E5C"/>
<path d="M46.8262 76.9713C42.2502 76.768 38.6082 72.9927 38.6082 68.3693C38.6082 63.6165 42.4607 59.7603 47.2173 59.7603C47.6453 59.7603 48.0658 59.7896 48.4791 59.8525" fill="#E0B394"/>
<path d="M123.514 76.9714C128.09 76.7685 131.736 72.9936 131.736 68.3695C131.736 63.6166 127.88 59.7604 123.123 59.7604C122.695 59.7604 122.27 59.7935 121.861 59.8526" fill="#E0B394"/>
<path d="M101.232 100.744V121.242C101.232 130.114 94.0401 137.302 85.1732 137.302C76.3021 137.302 69.1141 130.114 69.1141 121.242V100.744H101.232Z" fill="#F7CBA4"/>
<path d="M101.232 100.744V116.29L97.6268 118.91C90.199 124.309 80.1429 124.309 72.7188 118.91L69.1133 116.29V100.744H101.232Z" fill="#E0B394"/>
<path d="M72.7177 114.184L57.57 103.179C49.5655 97.3626 45.2353 87.7458 46.1866 77.8971L48.8137 50.7087C50.6233 31.9833 66.359 17.6949 85.1717 17.6949C103.984 17.6949 119.721 31.9833 121.53 50.7087L124.157 77.8971C125.109 87.7454 120.778 97.3626 112.773 103.179L97.6257 114.184C90.1998 119.58 80.1441 119.58 72.7177 114.184Z" fill="#F7CBA4"/>
<path d="M55.6129 83.2553C55.3581 87.5617 56.7603 91.7981 59.5354 95.1006L75.3671 114.555C76.1938 115.54 77.1311 116.367 78.1456 117.027C76.2412 116.363 74.4114 115.411 72.7174 114.182L57.5693 103.178C49.5655 97.3622 45.2369 87.7462 46.1889 77.8971L48.8126 50.7083C50.606 32.1655 66.053 17.9735 84.6252 17.704C73.1861 17.981 60.2329 28.7637 59.5576 40.2472L55.6129 83.2553Z" fill="#E0B394"/>
<path d="M121.971 55.2457C104.52 55.2457 94.7712 36.6773 94.7712 36.6773C94.7712 36.6773 86.6233 51.7513 58.5341 51.3933C55.5263 51.3564 52.2977 51.1385 48.8179 50.7105H48.8141C50.5965 32.2745 65.8738 18.1413 84.2947 17.7061C84.4053 17.7023 84.516 17.7023 84.6267 17.7023C84.8074 17.6952 84.9884 17.6952 85.1729 17.6952C94.5792 17.6952 103.218 21.2676 109.727 27.1787C116.24 33.094 120.628 41.3451 121.532 50.7105L121.971 55.2457Z" fill="#E6E6E6"/>
<path d="M84.627 17.7025C73.1875 17.9792 60.2318 28.7618 59.5564 40.2453L58.5344 51.3931C55.5267 51.3562 52.298 51.1383 48.8182 50.7103H48.8145C50.5969 32.2743 65.8742 18.1411 84.295 17.7059C84.4053 17.7025 84.5164 17.7025 84.627 17.7025Z" fill="#D3D3D3"/>
<path d="M101.145 85.9613C106.852 85.9613 111.478 81.3353 111.478 75.6289C111.478 69.9225 106.852 65.2965 101.145 65.2965C95.4389 65.2965 90.8129 69.9225 90.8129 75.6289C90.8129 81.3353 95.4389 85.9613 101.145 85.9613Z" fill="#D7E9F4"/>
<path d="M69.2007 85.9613C74.9071 85.9613 79.5331 81.3353 79.5331 75.6289C79.5331 69.9225 74.9071 65.2965 69.2007 65.2965C63.4943 65.2965 58.8683 69.9225 58.8683 75.6289C58.8683 81.3353 63.4943 85.9613 69.2007 85.9613Z" fill="#D7E9F4"/>
<path d="M103.356 75.9983H98.93C97.7073 75.9983 96.7158 75.0068 96.7158 73.7841C96.7158 72.5615 97.7073 71.5699 98.93 71.5699H103.356C104.579 71.5699 105.571 72.5615 105.571 73.7841C105.571 75.0072 104.579 75.9983 103.356 75.9983Z" fill="#B6CDD8"/>
<path d="M71.4142 75.9983H66.9877C65.765 75.9983 64.7735 75.0068 64.7735 73.7841C64.7735 72.5615 65.765 71.5699 66.9877 71.5699H71.4142C72.6368 71.5699 73.6284 72.5615 73.6284 73.7841C73.6284 75.0072 72.6368 75.9983 71.4142 75.9983Z" fill="#B6CDD8"/>
<path d="M82.2464 90.7666L87.0505 89.4867C88.5299 89.0926 89.41 87.5736 89.0158 86.0935L85.742 73.8066" fill="#E0B394"/>
<path d="M124.376 64.4985C123.71 63.7272 122.545 63.6414 121.774 64.3069L112.787 72.0615C111.258 67.0824 106.617 63.452 101.143 63.452C95.0562 63.452 89.9976 67.9421 89.1058 73.7844H81.2387C80.3473 67.9421 75.2884 63.452 69.2011 63.452C63.7277 63.452 59.087 67.0824 57.5579 72.0615L48.5705 64.3069C47.7992 63.641 46.6338 63.7268 45.9686 64.4985C45.3027 65.2702 45.3885 66.4353 46.1602 67.1008L57.0588 76.5042C57.509 82.8113 62.781 87.8066 69.2014 87.8066C75.2888 87.8066 80.3473 83.3165 81.2391 77.4742H89.1062C89.9976 83.3165 95.0565 87.8066 101.144 87.8066C107.564 87.8066 112.836 82.8113 113.287 76.5042L124.185 67.1008C124.956 66.4353 125.042 65.2702 124.376 64.4985ZM69.2007 84.1164C64.5208 84.1164 60.7136 80.3092 60.7136 75.6293C60.7136 70.9495 64.5208 67.1422 69.2007 67.1422C73.8805 67.1422 77.6878 70.9495 77.6878 75.6293C77.6878 80.3092 73.8805 84.1164 69.2007 84.1164ZM101.143 84.1164C96.4633 84.1164 92.656 80.3092 92.656 75.6293C92.656 70.9495 96.4633 67.1422 101.143 67.1422C105.823 67.1422 109.63 70.9495 109.63 75.6293C109.63 80.3092 105.823 84.1164 101.143 84.1164Z" fill="#ED7C58"/>
<path d="M62.6598 166.461H57.1243L59.8922 131.302L62.6598 166.461Z" fill="#E54E5C"/>
<path d="M113.214 166.461H107.679L110.447 131.302L113.214 166.461Z" fill="#E54E5C"/>
<path d="M75.1163 95.5319C77.2503 96.0175 78.93 96.4011 80.56 96.6077C82.1726 96.8249 83.6682 96.9303 85.1717 96.9299C86.6748 96.9243 88.1692 96.8189 89.7804 96.6006C91.4092 96.3931 93.0885 96.0126 95.2274 95.5322C94.7282 97.6802 93.259 99.4133 91.4465 100.628C89.6189 101.835 87.3923 102.468 85.1721 102.465C82.9518 102.462 80.7267 101.83 78.9006 100.62C77.0896 99.405 75.6208 97.6745 75.1163 95.5319Z" fill="#4D4D4D"/>
</g>
</svg>
