<svg width="572" height="442" viewBox="0 0 572 442" fill="none" xmlns="http://www.w3.org/2000/svg">
<path d="M119.5 186.785C25.6382 207.655 -36 303.285 25.6382 369.297C87.2764 435.309 421.616 477.626 480.148 398.734C538.681 319.843 473.077 112.997 361.119 99.2601C249.161 85.5228 213.362 165.916 119.5 186.785Z" fill="#FAAFFF"/>
<path fill-rule="evenodd" clip-rule="evenodd" d="M371.049 187.125C356.35 184.115 360.27 186.565 346.62 180.405C332.131 173.895 306.932 156.186 295.382 144.636C287.963 138.407 277.603 147.156 287.613 159.616C296.502 170.675 339.9 188.664 354.81 191.184C356.7 191.534 360.2 194.474 361.18 194.684C370.559 196.504 373.149 187.545 371.049 187.125Z" fill="#FCD1C0"/>
<path fill-rule="evenodd" clip-rule="evenodd" d="M283.553 124.897C272.913 124.897 268.713 131.547 270.813 141.906C272.423 149.886 284.883 160.736 290.483 165.775C297.412 161.576 304.412 155.346 305.952 147.786C300.772 141.976 290.483 124.897 283.553 124.897Z" fill="#E3813F"/>
<path fill-rule="evenodd" clip-rule="evenodd" d="M240.365 185.865C236.935 187.055 233.785 188.034 230.005 187.894C227.625 187.825 226.925 191.954 230.635 194.264C233.365 195.944 243.304 197.134 243.934 193.424C244.704 188.944 242.254 189.014 240.855 185.865H240.365Z" fill="#FCD1C0"/>
<path fill-rule="evenodd" clip-rule="evenodd" d="M434.676 196.014C420.537 200.704 450.006 216.803 445.316 201.824C444.756 200.074 436.356 196.504 434.676 196.014Z" fill="#FCD1C0"/>
<path fill-rule="evenodd" clip-rule="evenodd" d="M301.192 409.785C296.712 416.715 288.593 417.275 281.383 418.465C277.813 419.095 274.873 424.275 275.013 427.704C275.293 435.544 302.522 434.564 308.122 433.444C314.912 432.044 322.821 433.724 322.821 425.115C322.821 421.265 323.381 415.665 321.491 412.445C318.271 407.195 304.762 409.785 301.192 409.785Z" fill="#996633"/>
<path fill-rule="evenodd" clip-rule="evenodd" d="M400.798 418.465C393.588 417.275 385.468 416.645 380.989 409.785C377.419 409.785 363.839 407.195 360.76 412.445C358.87 415.665 359.43 421.265 359.43 425.115C359.43 433.724 367.269 432.044 374.129 433.444C379.659 434.564 406.888 435.544 407.238 427.704C407.308 424.275 404.438 419.095 400.798 418.465Z" fill="#996633"/>
<path fill-rule="evenodd" clip-rule="evenodd" d="M318.691 126.297C317.641 125.737 314.841 123.987 313.932 125.457C307.002 136.727 279.703 163.676 269.763 170.045C260.804 175.785 251.284 181.035 241.205 184.185C238.755 184.955 242.325 195.384 243.094 197.484C244.284 200.704 279.073 183.765 282.223 181.735C296.222 172.705 301.962 167.805 313.652 156.116C319.461 150.306 323.451 146.456 327.721 139.177C333.531 129.167 332.201 133.577 318.691 126.297Z" fill="#254A70"/>
<path fill-rule="evenodd" clip-rule="evenodd" d="M387.638 125.387C354.46 157.936 398.838 187.684 431.107 206.444C431.457 205.884 437.756 195.454 437.756 195.314C417.457 175.505 397.158 153.106 387.638 125.387Z" fill="#254A70"/>
<path fill-rule="evenodd" clip-rule="evenodd" d="M310.152 246.062C305.742 261.811 291.952 409.435 299.932 411.955C305.392 413.635 321.491 417.415 321.491 409.015C321.491 394.456 330.241 286.03 332.761 285.89C337.801 285.54 345.78 286.52 350.19 285.47C366.079 302.41 357.47 369.957 358.24 414.475C358.31 420.285 382.879 418.045 382.529 414.825C392.258 367.647 381.199 297.3 379.589 248.092C379.169 234.653 314.351 244.522 310.152 246.062Z" fill="#336699"/>
<path fill-rule="evenodd" clip-rule="evenodd" d="M388.618 132.037C386.868 123.637 390.158 125.457 379.169 118.807C370.699 113.698 360.41 108.308 351.45 110.758C348.09 111.668 338.99 114.188 336.051 114.468C335.841 114.188 314.841 122.377 313.931 125.457C302.662 161.436 300.772 213.023 303.922 250.682C304.132 252.992 361.04 258.382 368.249 255.302C372.379 253.552 384.489 250.682 384.139 245.432C382.039 215.053 393.588 156.256 388.618 132.037Z" fill="#254A70"/>
<path fill-rule="evenodd" clip-rule="evenodd" d="M346.62 106.208C344.59 106.698 340.81 108.868 339.55 110.618L339.41 110.688C339.34 112.088 341.51 118.947 342.56 120.697C343.96 123.007 347.18 123.847 349.42 125.177C350.75 126.017 352.01 123.637 353.9 123.217C354.95 123.007 358.45 121.187 359.36 120.277C364.049 115.308 363.699 115.308 363.839 108.938C363.909 104.598 348.93 105.648 346.62 106.208Z" fill="#FCD1C0"/>
<path fill-rule="evenodd" clip-rule="evenodd" d="M349.21 124.967C349.21 124.897 343.4 112.998 342.49 112.998C341.51 112.998 338.5 112.648 335.841 112.858C337.451 117.617 338.85 130.217 340.6 131.197C340.81 131.337 344.24 128.677 345.08 128.257C345.43 128.117 350.19 125.317 349.21 124.967Z" fill="#336699"/>
<path fill-rule="evenodd" clip-rule="evenodd" d="M364.049 109.778C362.509 111.878 361.11 114.118 359.36 116.358C356.84 119.647 356.35 121.257 352.57 123.567C351.59 124.127 349.56 125.597 349.63 125.597C350.54 125.177 362.019 132.107 365.029 132.597C366.429 132.807 365.659 132.527 365.449 129.797C365.169 125.317 366.149 118.037 367.059 113.558C367.339 111.878 365.029 110.548 364.049 109.778Z" fill="#336699"/>
<path fill-rule="evenodd" clip-rule="evenodd" d="M359.78 20.8815C353.69 20.7415 342.28 24.9413 340.95 31.2411C339.27 39.4307 340.32 62.6697 333.461 67.4995C333.391 67.5695 327.511 73.0293 325.551 74.5692C318.411 80.029 315.051 84.8588 316.031 94.7284C319.251 125.877 375.249 120.417 394.708 84.8588C399.958 75.2692 400.798 57.21 398.208 46.6404C392.818 24.1714 382.319 21.3715 359.78 20.8815Z" fill="#FCD1C0"/>
<path fill-rule="evenodd" clip-rule="evenodd" d="M408.078 55.81C406.468 42.5806 391.908 34.0409 380.499 30.1211C378.749 29.4911 380.779 35.7909 380.849 36.7708C381.129 39.5707 384.489 49.3703 385.678 52.3802C390.578 64.6997 389.948 64.4897 400.728 69.9494C403.248 71.2094 405.208 67.7095 406.328 65.9596C407.168 64.5597 408.078 57.35 408.428 57.28C408.218 57.28 408.148 56.3 408.078 55.81Z" fill="#845939"/>
<path fill-rule="evenodd" clip-rule="evenodd" d="M360.62 89.1287C356.56 87.0287 359.5 86.0488 351.94 83.7389C349.63 83.0389 343.19 82.4089 340.6 82.4089C336.96 82.4089 330.451 86.8188 330.381 86.3288C327.441 85.2788 326.111 79.819 325.411 74.6393C318.341 80.099 315.051 84.9288 316.031 94.7284C319.251 125.877 375.249 120.417 394.708 84.8588C396.318 81.919 397.508 78.2791 398.278 74.2193C397.438 73.6593 396.388 73.0993 395.128 72.4693C390.298 70.0194 372.169 95.1484 360.62 89.1287Z" fill="#845939"/>
<path fill-rule="evenodd" clip-rule="evenodd" d="M393.868 74.3593C394.568 77.1592 395.968 78.7691 399.818 78.7691C405.838 78.7691 407.728 67.8495 406.468 65.1197C401.708 54.9001 391.838 66.9396 393.868 74.3593Z" fill="#FCD1C0"/>
<path fill-rule="evenodd" clip-rule="evenodd" d="M345.08 92.0685C340.95 92.0685 334.511 90.3186 331.501 91.3685C330.171 95.1484 335.631 103.198 338.78 105.088C344.17 108.308 356.14 106.768 358.03 100.538C361.18 89.9686 353.62 92.0685 345.08 92.0685Z" fill="white"/>
<path fill-rule="evenodd" clip-rule="evenodd" d="M346.62 44.1905C345.22 44.1206 335.211 45.1005 338.99 46.9204C339.13 46.9904 350.75 47.0604 350.82 46.9204C351.31 45.7305 347.95 44.2605 346.62 44.1905Z" fill="#845939"/>
<path fill-rule="evenodd" clip-rule="evenodd" d="M371.889 44.1206C370.489 44.0506 360.48 45.0305 364.259 46.8505C364.399 46.9205 376.019 46.9904 376.089 46.8505C376.579 45.6605 373.219 44.1906 371.889 44.1206Z" fill="#845939"/>
<path fill-rule="evenodd" clip-rule="evenodd" d="M344.45 61.3398C346.97 61.3398 346.06 55.39 345.64 53.9201C343.05 44.9605 336.75 61.3398 344.45 61.3398Z" fill="#845939"/>
<path fill-rule="evenodd" clip-rule="evenodd" d="M369.159 61.3398C371.679 61.3398 370.769 55.39 370.349 53.9201C367.759 44.9605 361.459 61.3398 369.159 61.3398Z" fill="#845939"/>
<path fill-rule="evenodd" clip-rule="evenodd" d="M354.18 60.8498C353.2 60.5698 352.29 60.6398 351.8 61.5498C351.31 62.3898 351.73 65.2597 351.52 66.5896C351.24 68.6895 349.98 70.4394 347.95 71.2794C346.2 72.0494 343.54 72.8893 344.17 75.1992C344.87 77.7891 347.88 77.4391 349.98 77.2292C357.33 76.5292 360.34 62.5298 354.18 60.8498Z" fill="#FF9999"/>
<path fill-rule="evenodd" clip-rule="evenodd" d="M340.67 32.851C340.67 33.061 349.21 28.0212 349.28 28.0212C365.659 26.6213 383.299 27.4612 393.518 41.9506C397.928 48.2504 404.788 53.2202 407.588 57.07C409.197 59.3099 411.787 49.7903 412.207 48.6703C431.667 1.28234 349.35 -24.4766 340.67 32.851Z" fill="#254A70"/>
<path fill-rule="evenodd" clip-rule="evenodd" d="M384.629 15.5618C370.839 4.64221 320.021 -11.1071 328.211 24.1714C329.331 28.9312 335.911 37.8208 339.97 41.1807C343.19 17.8017 386.308 31.8011 401.708 50.8403C401.708 38.7308 394.358 23.2614 384.629 15.5618Z" fill="#254A70"/>
<path fill-rule="evenodd" clip-rule="evenodd" d="M250.374 414.895C249.044 413.635 242.045 412.935 240.715 413.495C238.755 414.265 238.055 436.034 244.004 434.774C244.914 434.564 243.864 429.594 244.284 427.844C244.494 427.214 255.064 435.894 262.694 435.754C265.144 435.684 267.523 435.474 267.244 433.374C266.474 427.214 254.364 418.605 250.374 414.895Z" fill="#E3813F"/>
<path fill-rule="evenodd" clip-rule="evenodd" d="M253.034 413.705C252.544 409.295 252.334 406.635 252.824 402.226C253.664 395.366 256.814 362.327 254.364 359.807C237.355 342.308 243.794 375.977 243.794 381.926C243.794 388.506 245.894 411.045 242.675 415.525C240.155 419.025 247.154 424.345 250.514 425.535C251.424 425.815 262.064 430.854 260.174 427.144C258.074 422.665 253.524 418.815 253.034 413.705Z" fill="#FCD1C0"/>
<path fill-rule="evenodd" clip-rule="evenodd" d="M227.625 414.895C226.295 413.635 219.296 412.935 217.966 413.495C216.006 414.265 215.306 436.034 221.255 434.774C222.165 434.564 221.115 429.594 221.535 427.844C221.745 427.214 232.315 435.894 239.945 435.754C242.395 435.684 244.774 435.474 244.494 433.374C243.724 427.214 231.545 418.605 227.625 414.895Z" fill="#E3813F"/>
<path fill-rule="evenodd" clip-rule="evenodd" d="M230.215 413.705C229.725 409.295 229.515 406.635 230.005 402.226C230.845 395.366 233.995 362.327 231.545 359.807C214.536 342.308 220.975 375.977 220.975 381.926C220.975 388.506 223.075 411.045 219.855 415.525C217.336 419.025 224.335 424.345 227.695 425.535C228.605 425.815 239.245 430.854 237.355 427.144C235.255 422.665 230.775 418.815 230.215 413.705Z" fill="#FCD1C0"/>
<path fill-rule="evenodd" clip-rule="evenodd" d="M203.266 151.916C195.357 159.826 175.197 177.185 164.418 177.185C154.968 177.185 148.388 172.355 149.858 181.385C150.558 185.585 155.668 184.675 159.168 184.675C170.088 184.675 196.196 169.975 205.506 164.306C211.386 160.736 223.705 153.736 227.135 147.996C227.275 147.716 228.465 145.476 228.465 145.476C227.695 129.867 207.466 147.716 203.266 151.916Z" fill="#FCD1C0"/>
<path fill-rule="evenodd" clip-rule="evenodd" d="M227.205 147.786C227.135 147.856 227.135 147.926 227.065 148.066C226.995 148.136 227.065 148.066 227.205 147.786Z" fill="#FCD1C0"/>
<path fill-rule="evenodd" clip-rule="evenodd" d="M282.643 16.1217C276.343 7.51208 259.544 9.82199 255.624 9.96199C213.766 11.1519 218.106 88.3587 224.895 120.207C225.245 121.887 290.623 121.117 293.352 122.237C307.072 128.117 309.802 42.7906 308.402 31.3811C305.322 7.3721 289.223 6.53212 282.643 16.1217Z" fill="#845939"/>
<path fill-rule="evenodd" clip-rule="evenodd" d="M290.552 131.057C288.103 129.377 281.383 119.717 274.453 115.588C268.993 112.298 269.413 113.768 264.934 111.808C259.824 109.638 252.194 111.388 246.944 112.088C240.015 112.928 231.055 118.737 230.005 118.807C230.005 119.437 223.705 137.147 222.515 143.026C222.935 144.776 225.805 158.146 225.875 158.356C229.515 167.175 226.925 198.884 220.205 205.254C185.347 238.362 199.206 311.929 210.266 356.727C222.655 366.807 264.654 368.767 275.923 356.727C295.452 322.009 282.013 210.574 279.423 180.265C278.583 170.535 295.522 168.855 292.582 154.366C292.092 152.056 290.622 131.057 290.552 131.057Z" fill="#FF9A57"/>
<path fill-rule="evenodd" clip-rule="evenodd" d="M258.914 103.338C258.494 103.618 257.724 116.637 258.984 118.597C260.104 120.347 261.434 126.017 265.564 126.017C268.013 126.017 268.783 120.627 269.063 118.667C269.483 115.238 270.533 108.448 267.663 105.998C261.224 100.538 259.124 103.198 258.914 103.338Z" fill="#FCD1C0"/>
<path fill-rule="evenodd" clip-rule="evenodd" d="M283.133 36.0009C278.023 50.9102 248.484 73.6593 246.244 70.5094C240.715 62.6698 235.605 78.0691 238.405 81.569C243.584 88.0787 244.914 81.7789 245.894 87.7987C247.574 97.9483 261.574 114.398 270.883 113.278C296.292 110.128 304.692 73.5193 302.032 71.4194C292.372 63.6497 288.103 46.9904 283.133 36.0009Z" fill="#FCD1C0"/>
<path fill-rule="evenodd" clip-rule="evenodd" d="M288.523 55.6C287.333 55.46 282.293 55.32 282.153 56.79C281.593 61.5498 311.832 58.8199 288.523 55.6Z" fill="#845939"/>
<path fill-rule="evenodd" clip-rule="evenodd" d="M265.914 55.6C242.605 58.8899 272.843 61.4798 272.353 56.79C272.143 55.32 267.103 55.46 265.914 55.6Z" fill="#845939"/>
<path fill-rule="evenodd" clip-rule="evenodd" d="M263.814 74.4293C264.934 76.5992 267.174 76.5992 267.594 74.0793C267.734 72.9594 267.944 70.2994 267.664 69.2495C265.774 63.1597 260.664 68.5495 263.814 74.4293Z" fill="#845939"/>
<path fill-rule="evenodd" clip-rule="evenodd" d="M285.933 73.8693C287.053 76.0392 289.293 76.0392 289.713 73.5193C289.853 72.3993 290.063 69.7395 289.783 68.6895C287.963 62.5998 282.853 67.9895 285.933 73.8693Z" fill="#845939"/>
<path fill-rule="evenodd" clip-rule="evenodd" d="M280.263 73.3793C280.543 71.3494 279.703 69.0395 277.323 70.0894C271.513 72.4693 274.173 87.2387 282.153 85.1388C284.393 84.5788 282.923 81.009 282.223 80.309C280.753 78.6991 279.983 75.4792 280.263 73.3793Z" fill="#FF9999"/>
<path fill-rule="evenodd" clip-rule="evenodd" d="M275.923 94.9384C266.824 93.3285 255.414 82.6189 257.374 93.1885C259.194 102.778 268.713 105.788 274.383 103.828C277.533 102.708 282.503 100.608 280.193 97.2483C279.353 95.9184 277.463 95.1484 275.923 94.9384Z" fill="white"/>
<path fill-rule="evenodd" clip-rule="evenodd" d="M221.675 124.617C216.636 134.767 217.896 132.037 210.616 141.276C212.436 146.526 216.916 151.566 221.115 154.996C225.525 158.496 237.355 149.676 240.575 146.456C247.994 138.967 245.754 128.397 240.505 120.697C235.815 113.838 225.525 116.847 221.675 124.617Z" fill="#E3813F"/>
<path fill-rule="evenodd" clip-rule="evenodd" d="M478.075 112.928C477.935 112.858 473.385 112.158 470.165 114.468C464.495 118.527 466.245 127.137 469.045 132.107C469.115 132.247 509.363 164.515 525.743 187.684C530.152 193.844 524.553 207.564 513.983 206.724C510.763 206.444 503.274 218.203 525.253 219.113C548.002 220.093 544.922 186.985 540.302 173.895C529.662 144.006 508.593 123.707 478.075 112.928Z" fill="#AD2327"/>
<path fill-rule="evenodd" clip-rule="evenodd" d="M451.826 422.455C443.496 417.625 439.856 418.605 433.277 410.345C430.617 406.985 422.357 408.105 418.437 408.245C407.378 408.665 405.978 404.955 405.978 423.575C405.978 430.644 406.958 433.164 412.207 434.214C416.687 435.054 444.406 436.174 449.026 435.614C450.216 435.474 451.056 435.264 451.336 434.914C452.806 432.674 455.466 424.625 451.826 422.455Z" fill="#996633"/>
<path fill-rule="evenodd" clip-rule="evenodd" d="M506.284 422.105C497.954 417.275 494.314 418.255 487.734 409.995C485.074 406.635 476.815 407.755 472.895 407.895C461.835 408.315 460.435 404.605 460.435 423.225C460.435 430.294 461.415 432.814 466.665 433.864C471.145 434.704 498.864 435.824 503.484 435.264C504.674 435.124 505.514 434.914 505.794 434.564C507.263 432.324 509.993 424.275 506.284 422.105Z" fill="#996633"/>
<path fill-rule="evenodd" clip-rule="evenodd" d="M489.274 303.6C488.924 297.16 491.584 273.711 482.834 273.711C477.655 273.711 403.458 263.141 403.528 270.981C403.668 286.17 399.608 409.645 406.888 411.885C419.627 415.805 436.566 419.795 435.516 402.016C435.166 395.926 438.316 306.47 440.206 306.47C442.166 306.47 452.666 307.1 452.666 307.169C453.226 316.969 456.026 409.715 459.315 410.345C469.745 412.445 488.504 416.715 487.664 402.295C485.914 372.407 491.164 335.938 489.274 303.6Z" fill="#336699"/>
<path fill-rule="evenodd" clip-rule="evenodd" d="M476.255 266.361C469.955 266.361 397.438 265.241 399.538 257.962C398.418 261.741 400.028 267.621 403.318 270.911C411.367 278.821 490.604 289.74 491.584 271.821C492.144 261.951 486.614 266.361 476.255 266.361Z" fill="#AD2327"/>
<path fill-rule="evenodd" clip-rule="evenodd" d="M480.805 113.838C445.106 101.448 421.237 106.558 404.718 141.976C398.768 154.786 394.638 241.232 397.298 257.192C400.308 274.971 484.794 289.88 493.684 260.411C498.654 243.822 496.414 181.175 496.134 160.176C495.994 147.366 494.454 118.597 480.805 113.838Z" fill="#ED3D43"/>
<path fill-rule="evenodd" clip-rule="evenodd" d="M464.705 131.127C460.925 131.197 444.406 129.727 441.746 130.637C438.456 133.297 438.386 136.797 440.206 140.156C455.536 168.575 490.254 130.427 464.705 131.127Z" fill="#AD2327"/>
<path fill-rule="evenodd" clip-rule="evenodd" d="M463.795 210.574C463.305 210.294 461.135 208.544 460.085 209.244C452.176 214.633 452.246 225.553 453.296 233.673C453.646 236.402 457.146 259.851 462.535 252.222C462.535 252.222 459.315 230.523 462.745 225.273C464.845 221.843 468.345 213.303 463.795 210.574Z" fill="#FCD1C0"/>
<path fill-rule="evenodd" clip-rule="evenodd" d="M462.255 250.402C461.765 250.542 458.896 254.672 455.816 255.722C453.786 256.422 450.566 259.082 454.206 260.411C456.726 261.391 460.435 259.991 462.185 258.102C463.795 256.352 464.705 254.742 464.145 252.082C463.935 251.242 463.095 250.192 462.255 250.402Z" fill="#FAAFFF"/>
<path fill-rule="evenodd" clip-rule="evenodd" d="M481.505 224.433C481.015 224.153 478.845 222.403 477.795 223.103C469.885 228.493 469.955 239.412 471.005 247.532C471.355 250.262 474.855 273.711 480.245 266.081C480.245 266.081 477.025 244.382 480.455 239.132C482.555 235.702 486.054 227.163 481.505 224.433Z" fill="#FCD1C0"/>
<path fill-rule="evenodd" clip-rule="evenodd" d="M479.895 264.261C479.405 264.401 476.535 268.531 473.455 269.581C471.425 270.281 468.205 272.941 471.845 274.271C474.365 275.251 478.075 273.851 479.825 271.961C481.435 270.211 482.344 268.601 481.785 265.941C481.575 265.101 480.805 264.051 479.895 264.261Z" fill="#FAAFFF"/>
<path fill-rule="evenodd" clip-rule="evenodd" d="M460.785 134.347C458.685 134.417 449.446 133.577 447.976 134.067C446.156 135.537 446.086 137.497 447.136 139.387C455.676 155.206 475.065 133.997 460.785 134.347Z" fill="#FCD1C0"/>
<path fill-rule="evenodd" clip-rule="evenodd" d="M536.592 141.836C532.112 138.057 512.373 130.987 510.833 133.927C490.814 170.325 443.286 197.204 445.106 201.474C457.146 230.523 465.615 222.753 481.574 238.712C494.664 251.872 569.981 170.255 536.592 141.836Z" fill="#FAAFFF"/>
<path fill-rule="evenodd" clip-rule="evenodd" d="M467.435 106.558C459.035 108.238 461.275 115.588 465.265 114.748C478.005 112.158 497.954 138.897 502.784 148.276C507.823 158.076 517.483 150.866 518.673 145.196C521.683 130.357 477.375 104.528 467.435 106.558Z" fill="#FCD1C0"/>
<path fill-rule="evenodd" clip-rule="evenodd" d="M503.624 123.707C501.454 128.257 498.094 132.387 494.104 135.397C498.094 140.436 501.174 145.266 502.784 148.346C507.823 158.146 517.483 150.936 518.673 145.266C519.933 138.967 512.933 130.917 503.624 123.707Z" fill="#FAAFFF"/>
<path fill-rule="evenodd" clip-rule="evenodd" d="M546.812 148.556C538.762 147.856 534.492 153.246 537.012 160.036C538.062 162.906 570.961 197.624 556.821 204.624C545.482 210.294 552.622 217.993 561.021 210.084C570.541 201.054 568.721 183.975 564.731 172.845C562.281 166.055 555.281 149.256 546.812 148.556Z" fill="#FCD1C0"/>
<path fill-rule="evenodd" clip-rule="evenodd" d="M546.812 148.556C538.762 147.856 534.492 153.246 537.012 160.036C537.502 161.366 544.432 169.065 550.592 177.815C556.681 176.205 560.321 175.435 563.261 169.065C560.111 161.226 553.951 149.186 546.812 148.556Z" fill="#FAAFFF"/>
<path fill-rule="evenodd" clip-rule="evenodd" d="M507.543 191.184C500.824 196.434 502.854 205.534 510.133 203.784C512.373 203.224 516.503 198.044 516.713 196.084C517.343 189.434 512.443 187.405 507.543 191.184Z" fill="#FCD1C0"/>
<path fill-rule="evenodd" clip-rule="evenodd" d="M434.677 151.636C431.877 145.476 429.917 128.397 420.537 126.857C404.228 124.127 401.848 148.416 403.038 157.656C408.148 197.064 449.796 219.673 483.044 216.033C490.184 215.263 510.553 210.154 510.553 201.614C510.553 171.585 470.235 230.523 434.677 151.636Z" fill="#AD2327"/>
<path fill-rule="evenodd" clip-rule="evenodd" d="M527.703 204.274C519.583 199.304 519.723 205.884 511.253 213.863C506.983 217.853 511.463 220.583 516.083 219.813C521.263 218.973 527.003 214.003 527.983 206.234C528.053 205.464 528.333 204.624 527.703 204.274Z" fill="#FCD1C0"/>
<path fill-rule="evenodd" clip-rule="evenodd" d="M475.415 35.7209C466.385 22.5614 431.457 25.3613 421.307 40.8307C416.267 48.5304 414.097 64.2797 415.777 74.0793C416.757 79.6091 417.107 90.3186 418.157 96.6183C420.327 109.988 422.147 119.927 431.807 130.147C459.035 159.056 518.253 119.857 492.774 94.9384C479.825 82.2689 489.694 56.51 475.415 35.7209Z" fill="#FCD1C0"/>
<path fill-rule="evenodd" clip-rule="evenodd" d="M488.504 88.8486C486.264 91.8585 484.024 99.8382 478.425 99.4182C472.335 98.9282 460.925 99.9782 455.326 102.148C447.836 104.948 438.456 108.098 430.897 102.498C426.137 98.9282 422.847 86.1888 417.107 88.5687C417.387 91.5785 417.667 94.3784 418.017 96.6883C420.187 110.058 422.007 119.997 431.667 130.217C458.895 159.126 518.113 119.927 492.634 95.0084C490.884 93.1185 489.554 91.0885 488.504 88.8486Z" fill="#CCCCCC"/>
<path fill-rule="evenodd" clip-rule="evenodd" d="M410.877 72.7493C404.928 73.4493 406.048 89.4786 412.137 92.4885C423.337 98.0883 422.007 71.4194 410.877 72.7493Z" fill="#FCD1C0"/>
<path fill-rule="evenodd" clip-rule="evenodd" d="M422.637 43.8406C419.137 42.8606 413.397 44.5405 410.528 46.5005C401.078 52.6602 411.018 71.0694 411.018 75.8292C411.018 77.1592 413.327 78.6991 415.637 78.4191C417.597 78.2091 420.537 76.3892 422.217 75.3393C426.347 72.6794 429.357 67.7096 429.707 62.8098C430.127 56.58 429.987 45.8705 422.637 43.8406Z" fill="#CCCCCC"/>
<path fill-rule="evenodd" clip-rule="evenodd" d="M483.254 43.0006C470.375 40.4107 477.025 80.939 483.604 78.3491C493.054 74.5693 493.964 45.1705 483.254 43.0006Z" fill="#CCCCCC"/>
<path fill-rule="evenodd" clip-rule="evenodd" d="M437.126 63.7197C436.076 64.2097 432.367 67.0095 430.967 69.2495C428.657 73.0993 430.407 72.6793 432.857 71.2794C433.697 70.7894 438.456 68.3395 440.626 66.4496C443.706 63.8597 440.556 62.2498 437.126 63.7197Z" fill="#CCCCCC"/>
<path fill-rule="evenodd" clip-rule="evenodd" d="M466.315 58.5399C463.445 58.8199 463.515 61.6898 465.755 62.1098C466.315 62.1798 476.395 65.3296 476.675 64.7696C477.795 62.8797 469.255 58.1899 466.315 58.5399Z" fill="#CCCCCC"/>
<path fill-rule="evenodd" clip-rule="evenodd" d="M439.646 77.0891C439.646 78.4891 439.506 79.049 439.716 80.519C440.696 87.6587 447.346 79.959 442.446 75.0592C440.976 73.5893 439.646 75.4092 439.646 77.0891Z" fill="#845939"/>
<path fill-rule="evenodd" clip-rule="evenodd" d="M470.375 74.2893C470.375 75.6892 470.235 76.2492 470.445 77.7191C471.425 84.8588 478.075 77.1591 473.175 72.2593C471.705 70.7894 470.375 72.5393 470.375 74.2893Z" fill="#845939"/>
<path fill-rule="evenodd" clip-rule="evenodd" d="M469.605 88.9886C467.575 87.7987 464.355 83.9488 464.145 81.5689C463.935 78.769 459.455 77.0891 458.476 79.959C456.096 87.1687 458.126 94.9384 466.875 95.0784C472.965 95.1484 471.075 89.8286 469.605 88.9886Z" fill="#FF9999"/>
<path fill-rule="evenodd" clip-rule="evenodd" d="M452.526 121.257C446.226 120.067 439.786 116.427 438.806 116.218C434.956 115.518 437.756 126.017 442.166 129.027C449.306 133.927 470.095 135.957 464.915 122.727C464.145 120.907 458.405 122.377 452.526 121.257Z" fill="white"/>
<path fill-rule="evenodd" clip-rule="evenodd" d="M505.863 145.266L505.583 145.336C505.164 147.716 504.464 159.336 505.723 161.086C506.773 162.556 507.403 165.635 511.253 163.256C512.583 162.416 518.743 152.546 515.523 149.466C512.863 146.946 509.433 145.126 505.863 145.266Z" fill="white"/>
<path fill-rule="evenodd" clip-rule="evenodd" d="M525.603 146.806C523.643 147.016 517.273 149.676 516.223 151.356L516.363 151.426C516.153 151.916 518.253 168.015 523.503 164.235C524.203 163.746 527.073 163.046 529.243 161.366C533.302 158.216 536.172 157.026 537.922 151.636C540.582 143.516 530.713 146.246 525.603 146.806Z" fill="white"/>
<path fill-rule="evenodd" clip-rule="evenodd" d="M507.683 83.5289C506.213 85.7688 502.854 101.308 502.294 103.478C507.473 105.718 516.853 108.938 518.043 109.428C527.353 113.278 528.543 121.887 528.543 131.897C528.543 136.867 527.703 145.616 527.843 149.186C527.983 154.016 526.093 155.136 529.662 155.556C541.072 156.956 549.892 155.696 562.701 157.726C569.841 158.846 569.001 158.216 569.771 154.646C571.941 143.936 572.081 100.118 568.161 88.1486C561.091 66.7295 520.073 64.1397 507.683 83.5289Z" fill="#845939"/>
<path fill-rule="evenodd" clip-rule="evenodd" d="M560.321 119.927C554.371 117.267 550.522 126.437 550.872 119.017C551.292 108.028 546.392 114.608 536.872 108.378L535.402 96.8983L530.153 105.858L520.073 103.898C520.073 102.008 518.953 93.6084 518.953 94.5184C519.023 95.4983 515.943 103.338 515.313 103.338C514.473 103.338 507.823 102.568 504.954 102.638C504.954 116.567 494.244 153.876 517.903 153.876C528.473 153.876 548.702 149.256 552.552 138.197C555.491 129.797 553.042 133.857 559.271 131.967C560.461 131.547 563.891 121.537 560.321 119.927Z" fill="#FCD1C0"/>
<path fill-rule="evenodd" clip-rule="evenodd" d="M516.503 107.398C512.723 105.228 508.243 109.148 509.013 109.078C512.233 108.798 513.283 107.678 517.133 109.288C518.533 109.918 517.413 107.958 516.503 107.398Z" fill="#845939"/>
<path fill-rule="evenodd" clip-rule="evenodd" d="M528.403 108.658C527.213 108.938 525.323 110.688 527.073 110.548C531.832 110.128 532.532 111.668 535.962 113.138C536.802 113.418 533.302 107.538 528.403 108.658Z" fill="#845939"/>
<path fill-rule="evenodd" clip-rule="evenodd" d="M511.113 111.248C508.243 110.758 509.083 115.937 509.153 117.617C509.153 118.387 509.923 119.927 510.623 119.997C513.143 120.277 513.773 111.738 511.113 111.248Z" fill="#845939"/>
<path fill-rule="evenodd" clip-rule="evenodd" d="M528.472 114.188C525.603 113.698 526.443 118.877 526.513 120.557C526.513 121.327 527.283 122.867 527.983 122.937C530.502 123.217 531.062 114.678 528.472 114.188Z" fill="#845939"/>
<path fill-rule="evenodd" clip-rule="evenodd" d="M517.203 117.687C517.063 117.757 516.783 118.247 516.783 118.527C516.923 119.577 515.523 122.447 514.543 123.147C513.213 124.197 511.183 125.037 512.793 126.997C513.773 128.187 515.733 127.837 516.993 127.277C518.323 126.647 520.353 123.707 520.563 122.167C520.703 121.257 520.843 120.417 520.563 119.507C520.003 117.687 519.023 117.127 517.203 117.687Z" fill="#FF9999"/>
<path fill-rule="evenodd" clip-rule="evenodd" d="M532.602 129.307C528.683 127.347 524.553 134.417 519.513 133.927C518.883 133.857 517.763 134.487 517.763 135.117C517.343 144.566 534.142 141.766 534.142 134.137C534.212 132.597 534.212 130.077 532.602 129.307Z" fill="white"/>
<path fill-rule="evenodd" clip-rule="evenodd" d="M137.819 402.156C135.509 401.666 127.319 401.316 126.549 401.596C118.71 404.745 115.35 412.655 101.49 414.335C97.1506 414.895 94.8407 416.785 94.8407 421.125C94.8407 427.214 92.5308 429.664 98.7606 432.744C110.31 438.484 129.559 435.544 139.429 427.144C141.179 425.605 138.519 430.364 143.349 429.314C144.819 428.964 147.758 428.754 147.898 427.704C148.808 427.494 149.578 411.045 148.878 409.645C145.869 403.765 145.729 403.765 137.819 402.156Z" fill="#663333"/>
<path fill-rule="evenodd" clip-rule="evenodd" d="M132.219 364.707C130.189 364.707 125.569 364.147 124.309 365.827C119.48 375.627 132.779 406.075 114.09 413.775C111.29 414.895 97.0806 416.785 104.57 422.105C108.21 424.695 141.039 420.565 144.399 410.835C146.849 403.695 147.689 382.276 146.709 374.227C145.589 365.127 144.609 364.707 132.219 364.707Z" fill="#FCD1C0"/>
<path fill-rule="evenodd" clip-rule="evenodd" d="M170.018 402.156C167.708 401.666 159.518 401.316 158.748 401.596C150.908 404.745 147.549 412.655 133.689 414.335C129.349 414.895 127.039 416.785 127.039 421.125C127.039 427.214 124.729 429.664 130.959 432.744C142.509 438.484 161.758 435.544 171.628 427.144C173.377 425.605 170.718 430.364 175.547 429.314C177.017 428.964 179.957 428.754 180.097 427.704C181.007 427.494 181.777 411.045 181.077 409.645C178.137 403.765 177.927 403.765 170.018 402.156Z" fill="#663333"/>
<path fill-rule="evenodd" clip-rule="evenodd" d="M164.488 364.707C162.458 364.707 157.838 364.147 156.578 365.827C151.748 375.627 165.048 406.075 146.359 413.775C143.559 414.895 129.349 416.785 136.839 422.105C140.479 424.695 173.307 420.565 176.667 410.835C179.117 403.695 179.957 382.276 178.977 374.227C177.787 365.127 176.807 364.707 164.488 364.707Z" fill="#FCD1C0"/>
<path fill-rule="evenodd" clip-rule="evenodd" d="M197.526 255.582C185.907 236.263 117.94 230.593 116.54 250.612C116.4 252.222 112.55 278.751 112.83 284.35C112.97 287.64 109.19 312.699 108.63 318.369C108.07 323.549 105.34 359.527 108.07 362.117C120.53 373.947 172.047 374.437 188.637 370.307C193.047 369.187 193.257 369.817 197.946 367.927C197.666 367.997 197.666 367.437 199.906 367.577C202.426 358.267 200.326 328.379 201.096 315.359C201.936 301.01 203.126 264.891 197.526 255.582Z" fill="#FFCC99"/>
<path fill-rule="evenodd" clip-rule="evenodd" d="M136.699 113.698C133.759 112.508 125.359 113.628 122.49 114.818C89.031 128.677 62.5021 159.126 71.3917 196.924C74.2616 209.244 82.1713 221.283 95.9607 221.283C100.86 221.283 107.37 214.563 102.26 210.434C100.72 209.174 94.0708 196.434 93.8608 193.564C89.8009 143.306 115.7 157.446 132.289 140.227C137.749 134.557 143.489 124.687 139.219 116.778C138.799 115.798 137.679 114.048 136.699 113.698Z" fill="#D17777"/>
<path fill-rule="evenodd" clip-rule="evenodd" d="M154.478 108.238C151.328 106.908 145.449 106.488 143.699 108.728C123.05 135.257 113.04 199.094 113.04 234.303C113.04 243.542 113.11 257.682 122.35 262.231C135.579 268.811 156.858 269.161 171.557 267.341C203.056 263.491 194.167 207.144 194.167 181.665C194.167 148.346 187.377 121.887 154.478 108.238Z" fill="#FFCCCC"/>
<path fill-rule="evenodd" clip-rule="evenodd" d="M141.249 119.017C136.279 147.506 173.727 143.026 173.657 122.657C173.657 107.118 142.649 112.158 141.249 119.017Z" fill="#FF9999"/>
<path fill-rule="evenodd" clip-rule="evenodd" d="M141.809 119.087C141.179 119.157 141.459 119.927 141.319 120.207C139.639 123.987 139.709 126.297 139.989 130.567C140.129 132.387 140.899 141.976 144.189 140.157C159.448 131.617 143.489 118.877 141.809 119.087Z" fill="white"/>
<path fill-rule="evenodd" clip-rule="evenodd" d="M170.298 119.787C169.178 122.867 160.148 129.937 157.138 132.247C154.758 134.067 160.148 141.417 165.678 141.766C170.088 142.116 169.948 141.417 172.887 137.077C174.707 134.347 176.947 128.957 175.687 125.667C173.657 120.137 170.228 119.997 170.298 119.787Z" fill="white"/>
<path fill-rule="evenodd" clip-rule="evenodd" d="M146.499 121.257C143.139 140.367 168.338 137.357 168.268 123.707C168.268 113.208 147.478 116.638 146.499 121.257Z" fill="#FCD1C0"/>
<path fill-rule="evenodd" clip-rule="evenodd" d="M139.499 114.818C113.04 115.448 102.26 226.183 102.26 250.332C102.26 258.312 97.7106 310.319 105.76 310.249C125.569 310.039 134.319 272.871 134.319 255.932C134.319 225.553 131.239 144.216 143.489 121.467C146.009 116.637 141.109 114.748 139.499 114.818Z" fill="#FF9999"/>
<path fill-rule="evenodd" clip-rule="evenodd" d="M118.78 193.914C112.2 196.224 111.29 204.064 116.96 206.234C130.049 211.274 143.069 208.054 159.588 239.692C161.898 244.102 164.138 236.542 163.788 233.253C161.268 213.793 140.969 186.075 118.78 193.914Z" fill="#609460"/>
<path fill-rule="evenodd" clip-rule="evenodd" d="M102.61 206.584C96.0307 208.894 95.1207 216.733 100.79 218.903C113.88 223.943 126.899 220.723 143.419 252.362C145.729 256.772 147.968 249.212 147.619 245.922C145.099 226.463 124.799 198.814 102.61 206.584Z" fill="#609460"/>
<path fill-rule="evenodd" clip-rule="evenodd" d="M182.127 111.248C161.758 120.487 164.138 202.664 163.158 226.463C162.668 237.242 163.648 277.981 167.568 286.1C170.998 293.24 173.377 296.04 182.057 304.72C189.477 312.139 205.226 324.809 205.646 302.41C206.626 246.062 211.246 180.265 205.716 136.447C204.526 126.577 194.307 105.718 182.127 111.248Z" fill="#FF9999"/>
<path fill-rule="evenodd" clip-rule="evenodd" d="M133.409 180.125C124.169 172.775 118.5 165.985 111.71 156.956C107.37 151.216 82.8012 149.676 80.7713 153.316C71.8117 169.625 78.8114 185.515 85.6011 201.964C87.071 205.464 94.3507 220.863 99.2505 217.363C109.4 210.154 155.388 197.764 133.409 180.125Z" fill="#CCFFCC"/>
<path fill-rule="evenodd" clip-rule="evenodd" d="M81.5413 158.496C76.7815 159.476 74.6116 159.476 69.7118 158.846C57.8123 157.376 50.6726 155.976 39.753 151.076C33.9433 148.486 34.7832 148.066 30.8634 144.286C29.8834 143.306 30.6534 142.256 29.6034 141.976C26.7336 141.137 27.7835 138.337 26.1036 137.707C21.4138 136.027 23.3737 145.896 23.5837 146.246C36.4632 165.075 62.1521 175.085 80.6313 173.755C95.8207 172.635 88.331 157.096 81.5413 158.496Z" fill="#FCD1C0"/>
<path fill-rule="evenodd" clip-rule="evenodd" d="M81.5413 158.496C76.7815 159.476 74.6116 159.476 69.7118 158.846C68.3118 158.636 66.9119 158.496 65.6519 158.286C67.0519 161.716 68.5218 164.865 67.0519 170.045C66.7719 171.025 66.5619 171.865 66.3519 172.705C71.3917 173.685 76.2215 174.035 80.7013 173.685C95.8207 172.635 88.331 157.096 81.5413 158.496Z" fill="#CCFFCC"/>
<path fill-rule="evenodd" clip-rule="evenodd" d="M108.14 162.906C116.61 165.215 114.02 137.567 131.939 124.477C133.269 123.497 143.559 117.827 143.559 117.617C143.559 96.2684 70.2017 152.476 108.14 162.906Z" fill="#FCD1C0"/>
<path fill-rule="evenodd" clip-rule="evenodd" d="M111.22 128.747C97.8506 141.346 89.4509 157.726 108.14 162.836C114.44 164.586 114.65 149.746 121.65 136.657C118.5 135.677 114.16 132.317 111.22 128.747Z" fill="#CCFFCC"/>
<path fill-rule="evenodd" clip-rule="evenodd" d="M97.8506 258.102C95.5407 263.281 94.2107 290.93 99.9505 291.91C105.83 292.89 107.44 291.56 109.12 287.43C112.27 279.871 111.99 265.801 111.22 259.572C107.79 259.502 101.35 258.522 97.8506 258.102Z" fill="#D17777"/>
<path fill-rule="evenodd" clip-rule="evenodd" d="M185.977 254.742C185.977 262.301 182.827 285.19 189.057 288.76C210.826 301.15 204.736 268.041 204.736 255.162C203.896 254.742 188.637 255.582 185.977 254.742Z" fill="#D17777"/>
<path fill-rule="evenodd" clip-rule="evenodd" d="M105.83 202.524C105.83 208.684 109.68 210.574 115.28 211.134C118.08 211.414 120.74 211.204 123.05 209.944C126.829 207.914 120.95 200.564 119.97 199.094C119.13 197.904 105.83 195.104 105.83 202.524Z" fill="#FCD1C0"/>
<path fill-rule="evenodd" clip-rule="evenodd" d="M190.387 123.707C177.367 128.537 182.617 136.937 180.517 145.056C175.407 164.236 163.368 175.155 146.989 185.095C142.509 187.825 130.749 191.114 125.429 191.674C113.11 192.864 118.15 203.084 121.72 210.644C123.19 213.723 133.619 212.324 136.769 212.044C171.487 208.754 199.906 197.134 207.396 160.316C209.006 152.546 208.866 141.276 206.556 133.857C204.316 126.647 198.506 120.697 190.387 123.707Z" fill="#D17777"/>
<path fill-rule="evenodd" clip-rule="evenodd" d="M91.6909 213.023C91.1309 213.303 91.3409 213.303 91.3409 213.723C91.3409 218.623 98.6206 222.053 102.47 222.543C108.7 223.243 109.54 218.833 106.74 215.403C104.08 212.113 95.4707 210.854 91.6909 213.023Z" fill="#FCD1C0"/>
<path fill-rule="evenodd" clip-rule="evenodd" d="M206.626 59.0999C196.126 58.8199 189.057 76.5992 189.267 84.8589C189.617 95.2884 190.737 107.888 203.966 107.888C222.095 107.888 223.915 75.6192 218.106 64.4197C216.006 60.2199 210.896 59.2399 206.626 59.0999Z" fill="#CCCCCC"/>
<path fill-rule="evenodd" clip-rule="evenodd" d="M193.257 59.0299C176.877 40.5507 127.459 42.6506 127.459 60.7799C127.459 69.6695 126.479 114.468 133.059 118.387C150.348 128.607 180.727 125.667 195.077 111.668C198.786 108.098 197.806 81.499 197.806 75.1992C197.806 67.9195 197.736 64.1397 193.257 59.0299Z" fill="#FCD1C0"/>
<path fill-rule="evenodd" clip-rule="evenodd" d="M169.808 29.7711C162.808 31.3111 151.258 40.3407 150.698 39.7107C139.359 27.4612 125.429 44.3305 122.63 57.91C121.65 62.5298 124.099 75.7592 130.749 69.0395C133.059 66.6596 150.768 52.2402 150.558 49.3703C159.308 61.1998 182.547 84.1589 197.946 86.8187C201.166 87.3787 202.916 75.7592 204.036 71.4894C209.146 51.2602 195.846 24.1014 169.808 29.7711Z" fill="#CCCCCC"/>
<path fill-rule="evenodd" clip-rule="evenodd" d="M202.916 83.4589C196.826 82.199 193.117 95.5684 198.016 97.3183C202.006 98.7183 204.806 96.7583 206.136 93.0485C207.256 90.1086 205.856 84.0889 202.916 83.4589Z" fill="#FCD1C0"/>
<path fill-rule="evenodd" clip-rule="evenodd" d="M143.209 68.4095C139.989 67.9896 137.399 68.4795 135.649 71.3494C135.299 71.9794 144.399 70.9994 145.449 70.8594C147.968 70.5795 144.259 68.5495 143.209 68.4095Z" fill="#CCCCCC"/>
<path fill-rule="evenodd" clip-rule="evenodd" d="M165.958 68.4095C162.738 67.9896 160.148 68.4795 158.398 71.3494C158.048 71.9794 167.148 70.9994 168.198 70.8594C170.718 70.5795 167.008 68.5495 165.958 68.4095Z" fill="#CCCCCC"/>
<path fill-rule="evenodd" clip-rule="evenodd" d="M141.809 76.8092C141.459 77.0192 139.919 78.2091 139.849 78.2091C139.779 78.2091 139.639 80.869 141.669 81.079C142.369 81.149 142.859 80.869 142.999 79.8891C143.069 79.3291 143.139 77.7892 143.069 77.2292C142.719 75.6892 142.159 76.5992 141.809 76.8092Z" fill="#845939"/>
<path fill-rule="evenodd" clip-rule="evenodd" d="M164.628 76.4592C164.208 76.2492 163.578 75.1993 163.228 77.0192C163.088 77.6492 163.228 79.4691 163.298 80.099C163.438 81.219 164.068 81.569 164.838 81.499C167.288 81.289 167.078 78.1391 167.008 78.1391C166.868 78.0691 164.978 76.6692 164.628 76.4592Z" fill="#845939"/>
<path fill-rule="evenodd" clip-rule="evenodd" d="M154.338 79.8891C150.278 79.1191 152.938 85.7688 148.458 89.3387C146.849 90.6686 145.169 90.6686 144.819 93.1885C143.699 102.358 159.938 95.5684 156.228 82.8289C155.948 81.779 155.458 80.169 154.338 79.8891Z" fill="#FF9999"/>
<path fill-rule="evenodd" clip-rule="evenodd" d="M169.738 101.868C164.628 101.868 162.598 105.858 159.448 106.418C157.978 106.628 152.238 105.998 152.028 108.518C151.048 112.788 160.428 115.658 167.358 112.438C173.447 109.638 174.637 101.868 169.738 101.868Z" fill="white"/>
<path fill-rule="evenodd" clip-rule="evenodd" d="M105.83 105.228C105.9 104.738 105.55 104.598 105.13 104.388C103.8 103.758 87.981 106.208 86.0911 106.628C75.5215 108.868 69.4318 109.988 62.6421 118.667C54.5924 128.957 70.6217 149.536 77.9014 156.466C90.2209 168.295 117.45 165.145 118.01 152.966C118.29 146.246 107.65 127.487 106.32 116.288C105.83 112.438 105.48 109.428 105.83 105.228Z" fill="#FCD1C0"/>
<path fill-rule="evenodd" clip-rule="evenodd" d="M112.13 92.4885C104.99 90.0386 106.04 95.3584 106.04 87.9387C106.04 81.849 99.0405 86.9588 96.3107 88.8487C84.2012 97.1783 89.3809 97.8083 87.211 90.8786C85.6711 86.0488 73.4216 103.268 71.8817 104.248C67.8219 106.838 76.0815 93.7485 60.8921 108.938C49.2726 120.557 52.2825 133.857 64.042 143.516C62.7121 142.466 64.462 144.146 65.582 144.146C69.8518 144.146 72.5817 124.687 72.5817 120.627C72.5817 118.877 103.87 109.218 107.23 106.908C110.94 104.458 116.19 93.8885 112.13 92.4885Z" fill="#845939"/>
<path fill-rule="evenodd" clip-rule="evenodd" d="M58.9322 138.057C56.0623 142.536 61.9421 151.846 67.6818 150.376C70.2017 149.746 70.1317 144.426 68.2418 142.186C66.3519 139.877 61.6621 133.787 58.9322 138.057Z" fill="#FCD1C0"/>
<path fill-rule="evenodd" clip-rule="evenodd" d="M81.0513 130.637C77.9714 131.757 75.9415 134.277 75.2415 137.497C74.8915 138.967 77.4114 136.447 77.5514 136.307C78.1114 135.677 82.3812 133.087 83.5012 132.247C86.4411 130.147 82.1712 130.147 81.0513 130.637Z" fill="#845939"/>
<path fill-rule="evenodd" clip-rule="evenodd" d="M93.6508 126.997C93.1608 128.957 94.6307 128.047 95.8207 127.767C98.5506 127.067 101.7 126.087 104.43 125.177C105.06 122.797 94.3508 124.267 93.6508 126.997Z" fill="#845939"/>
<path fill-rule="evenodd" clip-rule="evenodd" d="M81.4713 138.827C80.7013 139.737 84.9011 144.566 85.8811 143.656C87.701 142.046 83.4312 136.447 81.4713 138.827Z" fill="#845939"/>
<path fill-rule="evenodd" clip-rule="evenodd" d="M98.4806 132.597C97.7106 133.507 101.91 138.337 102.89 137.427C104.71 135.817 100.44 130.217 98.4806 132.597Z" fill="#845939"/>
<path fill-rule="evenodd" clip-rule="evenodd" d="M100.161 141.626C96.8706 140.437 96.8007 140.157 94.2808 137.707C94.0708 137.497 91.3409 136.167 91.6909 138.967C92.1108 142.536 95.2607 144.846 98.2706 145.546C101 146.176 103.59 145.406 103.59 144.146C103.52 141.486 102.12 142.326 100.161 141.626Z" fill="#FF9999"/>
<path fill-rule="evenodd" clip-rule="evenodd" d="M103.17 150.446C96.5906 152.896 97.0106 151.566 90.9909 151.006C90.8509 151.006 88.401 150.516 88.961 154.226C89.8709 160.456 104.22 160.666 107.58 156.606C108.7 155.276 109.47 151.776 108.28 150.656C107.02 149.536 104.64 149.886 103.17 150.446Z" fill="white"/>
<path fill-rule="evenodd" clip-rule="evenodd" d="M169.388 232.623C164.768 232.483 160.848 238.642 159.588 239.692C159.168 240.042 159.238 240.322 159.308 240.742C160.708 249.282 173.727 232.763 169.388 232.623Z" fill="#CCFFCC"/>
<path fill-rule="evenodd" clip-rule="evenodd" d="M153.148 245.292C148.528 245.152 144.609 251.312 143.349 252.362C142.929 252.712 142.999 252.992 143.069 253.412C144.539 261.951 157.558 245.432 153.148 245.292Z" fill="#CCFFCC"/>
</svg>
