<svg id="Calque_1" data-name="Calque 1" xmlns="http://www.w3.org/2000/svg" viewBox="0 0 426.72 498.04"><defs><style>.cls-1{fill:#192965;}.cls-2{fill:#fff;}</style></defs><g id="Calque_2" data-name="Calque 2"><g id="Calque_1-2" data-name="Calque 1-2"><path class="cls-1" d="M426.71,213.35C426.71,94.44,329.42-1.75,210.1,0,94.87,1.74,1.12,96,0,211.26c-1,103.49,71.71,190.19,168.83,210.8,4.36.92,17.09,7.39,32.73,16h0s71.3,40.75,101.32,58.53a10.22,10.22,0,0,0,15.42-9l-1.38-57.77L316,398.68C362.61,368.69,426.71,295.08,426.71,213.35Z" transform="translate(0.01 0.02)"/><path class="cls-2" d="M376.48,215.21c0,77.34-75,145.19-107,152.14l1.06,44.2a7.82,7.82,0,0,1-11.8,6.93c-23-13.6-71.27-41.81-79.58-43.58A163.3,163.3,0,0,1,50,213.61C50.84,125.43,122.57,53.29,210.75,52A163.24,163.24,0,0,1,376.46,212.73C376.47,213.56,376.48,214.38,376.48,215.21Z" transform="translate(0.01 0.02)"/><path class="cls-1" d="M369.9,146.1s6.25,51.31-77.12,64.47c-72.06,11.38-59.32,42-56.89,49.31,2.53,7.58,18.07,19.84,48,17.7,17.7-1.27,72.22-7.05,109.27-33.2C419.3,226,369.9,146.1,369.9,146.1Z" transform="translate(0.01 0.02)"/><path class="cls-1" d="M74.37,325.51s49.23-6.53,73.47-16.46,29.69-23.83,28.43-36.23c-2.14-21-28.3-22.81-43.79-19.42-19.44,4.27-39.09,7.81-77.94,5-4.87-.35-6.5,17.48-1.67,33.13C57.21,305.6,69.23,326.29,74.37,325.51Z" transform="translate(0.01 0.02)"/><path class="cls-1" d="M109.39,198.66a12.52,12.52,0,0,1-11-18.42,53,53,0,0,1,71.76-21.59,12.5,12.5,0,0,1-11.83,22,28,28,0,0,0-37.91,11.4A12.49,12.49,0,0,1,109.39,198.66Z" transform="translate(0.01 0.02)"/><path class="cls-1" d="M226.05,168.45a12.5,12.5,0,0,1-9.25-20.9,53,53,0,0,1,74.85-3.62,12.5,12.5,0,0,1-16.52,18.76l-.28-.25a28,28,0,0,0-39.54,1.91A12.43,12.43,0,0,1,226.05,168.45Z" transform="translate(0.01 0.02)"/></g></g></svg>