<svg width="15" height="10" viewBox="0 0 15 10" fill="none" xmlns="http://www.w3.org/2000/svg">
<path d="M6.53725 0.449293L0.286983 7.9496C0.0760763 8.20458 -0.0251967 8.53274 0.00534128 8.86222C0.0358792 9.19171 0.195739 9.49566 0.449915 9.70753C0.70409 9.9194 1.03186 10.0219 1.36146 9.99261C1.69106 9.96332 1.99562 9.8046 2.20844 9.55123L7.49802 3.20331L12.7876 9.55123C13.0001 9.80558 13.3049 9.96517 13.635 9.99494C13.9652 10.0247 14.2936 9.92223 14.5482 9.71001C14.8028 9.49778 14.9628 9.19318 14.9929 8.8631C15.0231 8.53302 14.921 8.20446 14.7091 7.9496L8.45871 0.449293C8.34122 0.308657 8.19428 0.19553 8.02827 0.117904C7.86227 0.0402775 7.68124 4.39606e-05 7.49798 4.39584e-05C7.31472 4.39562e-05 7.1337 0.0402775 6.96769 0.117904C6.80169 0.19553 6.65475 0.308657 6.53725 0.449293V0.449293Z" fill="#192965"/>
</svg>
