<svg width="50" height="50" viewBox="0 0 50 50" fill="none" xmlns="http://www.w3.org/2000/svg">
<path d="M25 0C11.193 0 0 11.193 0 25C0 38.807 11.193 50 25 50C38.808 50 50 38.807 50 25C50 11.193 38.808 0 25 0ZM25 45C13.972 45 5 36.028 5 25C5 13.972 13.972 5 25 5C36.028 5 45 13.972 45 25C45 36.028 36.028 45 25 45Z" fill="#454545"/>
<path d="M34.093 23.2499L21.9689 16.2499C20.302 15.2879 18.938 16.0749 18.938 17.9999V31.9999C18.938 33.9249 20.302 34.7129 21.9689 33.7499L34.093 26.7499C35.76 25.7879 35.76 24.2119 34.093 23.2499Z" fill="#454545"/>
</svg>
