<svg width="12" height="12" viewBox="0 0 12 12" fill="none" xmlns="http://www.w3.org/2000/svg">
<path d="M4.51454 8.12306L5.629 6.56493C6.88757 4.80508 8.14687 3.04533 9.4069 1.28568C9.95678 0.518786 11.019 0.517185 11.5326 1.27832C11.8509 1.74966 11.8343 2.35453 11.4833 2.84733C10.5483 4.15655 9.61259 5.46449 8.67601 6.77115C7.65128 8.20375 6.62623 9.63636 5.60087 11.069C5.01441 11.8877 3.98905 11.8557 3.40478 11.0328C2.64388 9.95753 1.85548 8.90276 1.07896 7.83904C0.822616 7.48681 0.735085 7.09776 0.85419 6.67572C0.998303 6.16564 1.33155 5.84319 1.84079 5.73752C2.35003 5.63185 2.78487 5.7958 3.10342 6.21399C3.54889 6.79836 3.97498 7.39875 4.40982 7.99114C4.44171 8.03244 4.47453 8.07215 4.51454 8.12306Z" fill="white"/>
</svg>
