<svg id="Calque_1" data-name="Calque 1" xmlns="http://www.w3.org/2000/svg" viewBox="0 0 574.86 670.91"><defs><style>.cls-1{fill:#fff;}.cls-2{fill:#192965;}</style></defs><path class="cls-1" d="M575.34,332.58c0,104.19-101.08,195.6-144.13,205l1.42,59.56a10.53,10.53,0,0,1-15.89,9.33c-30.95-18.33-96-56.33-107.22-58.7-100.11-21.25-175.06-110.62-174-217.3,1.14-118.8,97.78-216,216.57-217.75C475.06,110.84,575.34,210,575.34,332.58Z" transform="translate(-68.14 -42.64)"/><path class="cls-2" d="M643,330.08c0-160.21-131.06-289.8-291.81-287.4C195.94,45,69.64,172,68.15,327.25c-1.34,139.43,96.61,256.22,227.45,284,5.87,1.25,23,10,44.09,21.5v0s96.05,54.9,136.5,78.85A13.77,13.77,0,0,0,497,699.42l-1.85-77.83-1.26-41.84C556.64,539.35,643,440.18,643,330.08ZM431.21,537.53l1.42,59.56a10.53,10.53,0,0,1-15.89,9.33c-30.95-18.33-96-56.33-107.22-58.7a219.79,219.79,0,0,1-119.26-69.9c22.29-3.74,56.39-10.36,77.05-18.82,32.67-13.37,40-32.1,38.29-48.81-2.88-28.23-38.12-30.74-59-26.16-25.91,5.69-52.11,10.41-103.32,6.82a220.25,220.25,0,0,1-7.8-60.43c1.14-118.8,97.78-216,216.57-217.75,98-1.46,181.51,61.15,211.47,148.62-7,21.85-29.69,53.79-101,65-97.07,15.33-79.91,56.59-76.64,66.42,3.41,10.22,24.34,26.73,64.72,23.85,19.06-1.36,69.79-6.61,114.88-26.65C539.11,468.46,466.11,530,431.21,537.53Z" transform="translate(-68.14 -42.64)"/><path class="cls-2" d="M215.51,305.93a12.5,12.5,0,0,1-11-18.42,67.13,67.13,0,0,1,90.8-27.31,12.5,12.5,0,0,1-11.83,22,42.1,42.1,0,0,0-57,17.13A12.47,12.47,0,0,1,215.51,305.93Z" transform="translate(-68.14 -42.64)"/><path class="cls-2" d="M372.68,265.24a12.49,12.49,0,0,1-9.25-20.9,67.06,67.06,0,0,1,94.71-4.58,12.5,12.5,0,1,1-16.81,18.51,42.06,42.06,0,0,0-59.39,2.87A12.47,12.47,0,0,1,372.68,265.24Z" transform="translate(-68.14 -42.64)"/></svg>